Lato-Thin.ufo
<glyph name="exclam" format="2">
  <advance width="494.0"/>
  <unicode hex="0021"/>
  <guideline x="346.4"/>
  <outline>
    <contour>
      <point x="220.9" y="1406.0" type="line"/>
      <point x="220.9" y="834.0" type="line" smooth="yes"/>
      <point x="220.9" y="715.6"/>
      <point x="224.3" y="634.8"/>
      <point x="230.3" y="480.4" type="curve"/>
      <point x="265.7" y="480.4" type="line"/>
      <point x="271.7" y="634.8"/>
      <point x="275.1" y="715.6"/>
      <point x="275.1" y="834.0" type="curve" smooth="yes"/>
      <point x="275.1" y="1406.0" type="line"/>
    </contour>
    <contour>
      <point x="168.9" y="59.4" type="curve" smooth="yes"/>
      <point x="168.9" y="17.0"/>
      <point x="201.7" y="-15.8"/>
      <point x="244.1" y="-15.8" type="curve" smooth="yes"/>
      <point x="286.3" y="-15.8"/>
      <point x="321.1" y="17.0"/>
      <point x="321.1" y="59.4" type="curve" smooth="yes"/>
      <point x="321.1" y="101.6"/>
      <point x="286.3" y="136.4"/>
      <point x="244.1" y="136.4" type="curve" smooth="yes"/>
      <point x="201.7" y="136.4"/>
      <point x="168.9" y="101.6"/>
    </contour>
  </outline>
</glyph>
<glyph name="numbersign" format="2">
  <advance width="1160"/>
  <unicode hex="0023"/>
  <outline>
    <contour>
      <point x="319.6" y="479.2" type="line"/>
      <point x="319.6" y="464.8" type="line"/>
      <point x="217.6" y="0" type="line" name="n02"/>
      <point x="240.4" y="0" type="line" smooth="yes"/>
      <point x="254" y="0"/>
      <point x="265.4" y="6.8"/>
      <point x="268.6" y="25.6" type="curve"/>
      <point x="364.8" y="464.8" type="line"/>
      <point x="364.8" y="479.2" type="line"/>
      <point x="462.2" y="927.8" type="line"/>
      <point x="462.2" y="940.6" type="line"/>
      <point x="564" y="1406" type="line" name="n11"/>
      <point x="542.6" y="1406" type="line" smooth="yes"/>
      <point x="527.2" y="1406"/>
      <point x="516.4" y="1398.4"/>
      <point x="513.4" y="1381.2" type="curve"/>
      <point x="417" y="940.6" type="line"/>
      <point x="417" y="927.8" type="line"/>
    </contour>
    <contour>
      <point x="689.2" y="479.2" type="line"/>
      <point x="689.2" y="464.8" type="line"/>
      <point x="593" y="27.2" type="line"/>
      <point x="588" y="7.8"/>
      <point x="598" y="0"/>
      <point x="612.6" y="0" type="curve" smooth="yes"/>
      <point x="632.4" y="0" type="line"/>
      <point x="734.4" y="464.8" type="line"/>
      <point x="734.4" y="479.2" type="line"/>
      <point x="831.8" y="927.8" type="line"/>
      <point x="831.8" y="940.6" type="line"/>
      <point x="928.2" y="1377.4" type="line" smooth="yes"/>
      <point x="932.8" y="1396"/>
      <point x="924.8" y="1406"/>
      <point x="911.2" y="1406" type="curve" smooth="yes"/>
      <point x="888.4" y="1406" type="line"/>
      <point x="786.6" y="940.6" type="line"/>
      <point x="786.6" y="927.8" type="line"/>
    </contour>
    <contour>
      <point x="1004.8" y="453.2" type="line" name="n36"/>
      <point x="1006.4" y="468.6" type="line" smooth="yes"/>
      <point x="1007.8" y="485"/>
      <point x="999.6" y="492"/>
      <point x="986.2" y="492" type="curve" smooth="yes" name="n40"/>
      <point x="96.4" y="492" type="line"/>
      <point x="94.8" y="476.6" type="line" smooth="yes"/>
      <point x="93.4" y="460.2"/>
      <point x="101.6" y="453.2"/>
      <point x="115" y="453.2" type="curve" smooth="yes"/>
    </contour>
    <contour>
      <point x="148.8" y="914.2" type="line" name="n46"/>
      <point x="1036.2" y="914.2" type="line" smooth="yes"/>
      <point x="1052.2" y="914.2"/>
      <point x="1061.2" y="920.8"/>
      <point x="1062.4" y="934.4" type="curve"/>
      <point x="1064.8" y="953" type="line"/>
      <point x="177.4" y="953" type="line" smooth="yes" name="n52"/>
      <point x="161.4" y="953"/>
      <point x="152.4" y="946.4"/>
      <point x="151.2" y="932.8" type="curve"/>
    </contour>
  </outline>
</glyph>
<glyph name="dollar" format="2">
  <advance width="1160"/>
  <unicode hex="0024"/>
  <outline>
    <contour>
      <point x="955.4" y="1278.2" type="line"/>
      <point x="863.2" y="1373.6"/>
      <point x="758.6" y="1420"/>
      <point x="613.6" y="1420" type="curve" smooth="yes" name="n03"/>
      <point x="362.4" y="1420"/>
      <point x="221.2" y="1252.6"/>
      <point x="221.2" y="1070.2" type="curve" smooth="yes" name="n06"/>
      <point x="221.2" y="601"/>
      <point x="949.8" y="818.2"/>
      <point x="949.8" y="393.2" type="curve" smooth="yes" name="n09"/>
      <point x="949.8" y="192"/>
      <point x="806.4" y="28"/>
      <point x="557.6" y="28" type="curve" smooth="yes" name="n12"/>
      <point x="300.8" y="28"/>
      <point x="215.6" y="194.8"/>
      <point x="185.8" y="194.8" type="curve" smooth="yes"/>
      <point x="177.4" y="194.8"/>
      <point x="172.6" y="191.2"/>
      <point x="167.4" y="185.2" type="curve"/>
      <point x="154.2" y="167" type="line"/>
      <point x="252.8" y="53"/>
      <point x="369.2" y="-16"/>
      <point x="557.6" y="-16" type="curve" smooth="yes" name="n22"/>
      <point x="837" y="-16"/>
      <point x="999" y="169.4"/>
      <point x="999" y="401.6" type="curve" smooth="yes" name="n25"/>
      <point x="999" y="856"/>
      <point x="270.2" y="655.2"/>
      <point x="270.2" y="1073.4" type="curve" smooth="yes" name="n28"/>
      <point x="270.2" y="1232.8"/>
      <point x="390.2" y="1375.8"/>
      <point x="616.6" y="1375.8" type="curve" smooth="yes" name="n31"/>
      <point x="830.8" y="1375.8"/>
      <point x="898.6" y="1250.8"/>
      <point x="927.6" y="1250.8" type="curve" smooth="yes"/>
      <point x="934.4" y="1250.8"/>
      <point x="940.2" y="1254.2"/>
      <point x="944.2" y="1261.2" type="curve"/>
    </contour>
    <contour>
      <point x="532" y="-267.4" type="line" name="n38"/>
      <point x="552.4" y="-267.4" type="line" smooth="yes"/>
      <point x="564.2" y="-267.4"/>
      <point x="571.2" y="-258.2"/>
      <point x="571.4" y="-245.4" type="curve" smooth="yes"/>
      <point x="648.4" y="1621.8" type="line" name="n43"/>
      <point x="628" y="1621.8" type="line" smooth="yes"/>
      <point x="616.2" y="1621.8"/>
      <point x="609.2" y="1612.6"/>
      <point x="609" y="1599.8" type="curve" smooth="yes"/>
    </contour>
  </outline>
</glyph>
<glyph name="percent" format="2">
  <advance width="1537.0"/>
  <unicode hex="0025"/>
  <outline>
    <contour>
      <point x="680.5" y="1068.2" type="curve" smooth="yes"/>
      <point x="680.5" y="1308.0"/>
      <point x="550.7" y="1421.8"/>
      <point x="393.5" y="1421.8" type="curve" smooth="yes"/>
      <point x="234.7" y="1421.8"/>
      <point x="106.7" y="1308.0"/>
      <point x="106.7" y="1068.2" type="curve" smooth="yes"/>
      <point x="106.7" y="831.0"/>
      <point x="234.7" y="717.2"/>
      <point x="393.5" y="717.2" type="curve" smooth="yes"/>
      <point x="548.7" y="717.2"/>
      <point x="680.5" y="831.0"/>
    </contour>
    <contour>
      <point x="636.9" y="1068.2" type="curve" smooth="yes"/>
      <point x="636.9" y="847.0"/>
      <point x="525.9" y="753.6"/>
      <point x="393.5" y="753.6" type="curve" smooth="yes"/>
      <point x="261.1" y="753.6"/>
      <point x="150.5" y="847.0"/>
      <point x="150.5" y="1068.2" type="curve" smooth="yes"/>
      <point x="150.5" y="1290.0"/>
      <point x="261.1" y="1385.4"/>
      <point x="393.5" y="1385.4" type="curve" smooth="yes"/>
      <point x="525.9" y="1385.4"/>
      <point x="636.9" y="1290.0"/>
    </contour>
    <contour>
      <point x="234.9" y="0.0" type="line"/>
      <point x="270.7" y="0.0" type="line" smooth="yes"/>
      <point x="280.3" y="0.0"/>
      <point x="288.7" y="3.8"/>
      <point x="294.3" y="11.8" type="curve"/>
      <point x="1293.3" y="1406.0" type="line"/>
      <point x="1258.1" y="1406.0" type="line" smooth="yes"/>
      <point x="1245.7" y="1406.0"/>
      <point x="1239.5" y="1401.8"/>
      <point x="1233.9" y="1394.0" type="curve"/>
    </contour>
    <contour>
      <point x="1430.3" y="334.8" type="curve" smooth="yes"/>
      <point x="1430.3" y="574.6"/>
      <point x="1300.5" y="688.4"/>
      <point x="1143.3" y="688.4" type="curve" smooth="yes"/>
      <point x="984.5" y="688.4"/>
      <point x="856.5" y="574.6"/>
      <point x="856.5" y="334.8" type="curve" smooth="yes"/>
      <point x="856.5" y="97.6"/>
      <point x="984.5" y="-16.2"/>
      <point x="1143.3" y="-16.2" type="curve" smooth="yes"/>
      <point x="1298.5" y="-16.2"/>
      <point x="1430.3" y="97.6"/>
    </contour>
    <contour>
      <point x="1386.7" y="334.8" type="curve" smooth="yes"/>
      <point x="1386.7" y="113.6"/>
      <point x="1275.7" y="20.2"/>
      <point x="1143.3" y="20.2" type="curve" smooth="yes"/>
      <point x="1010.9" y="20.2"/>
      <point x="900.3" y="113.6"/>
      <point x="900.3" y="334.8" type="curve" smooth="yes"/>
      <point x="900.3" y="556.6"/>
      <point x="1010.9" y="652.0"/>
      <point x="1143.3" y="652.0" type="curve" smooth="yes"/>
      <point x="1275.7" y="652.0"/>
      <point x="1386.7" y="556.6"/>
    </contour>
  </outline>
</glyph>
<glyph name="ampersand" format="2">
  <advance width="1383.3"/>
  <unicode hex="0026"/>
  <outline>
    <contour>
      <point x="499.4" y="790.2" type="line"/>
      <point x="285.8" y="727.8"/>
      <point x="116.6" y="558.4"/>
      <point x="116.6" y="351.0" type="curve" smooth="yes"/>
      <point x="116.6" y="114.2"/>
      <point x="318.0" y="-16.0"/>
      <point x="512.2" y="-16.0" type="curve" smooth="yes"/>
      <point x="922.6" y="-16.0"/>
      <point x="1167.6" y="381.6"/>
      <point x="1174.8" y="643.4" type="curve"/>
      <point x="1148.0" y="643.4" type="line" smooth="yes"/>
      <point x="1135.4" y="643.4"/>
      <point x="1131.4" y="635.6"/>
      <point x="1129.2" y="622.8" type="curve"/>
      <point x="1100.0" y="372.4"/>
      <point x="892.0" y="27.0"/>
      <point x="517.8" y="27.0" type="curve" smooth="yes"/>
      <point x="363.4" y="27.0"/>
      <point x="169.8" y="132.6"/>
      <point x="169.8" y="353.6" type="curve" smooth="yes"/>
      <point x="169.8" y="540.4"/>
      <point x="319.2" y="700.4"/>
      <point x="530.0" y="763.6" type="curve"/>
    </contour>
    <contour>
      <point x="657.2" y="1422.0" type="curve"/>
      <point x="453.4" y="1422.0"/>
      <point x="313.8" y="1288.8"/>
      <point x="313.8" y="1107.8" type="curve" smooth="yes"/>
      <point x="313.8" y="968.2"/>
      <point x="381.8" y="866.6"/>
      <point x="518.2" y="732.6" type="curve" smooth="yes"/>
      <point x="1258.0" y="14.8" type="line"/>
      <point x="1273.0" y="1.2000000000000002"/>
      <point x="1281.4" y="0.0"/>
      <point x="1298.4" y="0.0" type="curve" smooth="yes"/>
      <point x="1343.4" y="0.0" type="line"/>
      <point x="552.0" y="766.0" type="line" smooth="yes"/>
      <point x="425.8" y="887.4"/>
      <point x="364.2" y="989.8"/>
      <point x="364.2" y="1108.0" type="curve" smooth="yes"/>
      <point x="364.2" y="1268.6"/>
      <point x="484.2" y="1380.2"/>
      <point x="657.2" y="1380.2" type="curve" smooth="yes"/>
      <point x="833.0" y="1380.2"/>
      <point x="916.0" y="1236.6"/>
      <point x="924.4" y="1165.0" type="curve"/>
      <point x="927.8" y="1150.6"/>
      <point x="937.8" y="1145.4"/>
      <point x="946.6" y="1146.2" type="curve" smooth="yes"/>
      <point x="972.0" y="1150.4" type="line"/>
      <point x="970.2" y="1295.6"/>
      <point x="821.6" y="1422.0"/>
    </contour>
  </outline>
</glyph>
<glyph name="quotesingle" format="2">
  <advance width="382"/>
  <unicode hex="0027"/>
  <outline>
    <contour>
      <point x="168.5" y="1406" type="line" name="n00"/>
      <point x="168.5" y="1112.8" type="line"/>
      <point x="173.1" y="960.2" type="line" name="n02"/>
      <point x="174.5" y="949.2"/>
      <point x="179.5" y="941.4" name="n04"/>
      <point x="190.9" y="941.4" type="curve" smooth="yes"/>
      <point x="203.3" y="941.4"/>
      <point x="207.7" y="949.2"/>
      <point x="208.9" y="960.2" type="curve"/>
      <point x="213.5" y="1112.8" type="line" name="n09"/>
      <point x="213.5" y="1406" type="line"/>
    </contour>
  </outline>
  <guideline angle="90" x="248" y="0"/>
</glyph>
<glyph name="parenleft" format="2">
  <advance width="507"/>
  <unicode hex="0028"/>
  <outline>
    <contour>
      <point x="167.6" y="631.4" type="curve" smooth="yes" name="n00"/>
      <point x="167.6" y="936.6"/>
      <point x="253.2" y="1212.4"/>
      <point x="422.4" y="1472.2" type="curve" smooth="yes"/>
      <point x="431.2" y="1486.2"/>
      <point x="426.6" y="1494.8"/>
      <point x="419.6" y="1498.8" type="curve" smooth="yes"/>
      <point x="396.8" y="1512.6" type="line" name="n07"/>
      <point x="190.2" y="1196.4"/>
      <point x="121" y="935.8"/>
      <point x="121" y="631.4" type="curve" smooth="yes" name="n10"/>
      <point x="121" y="327"/>
      <point x="190.2" y="66.4"/>
      <point x="396.8" y="-249.8" type="curve" name="n13"/>
      <point x="419.6" y="-236" type="line" smooth="yes"/>
      <point x="426.6" y="-232"/>
      <point x="431.2" y="-223.4"/>
      <point x="422.4" y="-209.4" type="curve" smooth="yes"/>
      <point x="253.2" y="50.4"/>
      <point x="167.6" y="326.2"/>
    </contour>
  </outline>
</glyph>
<glyph name="parenright" format="2">
  <advance width="507"/>
  <unicode hex="0029"/>
  <outline>
    <contour>
      <point x="339.5" y="631.4" type="curve" smooth="yes" name="n00"/>
      <point x="339.5" y="326.2"/>
      <point x="253.9" y="50.4"/>
      <point x="84.7" y="-209.4" type="curve" smooth="yes"/>
      <point x="75.9" y="-223.4"/>
      <point x="80.5" y="-232"/>
      <point x="87.5" y="-236" type="curve" smooth="yes"/>
      <point x="110.3" y="-249.8" type="line" name="n07"/>
      <point x="316.9" y="66.4"/>
      <point x="386.1" y="327"/>
      <point x="386.1" y="631.4" type="curve" smooth="yes" name="n10"/>
      <point x="386.1" y="935.8"/>
      <point x="316.9" y="1196.4"/>
      <point x="110.3" y="1512.6" type="curve" name="n13"/>
      <point x="87.5" y="1498.8" type="line" smooth="yes"/>
      <point x="80.5" y="1494.8"/>
      <point x="75.9" y="1486.2"/>
      <point x="84.7" y="1472.2" type="curve" smooth="yes"/>
      <point x="253.9" y="1212.4"/>
      <point x="339.5" y="936.6"/>
    </contour>
  </outline>
</glyph>
<glyph name="asterisk" format="2">
  <advance width="850.0"/>
  <unicode hex="002A"/>
  <outline>
    <contour>
      <point x="181.0" y="1039.6" type="line"/>
      <point x="377.4" y="1154.2" type="line" smooth="yes"/>
      <point x="394.4" y="1164.0"/>
      <point x="401.6" y="1169.0"/>
      <point x="419.2" y="1189.4" type="curve"/>
      <point x="414.2" y="1200.4" type="line"/>
      <point x="388.2" y="1194.2"/>
      <point x="378.2" y="1192.6"/>
      <point x="361.2" y="1182.8" type="curve" smooth="yes"/>
      <point x="164.8" y="1068.2" type="line"/>
    </contour>
    <contour>
      <point x="440.4" y="914.4" type="line"/>
      <point x="440.4" y="1136.8" type="line" smooth="yes"/>
      <point x="440.4" y="1156.2"/>
      <point x="437.4" y="1164.6"/>
      <point x="430.8" y="1191.2" type="curve"/>
      <point x="419.2" y="1191.2" type="line"/>
      <point x="410.6" y="1166.6"/>
      <point x="407.8" y="1156.2"/>
      <point x="407.8" y="1136.6" type="curve" smooth="yes"/>
      <point x="407.8" y="914.4" type="line"/>
    </contour>
    <contour>
      <point x="687.0" y="1068.0" type="line"/>
      <point x="488.8" y="1182.8" type="line" smooth="yes"/>
      <point x="471.8" y="1192.8"/>
      <point x="463.4" y="1194.2"/>
      <point x="435.8" y="1200.4" type="curve"/>
      <point x="430.8" y="1189.4" type="line"/>
      <point x="450.0" y="1167.2"/>
      <point x="455.6" y="1164.0"/>
      <point x="472.6" y="1154.2" type="curve" smooth="yes"/>
      <point x="670.8" y="1039.4" type="line"/>
    </contour>
    <contour>
      <point x="407.8" y="1486.4" type="line"/>
      <point x="407.8" y="1264.0" type="line" smooth="yes"/>
      <point x="407.8" y="1244.6"/>
      <point x="410.8" y="1234.4"/>
      <point x="419.2" y="1207.8" type="curve"/>
      <point x="430.8" y="1207.8" type="line"/>
      <point x="439.4" y="1234.2"/>
      <point x="440.4" y="1244.6"/>
      <point x="440.4" y="1264.2" type="curve" smooth="yes"/>
      <point x="440.4" y="1486.4" type="line"/>
    </contour>
    <contour>
      <point x="163.0" y="1332.8" type="line"/>
      <point x="361.2" y="1218.0" type="line" smooth="yes"/>
      <point x="378.2" y="1208.0"/>
      <point x="386.6" y="1206.6"/>
      <point x="414.2" y="1198.6" type="curve"/>
      <point x="419.2" y="1209.6" type="line"/>
      <point x="398.2" y="1230.0"/>
      <point x="394.4" y="1236.8"/>
      <point x="377.4" y="1246.6" type="curve" smooth="yes"/>
      <point x="179.2" y="1361.4" type="line"/>
    </contour>
    <contour>
      <point x="669.0" y="1361.2" type="line"/>
      <point x="472.6" y="1246.6" type="line" smooth="yes"/>
      <point x="455.6" y="1236.8"/>
      <point x="448.4" y="1230.0"/>
      <point x="430.8" y="1209.6" type="curve"/>
      <point x="435.8" y="1198.6" type="line"/>
      <point x="461.8" y="1203.0"/>
      <point x="471.8" y="1208.2"/>
      <point x="488.8" y="1218.0" type="curve" smooth="yes"/>
      <point x="685.2" y="1332.6" type="line"/>
    </contour>
    <contour>
      <point x="409.8" y="1205.8" type="line"/>
      <point x="410.6" y="1191.8" type="line"/>
      <point x="423.2" y="1183.0" type="line"/>
      <point x="437.4" y="1191.6" type="line"/>
      <point x="439.2" y="1208.6" type="line"/>
      <point x="425.0" y="1212.2" type="line"/>
    </contour>
  </outline>
</glyph>
<glyph name="plus" format="2">
  <advance width="1160.0"/>
  <unicode hex="002B"/>
  <outline>
    <contour>
      <point x="116.5" y="649.6" type="line"/>
      <point x="1045.3" y="649.6" type="line"/>
      <point x="1045.3" y="690.8" type="line"/>
      <point x="116.5" y="690.8" type="line"/>
    </contour>
    <contour>
      <point x="558.3" y="1153.0" type="line"/>
      <point x="558.3" y="185.4" type="line"/>
      <point x="601.5" y="185.4" type="line"/>
      <point x="601.5" y="1153.0" type="line"/>
    </contour>
  </outline>
</glyph>
<glyph name="comma" format="2">
  <advance width="430"/>
  <unicode hex="002C"/>
  <outline>
    <contour>
      <point x="146.2" y="65" type="curve" smooth="yes" name="n00"/>
      <point x="146.2" y="22.6"/>
      <point x="174.6" y="-6.6"/>
      <point x="213.4" y="-6.6" type="curve" smooth="yes" name="n03"/>
      <point x="238.4" y="-6.6"/>
      <point x="253.6" y="1.4"/>
      <point x="266.2" y="16.8" type="curve"/>
      <point x="253.8" y="19.8" type="line" name="n07"/>
      <point x="253.8" y="-95"/>
      <point x="174" y="-188.2"/>
      <point x="151.3" y="-214.7" type="curve"/>
      <point x="148.2" y="-218.7"/>
      <point x="146.2" y="-222.2"/>
      <point x="146.2" y="-225.4" type="curve" smooth="yes"/>
      <point x="146.2" y="-229.2"/>
      <point x="146.8" y="-232.2"/>
      <point x="151.1" y="-236.3" type="curve" smooth="yes"/>
      <point x="159.2" y="-244" type="line" name="n17"/>
      <point x="236.8" y="-166.8"/>
      <point x="290.4" y="-58.6"/>
      <point x="290.4" y="46.6" type="curve" smooth="yes" name="n20"/>
      <point x="290.4" y="102"/>
      <point x="261.4" y="136.4"/>
      <point x="217" y="136.4" type="curve" smooth="yes" name="n23"/>
      <point x="174.6" y="136.4"/>
      <point x="146.2" y="102.6"/>
    </contour>
  </outline>
</glyph>
<glyph name="hyphen" format="2">
  <advance width="739"/>
  <unicode hex="002D"/>
  <unicode hex="00AD"/>
  <unicode hex="2010"/>
  <outline>
    <contour>
      <point x="144.5" y="568" type="line" name="n00"/>
      <point x="594.5" y="568" type="line"/>
      <point x="594.5" y="612.2" type="line"/>
      <point x="144.5" y="612.2" type="line" name="n03"/>
    </contour>
  </outline>
</glyph>
<glyph name="period" format="2">
  <advance width="465"/>
  <unicode hex="002E"/>
  <outline>
    <contour>
      <point x="156.6" y="59.4" type="curve" smooth="yes" name="n00"/>
      <point x="156.6" y="17"/>
      <point x="189.4" y="-15.8"/>
      <point x="231.8" y="-15.8" type="curve" smooth="yes" name="n03"/>
      <point x="274" y="-15.8"/>
      <point x="308.8" y="17"/>
      <point x="308.8" y="59.4" type="curve" smooth="yes" name="n06"/>
      <point x="308.8" y="101.6"/>
      <point x="274" y="136.4"/>
      <point x="231.8" y="136.4" type="curve" smooth="yes" name="n09"/>
      <point x="189.4" y="136.4"/>
      <point x="156.6" y="101.6"/>
    </contour>
  </outline>
</glyph>
<glyph name="slash" format="2">
  <advance width="852"/>
  <unicode hex="002F"/>
  <outline>
    <contour>
      <point x="770.2" y="1446" type="line" name="n00"/>
      <point x="748" y="1446" type="line" smooth="yes"/>
      <point x="731.8" y="1446"/>
      <point x="720.6" y="1438.4"/>
      <point x="714.4" y="1424.2" type="curve" smooth="yes"/>
      <point x="81.6" y="-80.2" type="line" name="n05"/>
      <point x="102" y="-80.2" type="line" smooth="yes"/>
      <point x="115.6" y="-80.2"/>
      <point x="131.6" y="-74.4"/>
      <point x="138" y="-57.8" type="curve"/>
    </contour>
  </outline>
</glyph>
<glyph name="zero" format="2">
  <advance width="1160"/>
  <unicode hex="0030"/>
  <outline>
    <contour>
      <point x="1080.4" y="703" type="curve" smooth="yes" name="n00"/>
      <point x="1080.4" y="1195"/>
      <point x="853.8" y="1422"/>
      <point x="579.8" y="1422" type="curve" smooth="yes" name="n03"/>
      <point x="305.8" y="1422"/>
      <point x="79.6" y="1195"/>
      <point x="79.6" y="703" type="curve" smooth="yes" name="n06"/>
      <point x="79.6" y="211"/>
      <point x="305.8" y="-14.2"/>
      <point x="579.8" y="-14.2" type="curve" smooth="yes" name="n09"/>
      <point x="853.8" y="-14.2"/>
      <point x="1080.4" y="211"/>
    </contour>
    <contour>
      <point x="1025" y="703" type="curve" smooth="yes" name="n12"/>
      <point x="1025" y="231"/>
      <point x="821.2" y="29.8"/>
      <point x="579.8" y="29.8" type="curve" smooth="yes" name="n15"/>
      <point x="338.4" y="29.8"/>
      <point x="133.2" y="231"/>
      <point x="133.2" y="703" type="curve" smooth="yes" name="n18"/>
      <point x="133.2" y="1175"/>
      <point x="338.4" y="1378"/>
      <point x="579.8" y="1378" type="curve" smooth="yes" name="n21"/>
      <point x="821.2" y="1378"/>
      <point x="1025" y="1175"/>
    </contour>
  </outline>
</glyph>
<glyph name="one" format="2">
  <advance width="1160"/>
  <unicode hex="0031"/>
  <outline>
    <contour>
      <point x="625.2" y="1413.2" type="line" name="n00"/>
      <point x="616.8" y="1369.6"/>
      <point x="610.8" y="1321.8"/>
      <point x="610.8" y="1278.6" type="curve" smooth="yes"/>
      <point x="610.8" y="0" type="line" name="n04"/>
      <point x="663.4" y="0" type="line" name="n05"/>
      <point x="663.4" y="1413.2" type="line"/>
    </contour>
    <contour>
      <point x="276.8" y="0" type="line" name="n07"/>
      <point x="986.2" y="0" type="line"/>
      <point x="986.2" y="41.4" type="line"/>
      <point x="276.8" y="41.4" type="line" name="n10"/>
    </contour>
    <contour>
      <point x="225.2" y="1056.4" type="line"/>
      <point x="240.4" y="1035.6" type="line"/>
      <point x="247.8" y="1027.4"/>
      <point x="261.2" y="1024.4"/>
      <point x="272.4" y="1034.4" type="curve" smooth="yes"/>
      <point x="630.4" y="1355.6" type="line"/>
      <point x="625.2" y="1413.2" type="line"/>
    </contour>
  </outline>
</glyph>
<glyph name="two" format="2">
  <advance width="1160.0"/>
  <unicode hex="0032"/>
  <outline>
    <contour>
      <point x="587.0" y="1422.0" type="curve" smooth="yes"/>
      <point x="360.6" y="1422.0"/>
      <point x="196.0" y="1281.8"/>
      <point x="164.6" y="1050.8" type="curve"/>
      <point x="190.0" y="1047.8" type="line" smooth="yes"/>
      <point x="205.6" y="1046.4"/>
      <point x="215.0" y="1052.2"/>
      <point x="219.6" y="1070.6" type="curve" smooth="yes"/>
      <point x="250.8" y="1251.8"/>
      <point x="388.8" y="1377.6"/>
      <point x="585.2" y="1377.6" type="curve" smooth="yes"/>
      <point x="760.2" y="1377.6"/>
      <point x="927.8" y="1277.6"/>
      <point x="927.8" y="1049.0" type="curve" smooth="yes"/>
      <point x="927.8" y="855.2"/>
      <point x="796.8" y="713.0"/>
      <point x="634.8" y="547.4" type="curve"/>
      <point x="139.2" y="44.8" type="line"/>
      <point x="133.4" y="39.2"/>
      <point x="126.6" y="28.8"/>
      <point x="126.6" y="19.4" type="curve"/>
      <point x="126.6" y="0.0" type="line"/>
      <point x="1017.4" y="0.0" type="line"/>
      <point x="1017.4" y="29.6" type="line" smooth="yes"/>
      <point x="1017.4" y="41.2"/>
      <point x="1009.6" y="49.0"/>
      <point x="997.6" y="49.0" type="curve" smooth="yes"/>
      <point x="318.8" y="49.0" type="line" smooth="yes"/>
      <point x="256.6" y="49.0"/>
      <point x="200.2" y="42.0"/>
      <point x="162.4" y="32.400000000000006" type="curve"/>
      <point x="174.8" y="16.4" type="line"/>
      <point x="672.0" y="523.6" type="line" smooth="yes"/>
      <point x="836.8" y="690.4"/>
      <point x="981.2" y="836.2"/>
      <point x="981.2" y="1050.0" type="curve" smooth="yes"/>
      <point x="981.2" y="1306.8"/>
      <point x="788.6" y="1422.0"/>
    </contour>
  </outline>
</glyph>
<glyph name="three" format="2">
  <advance width="1160"/>
  <unicode hex="0033"/>
  <outline>
    <contour>
      <point x="592.3" y="1422" type="curve" smooth="yes" name="n00"/>
      <point x="365.9" y="1422"/>
      <point x="201.3" y="1281.8"/>
      <point x="169.9" y="1050.8" type="curve"/>
      <point x="195.3" y="1047.8" type="line"/>
      <point x="210.9" y="1046.4"/>
      <point x="218.5" y="1052.2"/>
      <point x="223.1" y="1070.6" type="curve"/>
      <point x="254.3" y="1251.8"/>
      <point x="394.1" y="1377.6"/>
      <point x="590.5" y="1377.6" type="curve" smooth="yes" name="n10"/>
      <point x="765.5" y="1377.6"/>
      <point x="925.9" y="1283"/>
      <point x="925.9" y="1063.4" type="curve" smooth="yes" name="n13"/>
      <point x="925.9" y="876.2"/>
      <point x="779.7" y="748.2"/>
      <point x="533.9" y="741" type="curve"/>
      <point x="533.9" y="704.2" type="line"/>
      <point x="845.3" y="702.4"/>
      <point x="963.7" y="561.6"/>
      <point x="963.7" y="376.6" type="curve" smooth="yes" name="n20"/>
      <point x="963.7" y="221.6"/>
      <point x="832.7" y="28.4"/>
      <point x="572.3" y="28.4" type="curve" smooth="yes" name="n23"/>
      <point x="237.5" y="28.4"/>
      <point x="191.5" y="296.6"/>
      <point x="178.3" y="331.4" type="curve"/>
      <point x="170.3" y="354.4"/>
      <point x="150.9" y="352.4"/>
      <point x="140.1" y="347.6" type="curve" smooth="yes"/>
      <point x="122.7" y="340" type="line"/>
      <point x="160.9" y="191.4"/>
      <point x="240.9" y="-16"/>
      <point x="572.7" y="-16" type="curve" smooth="yes" name="n33"/>
      <point x="828.3" y="-16"/>
      <point x="1016.3" y="161"/>
      <point x="1016.3" y="377.6" type="curve" smooth="yes" name="n36"/>
      <point x="1016.3" y="583.2"/>
      <point x="873.7" y="726.8"/>
      <point x="609.5" y="733.8" type="curve"/>
      <point x="609.5" y="719" type="line"/>
      <point x="798.5" y="730.4"/>
      <point x="977.7" y="857.4"/>
      <point x="977.7" y="1069" type="curve" smooth="yes" name="n43"/>
      <point x="977.7" y="1312.2"/>
      <point x="793.9" y="1422"/>
    </contour>
  </outline>
</glyph>
<glyph name="four" format="2">
  <advance width="1160"/>
  <unicode hex="0034"/>
  <outline>
    <contour>
      <point x="811.1" y="1407.8" type="line" name="n00"/>
      <point x="768.9" y="1407.8" type="line"/>
      <point x="49.9" y="460.6" type="line"/>
      <point x="54.9" y="437.4" type="line"/>
      <point x="57.5" y="428.2"/>
      <point x="62.9" y="421.8"/>
      <point x="79.3" y="421.8" type="curve" smooth="yes" name="n06"/>
      <point x="1072.1" y="421.8" type="line" smooth="yes"/>
      <point x="1086.7" y="421.8"/>
      <point x="1092.5" y="428.2"/>
      <point x="1092.5" y="438.6" type="curve" smooth="yes"/>
      <point x="1092.5" y="464" type="line"/>
      <point x="69.7" y="464" type="line" name="n12"/>
      <point x="94.1" y="444" type="line"/>
      <point x="796.9" y="1374.8" type="line"/>
      <point x="776.5" y="1380.4" type="line"/>
      <point x="767.9" y="1347.2"/>
      <point x="764.3" y="1312.6"/>
      <point x="764.3" y="1282.6" type="curve" smooth="yes"/>
      <point x="764.3" y="0" type="line" name="n19"/>
      <point x="811.1" y="0" type="line" name="n20"/>
    </contour>
  </outline>
</glyph>
<glyph name="five" format="2">
  <advance width="1160"/>
  <unicode hex="0035"/>
  <outline>
    <contour>
      <point x="951.1" y="1406" type="line"/>
      <point x="336.5" y="1406" type="line" name="n01"/>
      <point x="228.7" y="801.4" type="line"/>
      <point x="264.1" y="788.8" type="line"/>
      <point x="365.6" y="815.5"/>
      <point x="455.9" y="827.6"/>
      <point x="534.4" y="827.6" type="curve" smooth="yes" name="n06"/>
      <point x="806.4" y="827.6"/>
      <point x="930.9" y="671"/>
      <point x="930.9" y="453" type="curve" smooth="yes" name="n09"/>
      <point x="930.9" y="182"/>
      <point x="742.7" y="31.8"/>
      <point x="511.9" y="31.8" type="curve" smooth="yes" name="n12"/>
      <point x="320.9" y="31.8"/>
      <point x="218.9" y="126.8"/>
      <point x="192.9" y="126.8" type="curve" smooth="yes"/>
      <point x="184.5" y="126.8"/>
      <point x="178.1" y="123.6"/>
      <point x="174.3" y="117.2" type="curve"/>
      <point x="159.3" y="96.6" type="line"/>
      <point x="234.5" y="39.6"/>
      <point x="361.5" y="-16"/>
      <point x="510.1" y="-16" type="curve" smooth="yes" name="n22"/>
      <point x="765.9" y="-16"/>
      <point x="985.3" y="157"/>
      <point x="985.3" y="452.8" type="curve" smooth="yes" name="n25"/>
      <point x="985.3" y="698.1"/>
      <point x="832.9" y="871.2"/>
      <point x="541.2" y="871.2" type="curve" smooth="yes" name="n28"/>
      <point x="459.9" y="871.2"/>
      <point x="368.5" y="859"/>
      <point x="265.3" y="831.4" type="curve"/>
      <point x="274.7" y="797.8" type="line"/>
      <point x="383.9" y="1399.6" type="line"/>
      <point x="343.3" y="1357.8" type="line" name="n34"/>
      <point x="920.3" y="1357.8" type="line" smooth="yes"/>
      <point x="940.7" y="1357.8"/>
      <point x="951.1" y="1369.4"/>
      <point x="951.1" y="1383.6" type="curve" smooth="yes"/>
    </contour>
  </outline>
</glyph>
<glyph name="six" format="2">
  <advance width="1160.0"/>
  <unicode hex="0036"/>
  <outline>
    <contour>
      <point x="202.5" y="419.2" type="curve"/>
      <point x="202.5" y="591.8"/>
      <point x="350.1" y="787.6"/>
      <point x="607.3" y="787.6" type="curve" smooth="yes"/>
      <point x="828.1" y="787.6"/>
      <point x="981.3" y="642.4"/>
      <point x="981.3" y="410.2" type="curve" smooth="yes"/>
      <point x="981.3" y="190.4"/>
      <point x="829.3" y="27.6"/>
      <point x="578.9" y="27.6" type="curve" smooth="yes"/>
      <point x="349.9" y="27.6"/>
      <point x="202.5" y="193.0"/>
    </contour>
    <contour>
      <point x="197.9" y="435.4" type="line"/>
      <point x="201.5" y="573.0"/>
      <point x="261.5" y="680.0"/>
      <point x="385.1" y="847.0" type="curve"/>
      <point x="804.5" y="1406.0" type="line"/>
      <point x="758.9" y="1406.0" type="line" smooth="yes"/>
      <point x="747.9" y="1406.0"/>
      <point x="738.1" y="1402.6"/>
      <point x="731.5" y="1393.2" type="curve"/>
      <point x="333.3" y="856.2" type="line"/>
      <point x="203.5" y="679.6"/>
      <point x="151.1" y="540.8"/>
      <point x="151.1" y="438.0" type="curve" smooth="yes"/>
      <point x="151.1" y="149.8"/>
      <point x="327.3" y="-16.0"/>
      <point x="579.5" y="-16.0" type="curve" smooth="yes"/>
      <point x="845.3" y="-16.0"/>
      <point x="1033.9" y="160.2"/>
      <point x="1033.9" y="412.6" type="curve" smooth="yes"/>
      <point x="1033.9" y="658.8"/>
      <point x="866.1" y="829.0"/>
      <point x="616.5" y="829.0" type="curve" smooth="yes"/>
      <point x="386.5" y="829.0"/>
      <point x="187.7" y="665.0"/>
      <point x="187.7" y="430.0" type="curve"/>
    </contour>
  </outline>
</glyph>
<glyph name="seven" format="2">
  <advance width="1160"/>
  <unicode hex="0037"/>
  <outline>
    <contour>
      <point x="134.8" y="1406" type="line" name="n00"/>
      <point x="134.8" y="1375.6" type="line" smooth="yes"/>
      <point x="134.8" y="1364.8"/>
      <point x="141.8" y="1357.8"/>
      <point x="152.6" y="1357.8" type="curve" smooth="yes" name="n04"/>
      <point x="1038.4" y="1357.8" type="line"/>
      <point x="1011.6" y="1366.2" type="line"/>
      <point x="1001" y="1355.8"/>
      <point x="993.6" y="1344.8"/>
      <point x="986.2" y="1330.4" type="curve" smooth="yes"/>
      <point x="306" y="0" type="line" name="n10"/>
      <point x="339.4" y="0" type="line" smooth="yes"/>
      <point x="357" y="0"/>
      <point x="369" y="8.4"/>
      <point x="375.4" y="21.4" type="curve" smooth="yes"/>
      <point x="1052.4" y="1353" type="line" smooth="yes"/>
      <point x="1055.8" y="1360"/>
      <point x="1059.8" y="1370"/>
      <point x="1059.8" y="1381.6" type="curve" smooth="yes"/>
      <point x="1059.8" y="1406" type="line"/>
    </contour>
  </outline>
</glyph>
<glyph name="eight" format="2">
  <advance width="1160"/>
  <unicode hex="0038"/>
  <outline>
    <contour>
      <point x="580" y="-16" type="curve" smooth="yes" name="n00"/>
      <point x="843.2" y="-16"/>
      <point x="1028" y="129"/>
      <point x="1028" y="364.2" type="curve" smooth="yes" name="n03"/>
      <point x="1028" y="629"/>
      <point x="821.6" y="738.2"/>
      <point x="596" y="744.6" type="curve"/>
      <point x="596" y="720.4" type="line"/>
      <point x="837" y="730.4"/>
      <point x="976.4" y="875.2"/>
      <point x="976.4" y="1068.8" type="curve" smooth="yes" name="n10"/>
      <point x="976.4" y="1264.4"/>
      <point x="827" y="1422"/>
      <point x="580" y="1422" type="curve" smooth="yes" name="n13"/>
      <point x="333" y="1422"/>
      <point x="183.6" y="1264.4"/>
      <point x="183.6" y="1068.8" type="curve" smooth="yes" name="n16"/>
      <point x="183.6" y="875.2"/>
      <point x="323" y="730.4"/>
      <point x="564" y="720.4" type="curve"/>
      <point x="564" y="744.6" type="line"/>
      <point x="338.4" y="738.2"/>
      <point x="132" y="629"/>
      <point x="132" y="364.2" type="curve" smooth="yes" name="n23"/>
      <point x="132" y="129"/>
      <point x="316.8" y="-16"/>
    </contour>
    <contour>
      <point x="580" y="753.6" type="curve" smooth="yes"/>
      <point x="346.6" y="753.6"/>
      <point x="235.4" y="905.4"/>
      <point x="235.4" y="1068.2" type="curve" smooth="yes" name="n29"/>
      <point x="235.4" y="1246"/>
      <point x="364.2" y="1380.4"/>
      <point x="580" y="1380.4" type="curve" smooth="yes" name="n32"/>
      <point x="795.8" y="1380.4"/>
      <point x="924.6" y="1246"/>
      <point x="924.6" y="1068.2" type="curve" smooth="yes" name="n35"/>
      <point x="924.6" y="905.4"/>
      <point x="813.4" y="753.6"/>
    </contour>
    <contour>
      <point x="580" y="26.4" type="curve" smooth="yes" name="n38"/>
      <point x="348.2" y="26.4"/>
      <point x="185.6" y="159.4"/>
      <point x="185.6" y="364.8" type="curve" smooth="yes" name="n41"/>
      <point x="185.6" y="639.4"/>
      <point x="419" y="711"/>
      <point x="580" y="711" type="curve" smooth="yes"/>
      <point x="741" y="711"/>
      <point x="974.4" y="639.4"/>
      <point x="974.4" y="364.8" type="curve" smooth="yes" name="n47"/>
      <point x="974.4" y="159.4"/>
      <point x="811.8" y="26.4"/>
    </contour>
  </outline>
</glyph>
<glyph name="nine" format="2">
  <advance width="1160.0"/>
  <unicode hex="0039"/>
  <outline>
    <contour>
      <point x="943.9" y="1003.0" type="curve"/>
      <point x="943.9" y="838.8"/>
      <point x="803.3" y="650.8"/>
      <point x="556.1" y="650.8" type="curve" smooth="yes"/>
      <point x="342.9" y="650.8"/>
      <point x="197.5" y="789.2"/>
      <point x="197.5" y="1012.0" type="curve" smooth="yes"/>
      <point x="197.5" y="1229.0"/>
      <point x="356.1" y="1378.4"/>
      <point x="582.7" y="1378.4" type="curve" smooth="yes"/>
      <point x="791.3" y="1378.4"/>
      <point x="943.9" y="1222.0"/>
    </contour>
    <contour>
      <point x="954.7" y="996.0" type="line"/>
      <point x="949.3" y="839.2"/>
      <point x="879.9" y="747.2"/>
      <point x="773.1" y="591.4" type="curve"/>
      <point x="363.3" y="0.0" type="line"/>
      <point x="409.9" y="0.0" type="line" smooth="yes"/>
      <point x="420.7" y="0.0"/>
      <point x="430.3" y="3.2"/>
      <point x="436.7" y="12.600000000000001" type="curve" smooth="yes"/>
      <point x="819.1" y="578.6" type="line" smooth="yes"/>
      <point x="931.3" y="743.0"/>
      <point x="995.1" y="851.2"/>
      <point x="995.1" y="987.6" type="curve" smooth="yes"/>
      <point x="995.1" y="1248.6"/>
      <point x="821.5" y="1422.0"/>
      <point x="583.1" y="1422.0" type="curve" smooth="yes"/>
      <point x="332.7" y="1422.0"/>
      <point x="144.9" y="1246.6"/>
      <point x="144.9" y="1009.6" type="curve" smooth="yes"/>
      <point x="144.9" y="773.6"/>
      <point x="306.5" y="609.2"/>
      <point x="546.7" y="609.2" type="curve" smooth="yes"/>
      <point x="763.7" y="609.2"/>
      <point x="962.9" y="765.4"/>
      <point x="962.9" y="996.0" type="curve"/>
    </contour>
  </outline>
</glyph>
<glyph name="less" format="2">
  <advance width="1160.0"/>
  <unicode hex="003C"/>
  <outline>
    <contour>
      <point x="180.7" y="682.2" type="line"/>
      <point x="180.7" y="663.8" type="line"/>
      <point x="222.5" y="665.6"/>
      <point x="258.3" y="676.9"/>
      <point x="289.5" y="692.6" type="curve" smooth="yes"/>
      <point x="896.6" y="1000.5" type="line" smooth="yes"/>
      <point x="912.8" y="1008.6"/>
      <point x="918.7" y="1015.9"/>
      <point x="918.7" y="1027.2" type="curve" smooth="yes"/>
      <point x="918.7" y="1059.6" type="line"/>
    </contour>
    <contour>
      <point x="180.7" y="658.8" type="line"/>
      <point x="918.7" y="281.4" type="line"/>
      <point x="918.7" y="313.8" type="line"/>
      <point x="918.7" y="325.1"/>
      <point x="912.8" y="332.4"/>
      <point x="896.6" y="340.5" type="curve"/>
      <point x="289.5" y="648.4" type="line"/>
      <point x="258.3" y="665.0"/>
      <point x="222.5" y="675.4"/>
      <point x="180.7" y="677.2" type="curve"/>
    </contour>
  </outline>
</glyph>
<glyph name="equal" format="2">
  <advance width="1160.0"/>
  <unicode hex="003D"/>
  <outline>
    <contour>
      <point x="174.5" y="505.0" type="line"/>
      <point x="985.5" y="505.0" type="line"/>
      <point x="985.5" y="546.2" type="line"/>
      <point x="174.5" y="546.2" type="line"/>
    </contour>
    <contour>
      <point x="174.5" y="806.6" type="line"/>
      <point x="985.5" y="806.6" type="line"/>
      <point x="985.5" y="847.8" type="line"/>
      <point x="174.5" y="847.8" type="line"/>
    </contour>
  </outline>
</glyph>
<glyph name="greater" format="2">
  <advance width="1160"/>
  <unicode hex="003E"/>
  <outline>
    <contour>
      <point x="979.3" y="658.8" type="line"/>
      <point x="979.3" y="677.2" type="line"/>
      <point x="937.5" y="675.4"/>
      <point x="901.7" y="664.1"/>
      <point x="870.5" y="648.4" type="curve" smooth="yes"/>
      <point x="263.4" y="340.5" type="line" smooth="yes"/>
      <point x="247.2" y="332.4"/>
      <point x="241.3" y="325.1"/>
      <point x="241.3" y="313.8" type="curve" smooth="yes"/>
      <point x="241.3" y="281.4" type="line" name="n09"/>
    </contour>
    <contour>
      <point x="979.3" y="682.2" type="line"/>
      <point x="241.3" y="1059.6" type="line" name="n11"/>
      <point x="241.3" y="1027.2" type="line" smooth="yes"/>
      <point x="241.3" y="1015.9"/>
      <point x="247.2" y="1008.6"/>
      <point x="263.4" y="1000.5" type="curve" smooth="yes"/>
      <point x="870.5" y="692.6" type="line" smooth="yes"/>
      <point x="901.7" y="676"/>
      <point x="937.5" y="665.6"/>
      <point x="979.3" y="663.8" type="curve"/>
    </contour>
  </outline>
</glyph>
<glyph name="question" format="2">
  <advance width="848.5"/>
  <unicode hex="003F"/>
  <outline>
    <contour>
      <point x="114.2" y="1264.2" type="line"/>
      <point x="117.4" y="1259.8"/>
      <point x="121.4" y="1256.8"/>
      <point x="127.8" y="1256.8" type="curve" smooth="yes"/>
      <point x="141.8" y="1256.8"/>
      <point x="227.0" y="1378.8"/>
      <point x="410.2" y="1378.8" type="curve" smooth="yes"/>
      <point x="556.2" y="1378.8"/>
      <point x="691.4" y="1285.6"/>
      <point x="691.4" y="1128.8" type="curve" smooth="yes"/>
      <point x="691.4" y="843.8"/>
      <point x="359.2" y="813.4"/>
      <point x="362.4" y="653.0" type="curve" smooth="yes"/>
      <point x="364.6" y="480.4" type="line"/>
      <point x="400.2" y="480.4" type="line"/>
      <point x="408.4" y="649.0" type="line"/>
      <point x="414.8" y="791.0"/>
      <point x="741.8" y="828.2"/>
      <point x="741.8" y="1130.6" type="curve" smooth="yes"/>
      <point x="741.8" y="1312.4"/>
      <point x="585.6" y="1422.0"/>
      <point x="413.0" y="1422.0" type="curve" smooth="yes"/>
      <point x="269.2" y="1422.0"/>
      <point x="168.2" y="1354.2"/>
      <point x="100.6" y="1284.6" type="curve"/>
    </contour>
    <component base="period" xOffset="149.6"/>
  </outline>
</glyph>
<glyph name="at" format="2">
  <advance width="1649"/>
  <unicode hex="0040"/>
  <outline>
    <contour>
      <point x="1176.1" y="189.2" type="curve" smooth="yes"/>
      <point x="1372.5" y="189.2"/>
      <point x="1534.9" y="382"/>
      <point x="1534.9" y="673.2" type="curve" smooth="yes" name="n03"/>
      <point x="1534.9" y="1102.8"/>
      <point x="1215.1" y="1315.8"/>
      <point x="864.9" y="1315.8" type="curve" smooth="yes" name="n06"/>
      <point x="462.3" y="1315.8"/>
      <point x="128.5" y="989.2"/>
      <point x="128.5" y="538.6" type="curve" smooth="yes" name="n09"/>
      <point x="128.5" y="39"/>
      <point x="470.9" y="-236.6"/>
      <point x="897.1" y="-236.6" type="curve" smooth="yes" name="n12"/>
      <point x="1108.9" y="-236.6"/>
      <point x="1287.7" y="-183.2"/>
      <point x="1437.9" y="-82.6" type="curve"/>
      <point x="1428.3" y="-61.5" type="line" smooth="yes"/>
      <point x="1424.2" y="-52.2"/>
      <point x="1413.6" y="-48.4"/>
      <point x="1402.2" y="-56.2" type="curve" smooth="yes"/>
      <point x="1259.2" y="-150.4"/>
      <point x="1090.9" y="-196.8"/>
      <point x="897.1" y="-196.8" type="curve" smooth="yes" name="n22"/>
      <point x="502.3" y="-196.8"/>
      <point x="170.7" y="58.8"/>
      <point x="170.7" y="538.6" type="curve" smooth="yes" name="n25"/>
      <point x="170.7" y="975.2"/>
      <point x="495.7" y="1277.8"/>
      <point x="864.9" y="1277.8" type="curve" smooth="yes" name="n28"/>
      <point x="1200.7" y="1277.8"/>
      <point x="1493.1" y="1083.8"/>
      <point x="1493.1" y="673.2" type="curve" smooth="yes" name="n31"/>
      <point x="1493.1" y="397.2"/>
      <point x="1345.1" y="226.4"/>
      <point x="1182.5" y="226.4" type="curve" smooth="yes"/>
      <point x="1085.7" y="226.4"/>
      <point x="994.1" y="271.6"/>
      <point x="1064.1" y="539" type="curve" smooth="yes"/>
      <point x="1153.1" y="879.6" type="line"/>
      <point x="1109.5" y="900.8"/>
      <point x="1046.9" y="911.6"/>
      <point x="986.5" y="911.6" type="curve" smooth="yes" name="n41"/>
      <point x="688.3" y="911.6"/>
      <point x="509.3" y="661.8"/>
      <point x="509.3" y="435.6" type="curve" smooth="yes" name="n44"/>
      <point x="509.3" y="301"/>
      <point x="575.7" y="194.6"/>
      <point x="719.1" y="194.6" type="curve" smooth="yes"/>
      <point x="852.9" y="194.6"/>
      <point x="967.5" y="278"/>
      <point x="1037.9" y="471.2" type="curve"/>
      <point x="1010.1" y="443" type="line"/>
      <point x="984.9" y="288.6"/>
      <point x="1031.7" y="189.2"/>
    </contour>
    <contour>
      <point x="1106.9" y="872.8" type="line"/>
      <point x="1020.5" y="539.2" type="line" smooth="yes"/>
      <point x="956.7" y="293.4"/>
      <point x="833.7" y="232.6"/>
      <point x="728.9" y="232.6" type="curve" smooth="yes" name="n58"/>
      <point x="611.9" y="232.6"/>
      <point x="554.7" y="322.6"/>
      <point x="554.7" y="436.4" type="curve" smooth="yes" name="n61"/>
      <point x="554.7" y="643.2"/>
      <point x="719.5" y="874.2"/>
      <point x="981.3" y="874.2" type="curve" smooth="yes" name="n64"/>
      <point x="1044.3" y="874.2"/>
      <point x="1078.5" y="865.8"/>
      <point x="1126.1" y="850.8" type="curve"/>
    </contour>
  </outline>
  <guideline angle="0" x="0" y="700"/>
  <guideline angle="90" x="840" y="0"/>
</glyph>
<glyph name="B" format="2">
  <advance width="1249.0"/>
  <unicode hex="0042"/>
  <anchor x="613.2" y="-70.0" name="bottom"/>
  <anchor x="584.2" y="1498.9" name="Top"/>
  <anchor x="253.2" y="363.2" name="Bar"/>
  <anchor x="584.2" y="1498.9" name="top"/>
  <outline>
    <contour>
      <point x="657.3" y="0.0" type="line" smooth="yes"/>
      <point x="949.7" y="0.0"/>
      <point x="1120.5" y="136.4"/>
      <point x="1120.5" y="375.4" type="curve" smooth="yes"/>
      <point x="1120.5" y="594.8"/>
      <point x="945.9" y="723.0"/>
      <point x="662.1" y="723.0" type="curve"/>
      <point x="671.5" y="710.8" type="line"/>
      <point x="900.5" y="710.8"/>
      <point x="1057.7" y="874.6"/>
      <point x="1057.7" y="1053.2" type="curve" smooth="yes"/>
      <point x="1057.7" y="1278.8"/>
      <point x="910.7" y="1406.0"/>
      <point x="604.1" y="1406.0" type="curve" smooth="yes"/>
      <point x="222.9" y="1406.0" type="line"/>
      <point x="222.9" y="0.0" type="line"/>
      <point x="278.3" y="0.0" type="line"/>
      <point x="278.3" y="1361.6" type="line"/>
      <point x="604.1" y="1361.6" type="line" smooth="yes"/>
      <point x="874.9" y="1361.6"/>
      <point x="1004.1" y="1249.6"/>
      <point x="1004.1" y="1049.0" type="curve" smooth="yes"/>
      <point x="1004.1" y="901.6"/>
      <point x="894.1" y="733.0"/>
      <point x="610.9" y="733.0" type="curve"/>
      <point x="268.1" y="733.0" type="line"/>
      <point x="268.1" y="691.4" type="line"/>
      <point x="658.3" y="691.4" type="line" smooth="yes"/>
      <point x="909.3" y="691.4"/>
      <point x="1065.5" y="570.0"/>
      <point x="1065.5" y="376.2" type="curve" smooth="yes"/>
      <point x="1065.5" y="160.6"/>
      <point x="917.7" y="44.6"/>
      <point x="656.7" y="44.6" type="curve" smooth="yes"/>
      <point x="263.3" y="44.6" type="line"/>
      <point x="245.3" y="0.0" type="line"/>
    </contour>
  </outline>
</glyph>
<glyph name="D" format="2">
  <advance width="1519"/>
  <unicode hex="0044"/>
  <anchor x="693.9" y="1498.9" name="Top"/>
  <anchor x="691.1" y="-73.3" name="bottom"/>
  <anchor x="693.9" y="1498.9" name="top"/>
  <outline>
    <contour>
      <point x="1388.3" y="703" type="curve" smooth="yes" name="n00"/>
      <point x="1388.3" y="1142.6"/>
      <point x="1120.5" y="1406"/>
      <point x="729.5" y="1406" type="curve" smooth="yes" name="n03"/>
      <point x="222.9" y="1406" type="line" name="n04"/>
      <point x="222.9" y="0" type="line"/>
      <point x="729.5" y="0" type="line" smooth="yes" name="n06"/>
      <point x="1120.5" y="0"/>
      <point x="1388.3" y="263.2"/>
    </contour>
    <contour>
      <point x="1330.3" y="703" type="curve" smooth="yes" name="n09"/>
      <point x="1330.3" y="284"/>
      <point x="1086.5" y="45.2"/>
      <point x="729.5" y="45.2" type="curve" smooth="yes" name="n12"/>
      <point x="278.5" y="45.2" type="line"/>
      <point x="278.5" y="1360.8" type="line" name="n14"/>
      <point x="729.5" y="1360.8" type="line" smooth="yes" name="n15"/>
      <point x="1086.5" y="1360.8"/>
      <point x="1330.3" y="1121.8"/>
    </contour>
  </outline>
</glyph>
<glyph name="E" format="2">
  <advance width="1163.1"/>
  <unicode hex="0045"/>
  <anchor x="645.9" y="1498.9" name="Top"/>
  <anchor x="670.2" y="-70.0" name="bottom"/>
  <anchor x="-64.1" y="1120.0" name="onRight"/>
  <anchor x="602.9" y="702.8" name="Slash"/>
  <anchor x="645.9" y="1498.9" name="top"/>
  <outline>
    <contour>
      <point x="278.5" y="1406.0" type="line"/>
      <point x="222.9" y="1406.0" type="line"/>
      <point x="222.9" y="0.0" type="line"/>
      <point x="278.5" y="0.0" type="line"/>
    </contour>
    <contour>
      <point x="268.1" y="736.2" type="line"/>
      <point x="268.1" y="690.2" type="line"/>
      <point x="930.9" y="690.2" type="line"/>
      <point x="930.9" y="736.2" type="line"/>
    </contour>
    <contour>
      <point x="268.1" y="1406.0" type="line"/>
      <point x="268.1" y="1359.0" type="line"/>
      <point x="1052.9" y="1359.0" type="line"/>
      <point x="1052.9" y="1406.0" type="line"/>
    </contour>
    <contour>
      <point x="268.1" y="47.0" type="line"/>
      <point x="268.1" y="0.0" type="line"/>
      <point x="1052.9" y="0.0" type="line"/>
      <point x="1054.7" y="47.0" type="line"/>
    </contour>
  </outline>
</glyph>
<glyph name="F" format="2">
  <advance width="1128.5"/>
  <unicode hex="0046"/>
  <anchor x="635.8" y="1498.9" name="Top"/>
  <anchor x="635.8" y="1498.9" name="top"/>
  <anchor x="250.7" y="-70.0" name="bottom"/>
  <outline>
    <contour>
      <point x="278.5" y="1406.0" type="line"/>
      <point x="222.9" y="1406.0" type="line"/>
      <point x="222.9" y="0.0" type="line"/>
      <point x="278.5" y="0.0" type="line"/>
    </contour>
    <contour>
      <point x="268.1" y="715.2" type="line"/>
      <point x="268.1" y="668.2" type="line"/>
      <point x="952.9" y="668.2" type="line"/>
      <point x="952.9" y="715.2" type="line"/>
    </contour>
    <contour>
      <point x="268.1" y="1406.0" type="line"/>
      <point x="268.1" y="1359.0" type="line"/>
      <point x="1052.9" y="1359.0" type="line"/>
      <point x="1052.9" y="1406.0" type="line"/>
    </contour>
  </outline>
</glyph>
<glyph name="G" format="2">
  <advance width="1476"/>
  <unicode hex="0047"/>
  <anchor x="837.2" y="1498.9" name="Top"/>
  <anchor x="832" y="-70" name="bottom"/>
  <anchor x="837.2" y="1498.9" name="top"/>
  <outline>
    <contour>
      <point x="1335.6" y="138.2" type="curve" name="n00"/>
      <point x="1335.6" y="618" type="line"/>
      <point x="970.6" y="618" type="line" name="n02"/>
      <point x="970.6" y="589.6" type="line" smooth="yes"/>
      <point x="970.6" y="582.4"/>
      <point x="978.6" y="574.4"/>
      <point x="988.2" y="574.4" type="curve" smooth="yes" name="n06"/>
      <point x="1285.2" y="574.4" type="line"/>
      <point x="1285.2" y="129.6" type="line" name="n08"/>
      <point x="1302.2" y="171.4" type="line"/>
      <point x="1159.2" y="81.6"/>
      <point x="1032.9" y="29.2"/>
      <point x="839.7" y="29.2" type="curve" smooth="yes" name="n12"/>
      <point x="430.9" y="29.2"/>
      <point x="185.2" y="285.8"/>
      <point x="185.2" y="703" type="curve" smooth="yes" name="n15"/>
      <point x="185.2" y="1120.8"/>
      <point x="435.2" y="1374.8"/>
      <point x="825.8" y="1374.8" type="curve" smooth="yes" name="n18"/>
      <point x="1131" y="1374.8"/>
      <point x="1237.6" y="1236"/>
      <point x="1264.4" y="1229.2" type="curve"/>
      <point x="1275.4" y="1225.6"/>
      <point x="1282.4" y="1228.8"/>
      <point x="1287.2" y="1237.2" type="curve"/>
      <point x="1300.6" y="1258.2" type="line"/>
      <point x="1175.4" y="1368.4"/>
      <point x="1038.6" y="1422"/>
      <point x="827" y="1422" type="curve" smooth="yes" name="n28"/>
      <point x="398.4" y="1422"/>
      <point x="129" y="1142.4"/>
      <point x="129" y="703" type="curve" smooth="yes" name="n31"/>
      <point x="129" y="262.6"/>
      <point x="400.2" y="-16"/>
      <point x="840.7" y="-16" type="curve" smooth="yes" name="n34"/>
      <point x="1042.6" y="-16"/>
      <point x="1196.6" y="42.6"/>
    </contour>
  </outline>
</glyph>
<glyph name="H" format="2">
  <advance width="1502"/>
  <unicode hex="0048"/>
  <anchor x="759.9" y="1498.9" name="Top"/>
  <anchor x="761" y="-70" name="bottom"/>
  <anchor x="-64.1" y="1120" name="onRight"/>
  <anchor x="759.9" y="1498.9" name="top"/>
  <outline>
    <contour>
      <point x="278.5" y="1406" type="line" name="n00"/>
      <point x="222.9" y="1406" type="line"/>
      <point x="222.9" y="0" type="line" name="n02"/>
      <point x="278.5" y="0" type="line"/>
    </contour>
    <contour>
      <point x="268.1" y="735.2" type="line" name="n04"/>
      <point x="268.1" y="691.2" type="line" name="n05"/>
      <point x="1246.9" y="691.2" type="line"/>
      <point x="1246.9" y="735.2" type="line"/>
    </contour>
    <contour>
      <point x="1278.9" y="1406" type="line" name="n08"/>
      <point x="1223.3" y="1406" type="line" name="n09"/>
      <point x="1223.3" y="0" type="line"/>
      <point x="1278.9" y="0" type="line"/>
    </contour>
  </outline>
</glyph>
<glyph name="J" format="2">
  <advance width="820.6"/>
  <unicode hex="004A"/>
  <anchor x="584.8" y="1498.9" name="Top"/>
  <anchor x="554.3" y="702.8" name="Bar"/>
  <anchor x="584.8" y="1498.9" name="top"/>
  <anchor x="273.6" y="-70.0" name="bottom"/>
  <outline>
    <contour>
      <point x="612.6" y="1406.0" type="line"/>
      <point x="557.2" y="1406.0" type="line"/>
      <point x="557.2" y="459.2" type="line" smooth="yes"/>
      <point x="557.2" y="171.6"/>
      <point x="419.6" y="30.200000000000003"/>
      <point x="201.2" y="30.200000000000003" type="curve" smooth="yes"/>
      <point x="113.8" y="30.200000000000003"/>
      <point x="74.4" y="54.6"/>
      <point x="48.8" y="54.6" type="curve" smooth="yes"/>
      <point x="35.4" y="54.6"/>
      <point x="33.0" y="46.8"/>
      <point x="30.8" y="39.6" type="curve"/>
      <point x="30.2" y="31.0"/>
      <point x="27.8" y="22.2"/>
      <point x="27.2" y="13.6" type="curve"/>
      <point x="89.2" y="-6.2"/>
      <point x="148.6" y="-16.0"/>
      <point x="204.8" y="-16.0" type="curve" smooth="yes"/>
      <point x="450.8" y="-16.0"/>
      <point x="612.6" y="144.8"/>
      <point x="612.6" y="460.0" type="curve" smooth="yes"/>
    </contour>
  </outline>
</glyph>
<glyph name="L" format="2">
  <advance width="1005"/>
  <unicode hex="004C"/>
  <anchor x="252.7" y="702.8" name="Bar"/>
  <anchor x="253" y="1498.9" name="Top"/>
  <anchor x="577.5" y="-70" name="bottom"/>
  <anchor x="253" y="1498.9" name="top"/>
  <outline>
    <contour>
      <point x="278.3" y="1406" type="line" name="n00"/>
      <point x="222.9" y="1406" type="line"/>
      <point x="222.9" y="0" type="line"/>
      <point x="278.3" y="0" type="line" name="n03"/>
    </contour>
    <contour>
      <point x="268.1" y="48" type="line" name="n04"/>
      <point x="268.1" y="0" type="line" name="n05"/>
      <point x="974.9" y="0" type="line"/>
      <point x="974.9" y="48" type="line"/>
    </contour>
  </outline>
</glyph>
<glyph name="M" format="2">
  <advance width="1795.8"/>
  <unicode hex="004D"/>
  <anchor x="905.9" y="1498.9" name="Top"/>
  <anchor x="905.9" y="1498.9" name="top"/>
  <anchor x="897.9" y="-70.0" name="bottom"/>
  <outline>
    <contour>
      <point x="896.9" y="290.8" type="curve"/>
      <point x="916.9" y="290.8" type="line"/>
      <point x="911.8" y="308.8"/>
      <point x="902.2" y="334.2"/>
      <point x="889.6" y="357.2" type="curve" smooth="yes"/>
      <point x="279.7" y="1393.4" type="line"/>
      <point x="273.4" y="1404.0"/>
      <point x="267.1" y="1406.0"/>
      <point x="255.9" y="1406.0" type="curve" smooth="yes"/>
      <point x="222.9" y="1406.0" type="line"/>
      <point x="222.9" y="0.0" type="line"/>
      <point x="270.7" y="0.0" type="line"/>
      <point x="270.7" y="1285.6" type="line" smooth="yes"/>
      <point x="270.7" y="1309.2"/>
      <point x="267.5" y="1338.6"/>
      <point x="263.9" y="1362.2" type="curve"/>
      <point x="249.1" y="1354.0" type="line"/>
      <point x="877.5" y="282.8" type="line"/>
      <point x="883.5" y="272.6"/>
      <point x="891.3" y="266.4"/>
      <point x="901.9" y="266.4" type="curve" smooth="yes"/>
      <point x="911.9" y="266.4" type="line" smooth="yes"/>
      <point x="922.5" y="266.4"/>
      <point x="930.3" y="272.6"/>
      <point x="936.3" y="282.8" type="curve"/>
      <point x="1546.7" y="1354.0" type="line"/>
      <point x="1531.9" y="1362.2" type="line"/>
      <point x="1528.1" y="1338.6"/>
      <point x="1525.1" y="1309.2"/>
      <point x="1525.1" y="1285.6" type="curve" smooth="yes"/>
      <point x="1525.1" y="0.0" type="line"/>
      <point x="1572.9" y="0.0" type="line"/>
      <point x="1572.9" y="1406.0" type="line"/>
      <point x="1539.9" y="1406.0" type="line" smooth="yes"/>
      <point x="1528.7" y="1406.0"/>
      <point x="1522.4" y="1404.0"/>
      <point x="1516.1" y="1393.4" type="curve"/>
      <point x="924.3" y="357.5" type="line" smooth="yes"/>
      <point x="911.6" y="334.5"/>
      <point x="902.1" y="308.8"/>
    </contour>
  </outline>
</glyph>
<glyph name="N" format="2">
  <advance width="1501.8"/>
  <unicode hex="004E"/>
  <anchor x="777.2" y="1497.1" name="Top"/>
  <anchor x="777.2" y="1497.1" name="top"/>
  <anchor x="750.9" y="-70.0" name="bottom"/>
  <outline>
    <contour>
      <point x="1252.3" y="68.0" type="line"/>
      <point x="271.7" y="1393.4" type="line"/>
      <point x="264.5" y="1403.4"/>
      <point x="259.1" y="1406.0"/>
      <point x="247.9" y="1406.0" type="curve" smooth="yes"/>
      <point x="222.9" y="1406.0" type="line"/>
      <point x="222.9" y="0.0" type="line"/>
      <point x="270.7" y="0.0" type="line"/>
      <point x="270.7" y="1279.6" type="line" smooth="yes"/>
      <point x="270.7" y="1303.2"/>
      <point x="267.9" y="1332.6"/>
      <point x="263.9" y="1356.2" type="curve"/>
      <point x="253.1" y="1338.0" type="line"/>
      <point x="1234.2" y="12.100000000000001" type="line" smooth="yes"/>
      <point x="1240.3" y="4.3"/>
      <point x="1246.2" y="0.0"/>
      <point x="1255.9" y="0.0" type="curve" smooth="yes"/>
      <point x="1278.9" y="0.0" type="line"/>
      <point x="1278.9" y="1406.0" type="line"/>
      <point x="1231.1" y="1406.0" type="line"/>
      <point x="1231.1" y="129.2" type="line" smooth="yes"/>
      <point x="1231.1" y="106.4"/>
      <point x="1234.3" y="77.80000000000001"/>
      <point x="1238.3" y="55.0" type="curve"/>
    </contour>
  </outline>
</glyph>
<glyph name="O" format="2">
  <advance width="1574.1"/>
  <unicode hex="004F"/>
  <anchor x="788.2" y="1498.9" name="Top"/>
  <anchor x="-54.9" y="1120.0" name="onRight"/>
  <anchor x="787.2" y="-70.0" name="bottom"/>
  <anchor x="791.0" y="702.8" name="Slash"/>
  <anchor x="788.2" y="1498.9" name="top"/>
  <outline>
    <contour>
      <point x="1445.0" y="703.0" type="curve" smooth="yes"/>
      <point x="1445.0" y="1142.6"/>
      <point x="1177.2" y="1422.0"/>
      <point x="786.2" y="1422.0" type="curve" smooth="yes"/>
      <point x="398.8" y="1422.0"/>
      <point x="129.0" y="1141.0"/>
      <point x="129.0" y="703.0" type="curve" smooth="yes"/>
      <point x="129.0" y="263.2"/>
      <point x="398.8" y="-14.2"/>
      <point x="786.2" y="-14.2" type="curve" smooth="yes"/>
      <point x="1177.2" y="-14.2"/>
      <point x="1445.0" y="263.2"/>
    </contour>
    <contour>
      <point x="1387.0" y="703.0" type="curve" smooth="yes"/>
      <point x="1387.0" y="284.0"/>
      <point x="1143.2" y="33.0"/>
      <point x="786.2" y="33.0" type="curve" smooth="yes"/>
      <point x="434.4" y="33.0"/>
      <point x="185.2" y="284.0"/>
      <point x="185.2" y="703.0" type="curve" smooth="yes"/>
      <point x="185.2" y="1121.8"/>
      <point x="434.4" y="1374.8"/>
      <point x="786.2" y="1374.8" type="curve" smooth="yes"/>
      <point x="1143.2" y="1374.8"/>
      <point x="1387.0" y="1121.8"/>
    </contour>
  </outline>
</glyph>
<glyph name="P" format="2">
  <advance width="1133"/>
  <unicode hex="0050"/>
  <anchor x="252.7" y="986.1" name="Bar"/>
  <anchor x="556.5" y="1498.9" name="Top"/>
  <anchor x="250.6" y="-70" name="bottom"/>
  <anchor x="765" y="646.2" name="tick"/>
  <anchor x="556.5" y="1498.9" name="top"/>
  <outline>
    <contour>
      <point x="255.1" y="588.2" type="line"/>
      <point x="558.7" y="588.2" type="line" smooth="yes" name="n01"/>
      <point x="850.9" y="588.2"/>
      <point x="1043.9" y="759.8"/>
      <point x="1043.9" y="998" type="curve" smooth="yes" name="n04"/>
      <point x="1043.9" y="1268"/>
      <point x="875.1" y="1406"/>
      <point x="558.7" y="1406" type="curve" smooth="yes" name="n07"/>
      <point x="222.9" y="1406" type="line"/>
      <point x="222.9" y="0" type="line" name="n09"/>
      <point x="278.3" y="0" type="line" name="n10"/>
      <point x="278.3" y="1361.6" type="line"/>
      <point x="558.7" y="1361.6" type="line" smooth="yes" name="n12"/>
      <point x="843.9" y="1361.6"/>
      <point x="988.5" y="1234"/>
      <point x="988.5" y="998" type="curve" smooth="yes" name="n15"/>
      <point x="988.5" y="792.4"/>
      <point x="822.9" y="632.8"/>
      <point x="558.7" y="632.8" type="curve" smooth="yes" name="n18"/>
      <point x="259.7" y="632.8" type="line"/>
    </contour>
  </outline>
</glyph>
<glyph name="Q" format="2">
  <advance width="1574"/>
  <unicode hex="0051"/>
  <anchor x="791.1" y="702.8" name="Slash"/>
  <anchor x="788.3" y="1498.9" name="Top"/>
  <anchor x="787.3" y="-70" name="bottom"/>
  <anchor x="-54.8" y="1120" name="onRight"/>
  <anchor x="788.3" y="1498.9" name="top"/>
  <outline>
    <component base="O" xOffset="0.1"/>
    <contour>
      <point x="1117.3" y="84.6" type="line" name="n00"/>
      <point x="1054.9" y="78" type="line"/>
      <point x="1413.1" y="-305.6" type="line" smooth="yes"/>
      <point x="1422.1" y="-315"/>
      <point x="1433.7" y="-320.4" name="n04"/>
      <point x="1450.7" y="-320.4" type="curve" smooth="yes"/>
      <point x="1498.3" y="-320.4" type="line"/>
    </contour>
  </outline>
</glyph>
<glyph name="R" format="2">
  <advance width="1194.4"/>
  <unicode hex="0052"/>
  <anchor x="558.5" y="1498.9" name="Top"/>
  <anchor x="558.5" y="1498.9" name="top"/>
  <anchor x="663.6" y="-70.0" name="bottom"/>
  <outline>
    <contour>
      <point x="483.1" y="661.6" type="line" smooth="yes"/>
      <point x="538.7" y="661.6"/>
      <point x="557.3" y="652.8"/>
      <point x="579.3" y="624.0" type="curve"/>
      <point x="1075.1" y="17.4" type="line" smooth="yes"/>
      <point x="1086.5" y="2.4000000000000004"/>
      <point x="1096.1" y="0.0"/>
      <point x="1110.7" y="0.0" type="curve" smooth="yes"/>
      <point x="1155.7" y="0.0" type="line"/>
      <point x="633.3" y="635.0" type="line"/>
      <point x="598.9" y="677.4"/>
      <point x="561.1" y="684.4"/>
      <point x="476.7" y="684.4" type="curve"/>
      <point x="518.7" y="664.4" type="line"/>
      <point x="548.7" y="664.4" type="line" smooth="yes"/>
      <point x="836.1" y="664.4"/>
      <point x="1029.1" y="812.2"/>
      <point x="1029.1" y="1047.4" type="curve" smooth="yes"/>
      <point x="1029.1" y="1288.2"/>
      <point x="866.9" y="1406.0"/>
      <point x="561.9" y="1406.0" type="curve" smooth="yes"/>
      <point x="222.9" y="1406.0" type="line"/>
      <point x="222.9" y="0.0" type="line"/>
      <point x="278.3" y="0.0" type="line"/>
      <point x="278.3" y="1361.6" type="line"/>
      <point x="561.9" y="1361.6" type="line" smooth="yes"/>
      <point x="829.5" y="1361.6"/>
      <point x="974.5" y="1262.2"/>
      <point x="974.5" y="1044.8" type="curve" smooth="yes"/>
      <point x="974.5" y="834.4"/>
      <point x="810.7" y="704.0"/>
      <point x="545.7" y="704.0" type="curve" smooth="yes"/>
      <point x="257.9" y="704.0" type="line"/>
      <point x="253.5" y="661.6" type="line"/>
    </contour>
  </outline>
</glyph>
<glyph name="S" format="2">
  <advance width="1063.0"/>
  <unicode hex="0053"/>
  <anchor x="579.1" y="1498.9" name="Top"/>
  <anchor x="502.3" y="-70.0" name="bottom"/>
  <anchor x="579.1" y="1498.9" name="top"/>
  <outline>
    <contour>
      <point x="898.6" y="1282.2" type="line"/>
      <point x="805.4" y="1378.2"/>
      <point x="699.0" y="1422.0"/>
      <point x="558.8" y="1422.0" type="curve" smooth="yes"/>
      <point x="309.0" y="1422.0"/>
      <point x="168.6" y="1254.6"/>
      <point x="168.6" y="1072.2" type="curve" smooth="yes"/>
      <point x="168.6" y="601.6"/>
      <point x="890.4" y="817.6"/>
      <point x="890.4" y="393.2" type="curve" smooth="yes"/>
      <point x="890.4" y="193.0"/>
      <point x="748.2" y="30.0"/>
      <point x="503.8" y="30.0" type="curve" smooth="yes"/>
      <point x="248.0" y="30.0"/>
      <point x="163.2" y="196.8"/>
      <point x="133.6" y="196.8" type="curve" smooth="yes"/>
      <point x="125.2" y="196.8"/>
      <point x="120.6" y="193.2"/>
      <point x="115.4" y="187.2" type="curve" smooth="yes"/>
      <point x="101.8" y="167.0" type="line"/>
      <point x="199.8" y="53.0"/>
      <point x="315.4" y="-16.0"/>
      <point x="502.8" y="-16.0" type="curve" smooth="yes"/>
      <point x="780.8" y="-16.0"/>
      <point x="942.0" y="169.4"/>
      <point x="942.0" y="401.6" type="curve" smooth="yes"/>
      <point x="942.0" y="857.4"/>
      <point x="220.0" y="660.8"/>
      <point x="220.0" y="1074.0" type="curve" smooth="yes"/>
      <point x="220.0" y="1234.0"/>
      <point x="339.6" y="1376.2"/>
      <point x="559.2" y="1376.2" type="curve" smooth="yes"/>
      <point x="775.6" y="1376.2"/>
      <point x="840.6" y="1250.0"/>
      <point x="870.2" y="1250.0" type="curve" smooth="yes"/>
      <point x="877.2" y="1250.0"/>
      <point x="882.8" y="1253.4"/>
      <point x="886.6" y="1260.4" type="curve"/>
    </contour>
  </outline>
</glyph>
<glyph name="T" format="2">
  <advance width="1146.0"/>
  <unicode hex="0054"/>
  <anchor x="575.2" y="1498.9" name="Top"/>
  <anchor x="575.2" y="-70.0" name="bottom"/>
  <anchor x="577.3" y="702.8" name="Slash"/>
  <anchor x="575.2" y="1498.9" name="top"/>
  <outline>
    <contour>
      <point x="602.5" y="1389.0" type="line"/>
      <point x="547.1" y="1389.0" type="line"/>
      <point x="547.1" y="0.0" type="line"/>
      <point x="602.5" y="0.0" type="line"/>
    </contour>
    <contour>
      <point x="29.1" y="1406.0" type="line"/>
      <point x="29.1" y="1358.2" type="line"/>
      <point x="1116.9" y="1358.2" type="line"/>
      <point x="1116.9" y="1406.0" type="line"/>
    </contour>
  </outline>
</glyph>
<glyph name="U" format="2">
  <advance width="1446"/>
  <unicode hex="0055"/>
  <anchor x="722.9" y="1498.9" name="Top"/>
  <anchor x="722.9" y="-70" name="bottom"/>
  <anchor x="722.9" y="1498.9" name="top"/>
  <outline>
    <contour>
      <point x="722.9" y="31.6" type="curve" smooth="yes" name="n00"/>
      <point x="432.9" y="31.6"/>
      <point x="260.3" y="252.2"/>
      <point x="260.3" y="529.6" type="curve" smooth="yes"/>
      <point x="260.3" y="1406" type="line" name="n04"/>
      <point x="204.9" y="1406" type="line" name="n05"/>
      <point x="204.9" y="527.8" type="line" smooth="yes"/>
      <point x="204.9" y="225.4"/>
      <point x="403.3" y="-17.8"/>
      <point x="722.9" y="-17.8" type="curve" smooth="yes" name="n09"/>
      <point x="1042.5" y="-17.8"/>
      <point x="1240.9" y="225.4"/>
      <point x="1240.9" y="527.8" type="curve" smooth="yes"/>
      <point x="1240.9" y="1406" type="line" name="n13"/>
      <point x="1185.5" y="1406" type="line" name="n14"/>
      <point x="1185.5" y="527.8" type="line" smooth="yes"/>
      <point x="1185.5" y="250.4"/>
      <point x="1012.9" y="31.6"/>
    </contour>
  </outline>
</glyph>
<glyph name="V" format="2">
  <advance width="1289"/>
  <unicode hex="0056"/>
  <anchor x="645.6" y="1498.9" name="Top"/>
  <anchor x="644.4" y="-70" name="bottom"/>
  <anchor x="645.6" y="1498.9" name="top"/>
  <outline>
    <contour>
      <point x="1252.7" y="1406" type="line" name="n00"/>
      <point x="1210.9" y="1406" type="line" smooth="yes"/>
      <point x="1199.9" y="1406"/>
      <point x="1190.5" y="1398.6"/>
      <point x="1187.3" y="1389.4" type="curve"/>
      <point x="666.1" y="129.6" type="line" smooth="yes"/>
      <point x="650.7" y="91.2"/>
      <point x="638.9" y="48.2"/>
      <point x="632.9" y="0" type="curve" name="n08"/>
      <point x="668.7" y="0" type="line"/>
    </contour>
    <contour>
      <point x="620.1" y="0" type="line"/>
      <point x="656.7" y="0" type="line"/>
      <point x="652.1" y="48.2"/>
      <point x="638.3" y="91.2"/>
      <point x="622.9" y="129.6" type="curve" smooth="yes"/>
      <point x="101.5" y="1389.4" type="line"/>
      <point x="97.9" y="1399.2"/>
      <point x="90.7" y="1406"/>
      <point x="79.5" y="1406" type="curve" smooth="yes"/>
      <point x="36.1" y="1406" type="line"/>
    </contour>
  </outline>
</glyph>
<glyph name="W" format="2">
  <advance width="2015"/>
  <unicode hex="0057"/>
  <anchor x="1006.4" y="1498.9" name="Top"/>
  <anchor x="1007.4" y="-70" name="bottom"/>
  <anchor x="1006.4" y="1498.9" name="top"/>
  <outline>
    <contour>
      <point x="1002.6" y="1406" type="line" smooth="yes" name="n00"/>
      <point x="991.6" y="1406"/>
      <point x="982" y="1398.6"/>
      <point x="979" y="1389.4" type="curve" smooth="yes"/>
      <point x="545.9" y="139.7" type="line" smooth="yes"/>
      <point x="532.9" y="101.1"/>
      <point x="523.4" y="48.2"/>
      <point x="517.4" y="0" type="curve" name="n07"/>
      <point x="549.4" y="0" type="line"/>
      <point x="996.6" y="1297.8" type="line" smooth="yes"/>
      <point x="1006.2" y="1325.5"/>
      <point x="1012.7" y="1360.4"/>
      <point x="1014.7" y="1385.6" type="curve"/>
      <point x="1000.5" y="1385.6" type="line"/>
      <point x="1002.5" y="1360.4"/>
      <point x="1009" y="1326.4"/>
      <point x="1018.6" y="1297.8" type="curve" smooth="yes"/>
      <point x="1465.4" y="0" type="line"/>
      <point x="1500.2" y="0" type="line"/>
      <point x="1494" y="48.2"/>
      <point x="1484.3" y="101.1"/>
      <point x="1471.1" y="139.7" type="curve" smooth="yes"/>
      <point x="1038.2" y="1389.4" type="line" smooth="yes"/>
      <point x="1034.6" y="1399.2"/>
      <point x="1027.4" y="1406"/>
      <point x="1016.2" y="1406" type="curve" smooth="yes"/>
    </contour>
    <contour>
      <point x="500.8" y="0" type="line"/>
      <point x="539" y="0" type="line"/>
      <point x="532.8" y="48.2"/>
      <point x="522.3" y="100.7"/>
      <point x="510.9" y="139.7" type="curve"/>
      <point x="122.8" y="1389.4" type="line" smooth="yes"/>
      <point x="119.8" y="1399.4"/>
      <point x="112" y="1406"/>
      <point x="100.8" y="1406" type="curve" smooth="yes"/>
      <point x="56.2" y="1406" type="line"/>
    </contour>
    <contour>
      <point x="1958.6" y="1406" type="line"/>
      <point x="1917.6" y="1406" type="line" smooth="yes"/>
      <point x="1906.6" y="1406"/>
      <point x="1896.8" y="1398.8"/>
      <point x="1894" y="1389.4" type="curve" smooth="yes"/>
      <point x="1505.9" y="139.7" type="line" smooth="yes"/>
      <point x="1494.5" y="100.9"/>
      <point x="1484.4" y="48.2"/>
      <point x="1478.4" y="0" type="curve"/>
      <point x="1514" y="0" type="line"/>
    </contour>
  </outline>
  <guideline angle="0" x="0" y="83"/>
</glyph>
<glyph name="X" format="2">
  <advance width="1218.9"/>
  <unicode hex="0058"/>
  <anchor x="608.1" y="1498.9" name="Top"/>
  <anchor x="608.1" y="1498.9" name="top"/>
  <anchor x="609.0" y="-70.0" name="bottom"/>
  <outline>
    <contour>
      <point x="577.1" y="712.2" type="line"/>
      <point x="636.3" y="712.2" type="line"/>
      <point x="151.7" y="1389.6" type="line"/>
      <point x="146.5" y="1396.0"/>
      <point x="141.3" y="1406.0"/>
      <point x="127.9" y="1406.0" type="curve" smooth="yes"/>
      <point x="74.3" y="1406.0" type="line"/>
    </contour>
    <contour>
      <point x="1144.3" y="1406.0" type="line"/>
      <point x="1092.1" y="1406.0" type="line" smooth="yes"/>
      <point x="1081.9" y="1406.0"/>
      <point x="1074.5" y="1397.4"/>
      <point x="1069.1" y="1389.0" type="curve"/>
      <point x="622.5" y="768.6" type="line"/>
      <point x="610.1" y="749.0"/>
      <point x="606.1" y="733.8"/>
      <point x="605.9" y="712.2" type="curve"/>
      <point x="639.9" y="712.2" type="line"/>
    </contour>
    <contour>
      <point x="642.7" y="732.2" type="line"/>
      <point x="583.1" y="732.2" type="line"/>
      <point x="1088.5" y="18.2" type="line"/>
      <point x="1093.7" y="11.6"/>
      <point x="1099.9" y="0.0"/>
      <point x="1113.3" y="0.0" type="curve" smooth="yes"/>
      <point x="1166.9" y="0.0" type="line"/>
    </contour>
    <contour>
      <point x="50.9" y="0.0" type="line"/>
      <point x="102.3" y="0.0" type="line" smooth="yes"/>
      <point x="113.5" y="0.0"/>
      <point x="119.5" y="10.0"/>
      <point x="126.7" y="18.2" type="curve"/>
      <point x="598.5" y="674.6" type="line"/>
      <point x="611.5" y="692.2"/>
      <point x="612.7" y="708.8"/>
      <point x="614.7" y="732.2" type="curve"/>
      <point x="579.9" y="732.2" type="line"/>
    </contour>
  </outline>
</glyph>
<glyph name="Z" format="2">
  <advance width="1191.0"/>
  <unicode hex="005A"/>
  <anchor x="607.7" y="1498.9" name="Top"/>
  <anchor x="614.4" y="-70.0" name="bottom"/>
  <anchor x="607.7" y="1498.9" name="top"/>
  <outline>
    <contour>
      <point x="1096.1" y="1361.4" type="line" smooth="yes"/>
      <point x="1103.5" y="1371.6"/>
      <point x="1106.5" y="1380.6"/>
      <point x="1106.5" y="1389.6" type="curve" smooth="yes"/>
      <point x="1106.5" y="1406.0" type="line"/>
      <point x="1065.5" y="1406.0" type="line"/>
      <point x="85.9" y="42.400000000000006" type="line"/>
      <point x="80.5" y="34.400000000000006"/>
      <point x="77.5" y="27.6"/>
      <point x="77.5" y="17.200000000000003" type="curve" smooth="yes"/>
      <point x="77.5" y="0.0" type="line"/>
      <point x="118.5" y="0.0" type="line"/>
    </contour>
    <contour>
      <point x="97.5" y="1406.0" type="line"/>
      <point x="97.5" y="1359.0" type="line"/>
      <point x="1074.3" y="1359.0" type="line"/>
      <point x="1106.5" y="1406.0" type="line"/>
    </contour>
    <contour>
      <point x="109.5" y="47.0" type="line"/>
      <point x="77.5" y="0.0" type="line"/>
      <point x="1102.5" y="0.0" type="line"/>
      <point x="1102.5" y="47.0" type="line"/>
    </contour>
  </outline>
</glyph>
<glyph name="bracketleft" format="2">
  <advance width="584"/>
  <unicode hex="005B"/>
  <outline>
    <contour>
      <point x="504.4" y="1507.8" type="line"/>
      <point x="213" y="1507.8" type="line" name="n01"/>
      <point x="213" y="1471.4" type="line" name="n02"/>
      <point x="483.8" y="1471.4" type="line" smooth="yes"/>
      <point x="497.4" y="1471.4"/>
      <point x="504.4" y="1478.6"/>
      <point x="504.4" y="1490" type="curve" smooth="yes"/>
    </contour>
    <contour>
      <point x="504.4" y="-250.6" type="line"/>
      <point x="504.4" y="-232.8" type="line" smooth="yes"/>
      <point x="504.4" y="-221.4"/>
      <point x="497.4" y="-214.2"/>
      <point x="483.8" y="-214.2" type="curve" smooth="yes"/>
      <point x="213" y="-214.2" type="line" name="n12"/>
      <point x="213" y="-250.6" type="line" name="n13"/>
    </contour>
    <contour>
      <point x="258.6" y="1507.8" type="line" name="n14"/>
      <point x="213" y="1507.8" type="line"/>
      <point x="213" y="-250.6" type="line"/>
      <point x="258.6" y="-250.6" type="line"/>
    </contour>
  </outline>
</glyph>
<glyph name="backslash" format="2">
  <advance width="851.8"/>
  <unicode hex="005C"/>
  <outline>
    <contour>
      <point x="713.8" y="-57.8" type="line" smooth="yes"/>
      <point x="720.2" y="-74.4"/>
      <point x="736.2" y="-80.2"/>
      <point x="749.8" y="-80.2" type="curve" smooth="yes"/>
      <point x="770.2" y="-80.2" type="line"/>
      <point x="137.4" y="1424.2" type="line"/>
      <point x="131.2" y="1438.4"/>
      <point x="120.0" y="1446.0"/>
      <point x="103.8" y="1446.0" type="curve" smooth="yes"/>
      <point x="81.6" y="1446.0" type="line"/>
    </contour>
  </outline>
</glyph>
<glyph name="bracketright" format="2">
  <advance width="584"/>
  <unicode hex="005D"/>
  <outline>
    <contour>
      <point x="79.9" y="1490" type="line" smooth="yes"/>
      <point x="79.9" y="1478.6"/>
      <point x="86.9" y="1471.4"/>
      <point x="100.5" y="1471.4" type="curve" smooth="yes"/>
      <point x="371.3" y="1471.4" type="line" name="n04"/>
      <point x="371.3" y="1507.8" type="line" name="n05"/>
      <point x="79.9" y="1507.8" type="line"/>
    </contour>
    <contour>
      <point x="371.3" y="-250.6" type="line" name="n07"/>
      <point x="371.3" y="-214.2" type="line" name="n08"/>
      <point x="100.5" y="-214.2" type="line" smooth="yes"/>
      <point x="86.9" y="-214.2"/>
      <point x="79.9" y="-221.4"/>
      <point x="79.9" y="-232.8" type="curve" smooth="yes"/>
      <point x="79.9" y="-250.6" type="line"/>
    </contour>
    <contour>
      <point x="325.7" y="-250.6" type="line" name="n14"/>
      <point x="371.3" y="-250.6" type="line"/>
      <point x="371.3" y="1507.8" type="line"/>
      <point x="325.7" y="1507.8" type="line"/>
    </contour>
  </outline>
</glyph>
<glyph name="asciicircum" format="2">
  <advance width="1160"/>
  <unicode hex="005E"/>
  <outline>
    <contour>
      <point x="194" y="725.4" type="line" name="n00"/>
      <point x="230.6" y="725.4" type="line" smooth="yes"/>
      <point x="243.6" y="725.4"/>
      <point x="252.5" y="734.7"/>
      <point x="256.4" y="743" type="curve"/>
      <point x="558.4" y="1302.8" type="line"/>
      <point x="575.5" y="1337.2"/>
      <point x="587" y="1367.2"/>
      <point x="589" y="1406" type="curve" name="n08"/>
      <point x="564" y="1406" type="line"/>
    </contour>
    <contour>
      <point x="595" y="1406" type="line"/>
      <point x="570.8" y="1406" type="line"/>
      <point x="572.6" y="1367.2"/>
      <point x="584" y="1337.3"/>
      <point x="601.8" y="1302.8" type="curve"/>
      <point x="905.2" y="743" type="line"/>
      <point x="910.2" y="732.9"/>
      <point x="919.8" y="725.4"/>
      <point x="930.6" y="725.4" type="curve" smooth="yes"/>
      <point x="966" y="725.4" type="line"/>
    </contour>
  </outline>
</glyph>
<glyph name="underscore" format="2">
  <advance width="892.0"/>
  <unicode hex="005F"/>
  <outline>
    <contour>
      <point x="52.0" y="-226.2" type="line"/>
      <point x="52.0" y="-266.2" type="line"/>
      <point x="840.0" y="-266.2" type="line"/>
      <point x="840.0" y="-226.2" type="line"/>
    </contour>
  </outline>
</glyph>
<glyph name="grave" format="2">
  <advance width="800.0"/>
  <unicode hex="0060"/>
  <anchor x="400.0" y="1120.0" name="_top"/>
  <outline>
    <contour>
      <point x="226.4" y="1422.0" type="line"/>
      <point x="434.2" y="1170.6" type="line"/>
      <point x="440.8" y="1162.0"/>
      <point x="448.6" y="1159.0"/>
      <point x="458.6" y="1159.0" type="curve" smooth="yes"/>
      <point x="488.8" y="1159.0" type="line"/>
      <point x="327.6" y="1396.0" type="line" smooth="yes"/>
      <point x="314.6" y="1416.2"/>
      <point x="304.8" y="1422.0"/>
      <point x="278.8" y="1422.0" type="curve" smooth="yes"/>
    </contour>
  </outline>
</glyph>
<glyph name="b" format="2">
  <advance width="1093"/>
  <unicode hex="0062"/>
  <anchor x="210.2" y="1498.9" name="Top"/>
  <anchor x="202.3" y="1238" name="bar"/>
  <anchor x="537" y="-70" name="bottom"/>
  <anchor x="661.3" y="40.2" name="hook"/>
  <anchor x="568.7" y="1120" name="top"/>
  <outline>
    <contour>
      <point x="203.9" y="0" type="line" smooth="yes" name="n00"/>
      <point x="216.9" y="0"/>
      <point x="221.1" y="8.6"/>
      <point x="222.1" y="18.4" type="curve"/>
      <point x="227.7" y="176.1" type="line" name="n04"/>
      <point x="228.7" y="185.1" type="line"/>
      <point x="228.7" y="1446" type="line" name="n06"/>
      <point x="176.1" y="1446" type="line"/>
      <point x="176.1" y="0" type="line"/>
    </contour>
    <contour>
      <point x="215.9" y="174.8" type="line" name="n09"/>
      <point x="289.5" y="49.6"/>
      <point x="397.3" y="-12.4"/>
      <point x="546.9" y="-12.4" type="curve" smooth="yes" name="n12"/>
      <point x="824.1" y="-12.4"/>
      <point x="977.1" y="200.9"/>
      <point x="977.1" y="520.7" type="curve" smooth="yes" name="n15"/>
      <point x="977.1" y="827.1"/>
      <point x="836.7" y="1002"/>
      <point x="596.2" y="1002" type="curve" smooth="yes" name="n18"/>
      <point x="422.4" y="1002"/>
      <point x="299.3" y="910.6"/>
      <point x="210.9" y="769.2" type="curve"/>
      <point x="218.1" y="728.2" type="line"/>
      <point x="305.9" y="872"/>
      <point x="423.1" y="959.6"/>
      <point x="585.3" y="959.6" type="curve" smooth="yes" name="n25"/>
      <point x="799.4" y="959.6"/>
      <point x="923.5" y="808.1"/>
      <point x="923.5" y="517.8" type="curve" smooth="yes" name="n28"/>
      <point x="923.5" y="225.9"/>
      <point x="799" y="29.4"/>
      <point x="538" y="29.4" type="curve" smooth="yes" name="n31"/>
      <point x="405" y="29.4"/>
      <point x="302.7" y="80"/>
      <point x="218.5" y="220.8" type="curve"/>
    </contour>
  </outline>
</glyph>
<glyph name="c" format="2">
  <advance width="937.0"/>
  <unicode hex="0063"/>
  <guideline y="1406.0"/>
  <anchor x="551.1" y="1120.0" name="top"/>
  <anchor x="472.3" y="-70.0" name="bottom"/>
  <outline>
    <contour>
      <point x="840.1" y="894.6" type="line"/>
      <point x="770.9" y="958.8"/>
      <point x="674.3" y="1002.0"/>
      <point x="551.9" y="1002.0" type="curve" smooth="yes"/>
      <point x="275.1" y="1002.0"/>
      <point x="114.9" y="796.8"/>
      <point x="114.9" y="493.2" type="curve" smooth="yes"/>
      <point x="114.9" y="174.6"/>
      <point x="281.1" y="-12.4"/>
      <point x="533.3" y="-12.4" type="curve" smooth="yes"/>
      <point x="684.3" y="-12.4"/>
      <point x="806.5" y="53.6"/>
      <point x="855.3" y="120.8" type="curve"/>
      <point x="842.7" y="136.0" type="line" smooth="yes"/>
      <point x="839.7" y="139.6"/>
      <point x="835.9" y="142.4"/>
      <point x="829.9" y="142.4" type="curve" smooth="yes"/>
      <point x="808.1" y="142.4"/>
      <point x="740.7" y="29.400000000000002"/>
      <point x="539.1" y="29.400000000000002" type="curve" smooth="yes"/>
      <point x="315.1" y="29.400000000000002"/>
      <point x="168.3" y="196.8"/>
      <point x="168.3" y="493.2" type="curve" smooth="yes"/>
      <point x="168.3" y="779.8"/>
      <point x="310.1" y="960.2"/>
      <point x="553.9" y="960.2" type="curve" smooth="yes"/>
      <point x="728.3" y="960.2"/>
      <point x="792.5" y="870.4"/>
      <point x="812.9" y="870.4" type="curve" smooth="yes"/>
      <point x="819.7" y="870.4"/>
      <point x="822.9" y="873.6"/>
      <point x="826.5" y="877.8" type="curve" smooth="yes"/>
    </contour>
  </outline>
</glyph>
<glyph name="d" format="2">
  <advance width="1093"/>
  <unicode hex="0064"/>
  <anchor x="883.6" y="1498.9" name="Top"/>
  <anchor x="890.8" y="1238" name="bar"/>
  <anchor x="612.7" y="-70" name="bottom"/>
  <anchor x="917.1" y="40.2" name="hook"/>
  <anchor x="528" y="1120" name="top"/>
  <outline>
    <contour>
      <point x="917.1" y="0" type="line" name="n00"/>
      <point x="917.1" y="1446" type="line" name="n01"/>
      <point x="864.5" y="1446" type="line"/>
      <point x="864.5" y="217.7" type="line"/>
      <point x="865.5" y="212.5" type="line"/>
      <point x="872.3" y="19.8" type="line" name="n05"/>
      <point x="873.5" y="5.4"/>
      <point x="879.7" y="0"/>
      <point x="892.5" y="0" type="curve" smooth="yes"/>
    </contour>
    <contour>
      <point x="879.7" y="815" type="line"/>
      <point x="805.5" y="940.4"/>
      <point x="697.1" y="1002.4"/>
      <point x="547.5" y="1002.4" type="curve" smooth="yes" name="n12"/>
      <point x="265.5" y="1002.4"/>
      <point x="116.1" y="777.6"/>
      <point x="116.1" y="490.8" type="curve" smooth="yes" name="n15"/>
      <point x="116.1" y="151.4"/>
      <point x="256.3" y="-12.4"/>
      <point x="506.5" y="-12.4" type="curve" smooth="yes" name="n18"/>
      <point x="662.5" y="-12.4"/>
      <point x="793.9" y="79.4"/>
      <point x="882.3" y="220.8" type="curve"/>
      <point x="875.1" y="261.8" type="line"/>
      <point x="787.3" y="118"/>
      <point x="661.5" y="30.4"/>
      <point x="517.3" y="30.4" type="curve" smooth="yes" name="n25"/>
      <point x="291.5" y="30.4"/>
      <point x="169.7" y="177.8"/>
      <point x="169.7" y="490.8" type="curve" smooth="yes" name="n28"/>
      <point x="169.7" y="760"/>
      <point x="296.9" y="960.6"/>
      <point x="554.9" y="960.6" type="curve" smooth="yes" name="n31"/>
      <point x="690.9" y="960.6"/>
      <point x="790.5" y="910"/>
      <point x="874.7" y="769.2" type="curve" name="n34"/>
    </contour>
  </outline>
</glyph>
<glyph name="e" format="2">
  <advance width="1036"/>
  <unicode hex="0065"/>
  <anchor x="555.2" y="-70" name="bottom"/>
  <anchor x="906.8" y="40.2" name="hook"/>
  <anchor x="550.2" y="1120" name="top"/>
  <outline>
    <contour>
      <point x="551.2" y="1002" type="curve" smooth="yes" name="n00"/>
      <point x="276.6" y="1002"/>
      <point x="114.8" y="800.2"/>
      <point x="114.8" y="513.2" type="curve" smooth="yes" name="n03"/>
      <point x="114.8" y="181.2"/>
      <point x="286" y="-12.4"/>
      <point x="556.2" y="-12.4" type="curve" smooth="yes" name="n06"/>
      <point x="707.2" y="-12.4"/>
      <point x="854.4" y="55.4"/>
      <point x="906.8" y="120.8" type="curve"/>
      <point x="894.2" y="136" type="line" smooth="yes"/>
      <point x="891.2" y="139.6"/>
      <point x="887.4" y="142.4"/>
      <point x="881.4" y="142.4" type="curve" smooth="yes"/>
      <point x="865" y="142.4"/>
      <point x="769.6" y="29.8"/>
      <point x="559" y="29.8" type="curve" smooth="yes" name="n16"/>
      <point x="322.2" y="29.8"/>
      <point x="167" y="199.2"/>
      <point x="167" y="513.2" type="curve" smooth="yes" name="n19"/>
      <point x="167" y="780.2"/>
      <point x="305" y="961.6"/>
      <point x="551.8" y="961.6" type="curve" smooth="yes" name="n22"/>
      <point x="741.6" y="961.6"/>
      <point x="885" y="826"/>
      <point x="885" y="588.4" type="curve" name="n25"/>
      <point x="157.2" y="588.4" type="line" name="n26"/>
      <point x="155.8" y="553.4" type="line" name="n27"/>
      <point x="914.8" y="553.4" type="line" smooth="yes"/>
      <point x="925.8" y="553.4"/>
      <point x="932.6" y="559.4"/>
      <point x="932.6" y="574.4" type="curve" smooth="yes" name="n31"/>
      <point x="932.6" y="849.4"/>
      <point x="764" y="1002"/>
    </contour>
  </outline>
</glyph>
<glyph name="f" format="2">
  <advance width="671"/>
  <unicode hex="0066"/>
  <anchor x="421" y="1498.9" name="Top"/>
  <anchor x="257.8" y="526.1" name="bar"/>
  <anchor x="257.8" y="-70" name="bottom"/>
  <anchor x="284.1" y="40.2" name="hook"/>
  <anchor x="483.7" y="1480.2" name="top"/>
  <outline>
    <contour>
      <point x="284.1" y="0" type="line" name="n00"/>
      <point x="284.1" y="927.6" type="line"/>
      <point x="283.1" y="938" type="line"/>
      <point x="283.1" y="1087.6" type="line" smooth="yes" name="n03"/>
      <point x="283.1" y="1300.6"/>
      <point x="383.6" y="1379.8"/>
      <point x="518.8" y="1379.8" type="curve" smooth="yes" name="n06"/>
      <point x="594.2" y="1379.8"/>
      <point x="621.7" y="1356.2"/>
      <point x="625.5" y="1376.8" type="curve"/>
      <point x="627.9" y="1399.8" type="line"/>
      <point x="598.1" y="1413.6"/>
      <point x="552.6" y="1421.4"/>
      <point x="513.4" y="1421.4" type="curve" smooth="yes" name="n13"/>
      <point x="347" y="1421.4"/>
      <point x="231.5" y="1314"/>
      <point x="231.5" y="1088.6" type="curve" smooth="yes" name="n16"/>
      <point x="231.5" y="0" type="line"/>
    </contour>
    <contour>
      <point x="621.5" y="908" type="line" name="n18"/>
      <point x="621.5" y="948.2" type="line" name="n19"/>
      <point x="58.5" y="948.2" type="line"/>
      <point x="58.5" y="928.2" type="line" smooth="yes"/>
      <point x="58.5" y="920"/>
      <point x="65.3" y="914.2"/>
      <point x="77.1" y="913.2" type="curve"/>
      <point x="242.5" y="907" type="line"/>
      <point x="259.1" y="908" type="line"/>
    </contour>
  </outline>
</glyph>
<glyph name="g" format="2">
  <advance width="1011"/>
  <unicode hex="0067"/>
  <anchor x="462.7" y="-421" name="bottom"/>
  <anchor x="510.5" y="1120" name="top"/>
  <outline>
    <contour>
      <point x="487.4" y="1002.2" type="curve" smooth="yes" name="n00"/>
      <point x="279.6" y="1002.2"/>
      <point x="145.8" y="874.2"/>
      <point x="145.8" y="687.6" type="curve" smooth="yes" name="n03"/>
      <point x="145.8" y="499.4"/>
      <point x="279.6" y="373"/>
      <point x="487.4" y="373" type="curve" smooth="yes" name="n06"/>
      <point x="692.8" y="373"/>
      <point x="828.2" y="499.4"/>
      <point x="828.2" y="687.6" type="curve" smooth="yes" name="n09"/>
      <point x="828.2" y="874.2"/>
      <point x="692.8" y="1002.2"/>
    </contour>
    <contour>
      <point x="487.4" y="411" type="curve" smooth="yes" name="n12"/>
      <point x="306.2" y="411"/>
      <point x="195.6" y="522.8"/>
      <point x="195.6" y="686.8" type="curve" smooth="yes" name="n15"/>
      <point x="195.6" y="851.4"/>
      <point x="306.2" y="962.4"/>
      <point x="487.4" y="962.4" type="curve" smooth="yes" name="n18"/>
      <point x="668.6" y="962.4"/>
      <point x="779.2" y="851.4"/>
      <point x="779.2" y="686.8" type="curve" smooth="yes" name="n21"/>
      <point x="779.2" y="522.6"/>
      <point x="672.2" y="411"/>
    </contour>
    <contour>
      <point x="298.2" y="425.4" type="line"/>
      <point x="219.6" y="385.2"/>
      <point x="171" y="313.4"/>
      <point x="171" y="257.8" type="curve" smooth="yes"/>
      <point x="171" y="-34.8"/>
      <point x="885.8" y="229.4"/>
      <point x="885.8" y="-73.8" type="curve" smooth="yes" name="n30"/>
      <point x="885.8" y="-227"/>
      <point x="706.6" y="-333.8"/>
      <point x="499.8" y="-333.8" type="curve" smooth="yes" name="n33"/>
      <point x="270.8" y="-333.8"/>
      <point x="133.2" y="-232.8"/>
      <point x="133.2" y="-105" type="curve" smooth="yes" name="n36"/>
      <point x="133.2" y="4.2"/>
      <point x="225.2" y="77.2"/>
      <point x="350.4" y="119.4" type="curve"/>
      <point x="308" y="129.4" type="line"/>
      <point x="172.4" y="88.4"/>
      <point x="84.8" y="4.4"/>
      <point x="84.8" y="-109.2" type="curve" smooth="yes" name="n43"/>
      <point x="84.8" y="-252.8"/>
      <point x="229.2" y="-374"/>
      <point x="499.2" y="-374" type="curve" smooth="yes" name="n46"/>
      <point x="764.4" y="-374"/>
      <point x="934.2" y="-227.6"/>
      <point x="934.2" y="-68.4" type="curve" smooth="yes"/>
      <point x="934.2" y="279.8"/>
      <point x="217.4" y="15.8"/>
      <point x="217.4" y="266.8" type="curve" smooth="yes" name="n52"/>
      <point x="217.4" y="317.8"/>
      <point x="266.4" y="379.2"/>
      <point x="337.2" y="413.6" type="curve"/>
    </contour>
    <contour>
      <point x="715" y="896.6" type="line"/>
      <point x="928" y="905" type="line" name="n57"/>
      <point x="939.8" y="906"/>
      <point x="948.8" y="913.4"/>
      <point x="948.8" y="924.2" type="curve" smooth="yes" name="n60"/>
      <point x="948.8" y="939.6" type="line" name="n61"/>
      <point x="680" y="939.6" type="line"/>
    </contour>
  </outline>
  <guideline angle="90" x="534" y="0"/>
</glyph>
<glyph name="h" format="2">
  <advance width="1092"/>
  <unicode hex="0068"/>
  <anchor x="576" y="702.8" name="Slash"/>
  <anchor x="210" y="1498.9" name="Top"/>
  <anchor x="551.6" y="-70" name="bottom"/>
  <anchor x="210" y="1498.9" name="top"/>
  <outline>
    <contour>
      <point x="228.7" y="0" type="line" name="n00"/>
      <point x="228.7" y="1446" type="line" name="n01"/>
      <point x="176.1" y="1446" type="line" name="n02"/>
      <point x="176.1" y="0" type="line"/>
    </contour>
    <contour>
      <point x="927.1" y="0" type="line"/>
      <point x="927.1" y="631.2" type="line" name="n05"/>
      <point x="874.5" y="631.2" type="line" name="n06"/>
      <point x="874.5" y="0" type="line"/>
    </contour>
    <contour>
      <point x="927.1" y="631.2" type="line"/>
      <point x="927.1" y="862.8"/>
      <point x="819.1" y="1002"/>
      <point x="600.3" y="1002" type="curve" smooth="yes" name="n11"/>
      <point x="438.9" y="1002"/>
      <point x="301.5" y="908.6"/>
      <point x="208.5" y="767.8" type="curve"/>
      <point x="215.7" y="728.2" type="line"/>
      <point x="310.9" y="871.2"/>
      <point x="441.1" y="959.6"/>
      <point x="590.7" y="959.6" type="curve" smooth="yes" name="n18"/>
      <point x="783.3" y="959.6"/>
      <point x="874.5" y="837"/>
      <point x="874.5" y="631.2" type="curve"/>
    </contour>
  </outline>
</glyph>
<glyph name="i" format="2">
  <advance width="427.8"/>
  <unicode hex="0069"/>
  <guideline x="236.4"/>
  <anchor x="240.2" y="40.2" name="hook"/>
  <anchor x="213.9" y="1498.9" name="Top"/>
  <anchor x="213.9" y="1498.9" name="top"/>
  <anchor x="213.9" y="-70.0" name="bottom"/>
  <outline>
    <contour>
      <point x="187.6" y="986.0" type="line"/>
      <point x="187.6" y="0.0" type="line"/>
      <point x="240.2" y="0.0" type="line"/>
      <point x="240.2" y="986.0" type="line"/>
    </contour>
    <contour>
      <point x="283.0" y="1341.6" type="curve" smooth="yes"/>
      <point x="283.0" y="1379.0"/>
      <point x="249.2" y="1410.8"/>
      <point x="213.6" y="1410.8" type="curve" smooth="yes"/>
      <point x="176.6" y="1410.8"/>
      <point x="144.8" y="1379.0"/>
      <point x="144.8" y="1341.6" type="curve" smooth="yes"/>
      <point x="144.8" y="1306.2"/>
      <point x="176.6" y="1274.4"/>
      <point x="213.6" y="1274.4" type="curve" smooth="yes"/>
      <point x="249.2" y="1274.4"/>
      <point x="283.0" y="1306.2"/>
    </contour>
  </outline>
</glyph>
<glyph name="j" format="2">
  <advance width="427.8"/>
  <unicode hex="006A"/>
  <guideline x="229.8"/>
  <anchor x="213.3" y="526.1" name="bar"/>
  <anchor x="213.0" y="1498.9" name="Top"/>
  <anchor x="213.0" y="1498.9" name="top"/>
  <anchor x="213.9" y="-421.0" name="bottom"/>
  <outline>
    <contour>
      <point x="187.6" y="986.0" type="line"/>
      <point x="187.6" y="-154.2" type="line" smooth="yes"/>
      <point x="187.6" y="-262.0"/>
      <point x="131.2" y="-331.0"/>
      <point x="20.8" y="-331.0" type="curve" smooth="yes"/>
      <point x="-32.6" y="-331.0"/>
      <point x="-48.2" y="-303.8"/>
      <point x="-57.4" y="-326.4" type="curve"/>
      <point x="-62.0" y="-350.6" type="line"/>
      <point x="-35.8" y="-364.4"/>
      <point x="-10.0" y="-372.2"/>
      <point x="27.4" y="-372.2" type="curve" smooth="yes"/>
      <point x="162.8" y="-372.2"/>
      <point x="240.2" y="-280.2"/>
      <point x="240.2" y="-154.2" type="curve" smooth="yes"/>
      <point x="240.2" y="986.0" type="line"/>
    </contour>
    <contour>
      <point x="282.1" y="1341.6" type="curve" smooth="yes"/>
      <point x="282.1" y="1379.0"/>
      <point x="248.3" y="1410.8"/>
      <point x="212.7" y="1410.8" type="curve" smooth="yes"/>
      <point x="175.7" y="1410.8"/>
      <point x="143.9" y="1379.0"/>
      <point x="143.9" y="1341.6" type="curve" smooth="yes"/>
      <point x="143.9" y="1306.2"/>
      <point x="175.7" y="1274.4"/>
      <point x="212.7" y="1274.4" type="curve" smooth="yes"/>
      <point x="248.3" y="1274.4"/>
      <point x="282.1" y="1306.2"/>
    </contour>
  </outline>
</glyph>
<glyph name="k" format="2">
  <advance width="919.0"/>
  <unicode hex="006B"/>
  <anchor x="854.2" y="40.2" name="hook"/>
  <anchor x="213.7" y="1498.9" name="Top"/>
  <anchor x="213.7" y="1498.9" name="top"/>
  <anchor x="502.2" y="-70.0" name="bottom"/>
  <outline>
    <contour>
      <point x="176.1" y="1446.0" type="line"/>
      <point x="176.1" y="0.0" type="line"/>
      <point x="228.7" y="0.0" type="line"/>
      <point x="228.7" y="1446.0" type="line"/>
    </contour>
    <contour>
      <point x="210.5" y="548.8" type="line"/>
      <point x="216.7" y="511.8" type="line"/>
      <point x="270.7" y="511.8" type="line" smooth="yes"/>
      <point x="310.7" y="511.8"/>
      <point x="323.1" y="505.8"/>
      <point x="346.5" y="482.6" type="curve"/>
      <point x="808.9" y="16.2" type="line" smooth="yes"/>
      <point x="820.1" y="3.2"/>
      <point x="830.7" y="0.0"/>
      <point x="844.3" y="0.0" type="curve" smooth="yes"/>
      <point x="888.5" y="0.0" type="line"/>
      <point x="393.1" y="503.2" type="line"/>
      <point x="371.7" y="526.4"/>
      <point x="347.9" y="544.4"/>
      <point x="299.1" y="544.4" type="curve"/>
      <point x="295.7" y="526.0" type="line"/>
      <point x="334.7" y="526.0"/>
      <point x="355.7" y="536.0"/>
      <point x="378.1" y="558.8" type="curve" smooth="yes"/>
      <point x="851.3" y="986.0" type="line"/>
      <point x="806.7" y="986.0" type="line" smooth="yes"/>
      <point x="787.5" y="986.0"/>
      <point x="775.7" y="978.8"/>
      <point x="764.3" y="966.4" type="curve"/>
      <point x="325.3" y="568.8" type="line" smooth="yes"/>
      <point x="305.3" y="549.8"/>
      <point x="289.3" y="548.8"/>
      <point x="274.7" y="548.8" type="curve" smooth="yes"/>
    </contour>
  </outline>
</glyph>
<glyph name="l" format="2">
  <advance width="426"/>
  <unicode hex="006C"/>
  <anchor x="212.7" y="1498.9" name="Top"/>
  <anchor x="215.1" y="705.6" name="bar"/>
  <anchor x="214.4" y="-70" name="bottom"/>
  <anchor x="239.5" y="40.2" name="hook"/>
  <anchor x="212.7" y="1498.9" name="top"/>
  <outline>
    <contour>
      <point x="186.9" y="1446" type="line" name="n00"/>
      <point x="186.9" y="0" type="line" name="n01"/>
      <point x="239.5" y="0" type="line"/>
      <point x="239.5" y="1446" type="line" name="n03"/>
    </contour>
  </outline>
</glyph>
<glyph name="m" format="2">
  <advance width="1591.3"/>
  <unicode hex="006D"/>
  <anchor x="797.3" y="-70.0" name="bottom"/>
  <anchor x="809.6" y="1120.0" name="top"/>
  <anchor x="1426.1" y="40.2" name="hook"/>
  <outline>
    <contour>
      <point x="228.7" y="0.0" type="line"/>
      <point x="228.7" y="763.8" type="line"/>
      <point x="227.7" y="769.0" type="line"/>
      <point x="220.9" y="966.2" type="line"/>
      <point x="219.7" y="980.6"/>
      <point x="213.5" y="986.0"/>
      <point x="200.7" y="986.0" type="curve" smooth="yes"/>
      <point x="176.1" y="986.0" type="line"/>
      <point x="176.1" y="0.0" type="line"/>
    </contour>
    <contour>
      <point x="823.1" y="0.0" type="line"/>
      <point x="823.1" y="631.2" type="line"/>
      <point x="770.5" y="631.2" type="line"/>
      <point x="770.5" y="0.0" type="line"/>
    </contour>
    <contour>
      <point x="810.7" y="631.2" type="line"/>
      <point x="810.7" y="861.8"/>
      <point x="719.1" y="1002.0"/>
      <point x="537.3" y="1002.0" type="curve" smooth="yes"/>
      <point x="400.7" y="1002.0"/>
      <point x="286.1" y="908.0"/>
      <point x="208.5" y="768.0" type="curve"/>
      <point x="215.7" y="728.2" type="line"/>
      <point x="293.3" y="871.2"/>
      <point x="401.1" y="959.6"/>
      <point x="526.3" y="959.6" type="curve" smooth="yes"/>
      <point x="684.7" y="959.6"/>
      <point x="770.5" y="838.8"/>
      <point x="770.5" y="631.2" type="curve"/>
    </contour>
    <contour>
      <point x="1426.1" y="0.0" type="line"/>
      <point x="1426.1" y="631.2" type="line"/>
      <point x="1373.5" y="631.2" type="line"/>
      <point x="1373.5" y="0.0" type="line"/>
    </contour>
    <contour>
      <point x="1426.1" y="631.2" type="line"/>
      <point x="1426.1" y="870.4"/>
      <point x="1306.9" y="1002.0"/>
      <point x="1117.5" y="1002.0" type="curve" smooth="yes"/>
      <point x="949.5" y="1002.0"/>
      <point x="791.3" y="885.4"/>
      <point x="791.3" y="631.2" type="curve"/>
      <point x="823.1" y="631.2" type="line"/>
      <point x="823.1" y="849.8"/>
      <point x="960.7" y="959.6"/>
      <point x="1109.5" y="959.6" type="curve" smooth="yes"/>
      <point x="1277.1" y="959.6"/>
      <point x="1373.5" y="843.0"/>
      <point x="1373.5" y="631.2" type="curve"/>
    </contour>
  </outline>
</glyph>
<glyph name="n" format="2">
  <advance width="1092.3"/>
  <unicode hex="006E"/>
  <guideline x="-1350.0"/>
  <anchor x="546.1" y="1120.0" name="top"/>
  <anchor x="927.1" y="40.2" name="hook"/>
  <anchor x="551.6" y="-70.0" name="bottom"/>
  <outline>
    <contour>
      <point x="228.7" y="0.0" type="line"/>
      <point x="228.7" y="763.8" type="line"/>
      <point x="227.7" y="769.0" type="line"/>
      <point x="220.9" y="966.2" type="line"/>
      <point x="219.7" y="980.6"/>
      <point x="213.5" y="986.0"/>
      <point x="200.7" y="986.0" type="curve" smooth="yes"/>
      <point x="176.1" y="986.0" type="line"/>
      <point x="176.1" y="0.0" type="line"/>
    </contour>
    <contour>
      <point x="927.1" y="0.0" type="line"/>
      <point x="927.1" y="631.2" type="line"/>
      <point x="874.5" y="631.2" type="line"/>
      <point x="874.5" y="0.0" type="line"/>
    </contour>
    <contour>
      <point x="927.1" y="631.2" type="line"/>
      <point x="927.1" y="862.8"/>
      <point x="819.1" y="1002.0"/>
      <point x="600.3" y="1002.0" type="curve" smooth="yes"/>
      <point x="438.9" y="1002.0"/>
      <point x="301.5" y="908.6"/>
      <point x="208.5" y="767.8" type="curve"/>
      <point x="215.7" y="728.2" type="line"/>
      <point x="310.9" y="871.2"/>
      <point x="441.1" y="959.6"/>
      <point x="590.7" y="959.6" type="curve" smooth="yes"/>
      <point x="783.3" y="959.6"/>
      <point x="874.5" y="837.0"/>
      <point x="874.5" y="631.2" type="curve"/>
      <point x="874.5" y="600.2" type="line"/>
      <point x="927.1" y="600.2" type="line"/>
    </contour>
  </outline>
</glyph>
<glyph name="o" format="2">
  <advance width="1107.1"/>
  <unicode hex="006F"/>
  <guideline x="536.2"/>
  <anchor x="555.1" y="1120.0" name="top"/>
  <anchor x="555.1" y="-70.0" name="bottom"/>
  <outline>
    <contour>
      <point x="553.3" y="1002.0" type="curve" smooth="yes"/>
      <point x="273.3" y="1002.0"/>
      <point x="114.9" y="799.8"/>
      <point x="114.9" y="493.2" type="curve" smooth="yes"/>
      <point x="114.9" y="186.4"/>
      <point x="273.3" y="-12.4"/>
      <point x="553.3" y="-12.4" type="curve" smooth="yes"/>
      <point x="833.1" y="-12.4"/>
      <point x="991.3" y="186.4"/>
      <point x="991.3" y="493.2" type="curve" smooth="yes"/>
      <point x="991.3" y="799.8"/>
      <point x="833.1" y="1002.0"/>
    </contour>
    <contour>
      <point x="553.3" y="29.6" type="curve" smooth="yes"/>
      <point x="297.5" y="29.6"/>
      <point x="168.5" y="213.8"/>
      <point x="168.5" y="493.0" type="curve" smooth="yes"/>
      <point x="168.5" y="772.2"/>
      <point x="297.5" y="960.0"/>
      <point x="553.3" y="960.0" type="curve" smooth="yes"/>
      <point x="808.7" y="960.0"/>
      <point x="937.7" y="772.2"/>
      <point x="937.7" y="493.0" type="curve" smooth="yes"/>
      <point x="937.7" y="213.8"/>
      <point x="808.7" y="29.6"/>
    </contour>
  </outline>
</glyph>
<glyph name="q" format="2">
  <advance width="1091.4"/>
  <unicode hex="0071"/>
  <anchor x="625.1" y="1120.0" name="top"/>
  <anchor x="612.7" y="-421.0" name="bottom"/>
  <outline>
    <contour>
      <point x="892.5" y="986.0" type="line"/>
      <point x="879.7" y="986.0"/>
      <point x="873.5" y="980.6"/>
      <point x="872.3" y="966.2" type="curve"/>
      <point x="865.5" y="815.8" type="line"/>
      <point x="864.5" y="810.6" type="line"/>
      <point x="864.5" y="-356.8" type="line"/>
      <point x="917.1" y="-356.8" type="line"/>
      <point x="917.1" y="986.0" type="line"/>
    </contour>
    <contour>
      <point x="879.7" y="815.0" type="line"/>
      <point x="805.5" y="940.4"/>
      <point x="697.1" y="1002.4"/>
      <point x="547.5" y="1002.4" type="curve" smooth="yes"/>
      <point x="265.5" y="1002.4"/>
      <point x="116.1" y="777.6"/>
      <point x="116.1" y="490.8" type="curve" smooth="yes"/>
      <point x="116.1" y="151.4"/>
      <point x="256.3" y="-12.4"/>
      <point x="506.5" y="-12.4" type="curve" smooth="yes"/>
      <point x="662.5" y="-12.4"/>
      <point x="793.9" y="79.4"/>
      <point x="882.3" y="220.8" type="curve"/>
      <point x="875.1" y="261.8" type="line"/>
      <point x="787.3" y="118.0"/>
      <point x="661.5" y="30.400000000000002"/>
      <point x="517.3" y="30.400000000000002" type="curve" smooth="yes"/>
      <point x="291.5" y="30.400000000000002"/>
      <point x="169.7" y="177.8"/>
      <point x="169.7" y="490.8" type="curve" smooth="yes"/>
      <point x="169.7" y="760.0"/>
      <point x="296.9" y="960.6"/>
      <point x="554.9" y="960.6" type="curve" smooth="yes"/>
      <point x="690.9" y="960.6"/>
      <point x="796.8" y="904.6"/>
      <point x="874.7" y="769.2" type="curve"/>
    </contour>
  </outline>
</glyph>
<glyph name="r" format="2">
  <advance width="696"/>
  <unicode hex="0072"/>
  <anchor x="203.1" y="526.1" name="bar"/>
  <anchor x="202.9" y="-70" name="bottom"/>
  <anchor x="228.7" y="40.2" name="hook"/>
  <anchor x="418.5" y="1120" name="top"/>
  <outline>
    <contour>
      <point x="664.9" y="979.2" type="line"/>
      <point x="633.3" y="996.7"/>
      <point x="589.9" y="1002.4" name="n02"/>
      <point x="550.9" y="1002.4" type="curve" smooth="yes"/>
      <point x="360.1" y="1002.4"/>
      <point x="259.7" y="869.6"/>
      <point x="205.5" y="644.2" type="curve"/>
      <point x="217.5" y="606" type="line"/>
      <point x="280.8" y="834.6"/>
      <point x="368" y="952.2"/>
      <point x="545.2" y="952.2" type="curve" smooth="yes"/>
      <point x="603.2" y="952.2"/>
      <point x="630.7" y="937"/>
      <point x="645.5" y="937" type="curve" smooth="yes" name="n13"/>
      <point x="653.5" y="937"/>
      <point x="656.9" y="941.6"/>
      <point x="659.3" y="948.2" type="curve"/>
    </contour>
    <contour>
      <point x="228.7" y="0" type="line" name="n17"/>
      <point x="228.7" y="676.8" type="line"/>
      <point x="227.7" y="682" type="line"/>
      <point x="221.5" y="964" type="line" name="n20"/>
      <point x="220.5" y="980.4"/>
      <point x="215.1" y="986"/>
      <point x="199.9" y="986" type="curve" smooth="yes" name="n23"/>
      <point x="176.1" y="986" type="line" name="n24"/>
      <point x="176.1" y="0" type="line"/>
    </contour>
  </outline>
</glyph>
<glyph name="u" format="2">
  <advance width="1091"/>
  <unicode hex="0075"/>
  <anchor x="609.8" y="-70" name="bottom"/>
  <anchor x="916.2" y="40.2" name="hook"/>
  <anchor x="547.5" y="1120" name="top"/>
  <outline>
    <contour>
      <point x="863.6" y="986" type="line" name="n00"/>
      <point x="863.6" y="222.2" type="line"/>
      <point x="864.6" y="217" type="line"/>
      <point x="871.4" y="19.8" type="line" name="n03"/>
      <point x="872.6" y="5.4"/>
      <point x="878.8" y="0" name="n05"/>
      <point x="891.6" y="0" type="curve" smooth="yes"/>
      <point x="916.2" y="0" type="line" name="n07"/>
      <point x="916.2" y="986" type="line"/>
    </contour>
    <contour>
      <point x="165.2" y="986" type="line" name="n09"/>
      <point x="165.2" y="354.8" type="line"/>
      <point x="217.8" y="354.8" type="line"/>
      <point x="217.8" y="986" type="line" name="n12"/>
    </contour>
    <contour>
      <point x="165.2" y="354.8" type="line"/>
      <point x="165.2" y="123.2"/>
      <point x="273.2" y="-16"/>
      <point x="492" y="-16" type="curve" smooth="yes" name="n16"/>
      <point x="653.4" y="-16"/>
      <point x="790.8" y="77.4"/>
      <point x="883.8" y="218.2" type="curve"/>
      <point x="876.6" y="257.8" type="line"/>
      <point x="781.4" y="114.8"/>
      <point x="651.2" y="26.4"/>
      <point x="501.6" y="26.4" type="curve" smooth="yes" name="n23"/>
      <point x="309" y="26.4"/>
      <point x="217.8" y="149"/>
      <point x="217.8" y="354.8" type="curve"/>
    </contour>
  </outline>
</glyph>
<glyph name="v" format="2">
  <advance width="988"/>
  <unicode hex="0076"/>
  <anchor x="494" y="-70" name="bottom"/>
  <anchor x="532.1" y="40.2" name="hook"/>
  <anchor x="494" y="1120" name="top"/>
  <outline>
    <contour>
      <point x="471.8" y="0" type="line" name="n00"/>
      <point x="503.6" y="0" type="line"/>
      <point x="499.4" y="40.4"/>
      <point x="491.8" y="77"/>
      <point x="476.8" y="115.2" type="curve"/>
      <point x="111.4" y="967.8" type="line"/>
      <point x="108.6" y="976.4"/>
      <point x="100" y="986" name="n07"/>
      <point x="86.6" y="986" type="curve" smooth="yes"/>
      <point x="48.2" y="986" type="line"/>
    </contour>
    <contour>
      <point x="939.8" y="986" type="line"/>
      <point x="902.6" y="986" type="line" smooth="yes"/>
      <point x="891.4" y="986"/>
      <point x="882.8" y="978.2"/>
      <point x="878.2" y="967.8" type="curve" smooth="yes"/>
      <point x="512.2" y="115.2" type="line"/>
      <point x="497" y="76.8"/>
      <point x="489.2" y="40.4"/>
      <point x="485.2" y="0" type="curve"/>
      <point x="516.2" y="0" type="line"/>
    </contour>
  </outline>
</glyph>
<glyph name="w" format="2">
  <advance width="1508"/>
  <unicode hex="0077"/>
  <anchor x="754.1" y="-70" name="bottom"/>
  <anchor x="757.8" y="1120" name="top"/>
  <outline>
    <contour>
      <point x="393.6" y="0" type="line" name="n00"/>
      <point x="426.6" y="0" type="line" smooth="yes"/>
      <point x="433.6" y="0"/>
      <point x="439.4" y="5.4"/>
      <point x="442.2" y="14.4" type="curve"/>
      <point x="743.4" y="884.8" type="line" smooth="yes"/>
      <point x="752.6" y="911.8"/>
      <point x="757.8" y="937"/>
      <point x="760.8" y="964" type="curve"/>
      <point x="749.2" y="964" type="line"/>
      <point x="752.2" y="937"/>
      <point x="757.4" y="912"/>
      <point x="766.6" y="885" type="curve" smooth="yes"/>
      <point x="1064" y="14.4" type="line"/>
      <point x="1066.8" y="5.2"/>
      <point x="1072.4" y="0"/>
      <point x="1080.4" y="0" type="curve" smooth="yes"/>
      <point x="1114.6" y="0" type="line"/>
      <point x="1449.2" y="986" type="line" name="n18"/>
      <point x="1413" y="986" type="line" smooth="yes"/>
      <point x="1401.8" y="986"/>
      <point x="1393.2" y="978.2"/>
      <point x="1388.6" y="967.8" type="curve"/>
      <point x="1107.6" y="115.2" type="line"/>
      <point x="1095.6" y="76.4"/>
      <point x="1086.6" y="44"/>
      <point x="1083.6" y="3.6" type="curve"/>
      <point x="1099.2" y="1.8" type="line"/>
      <point x="1096.4" y="42.2"/>
      <point x="1086.6" y="76.8"/>
      <point x="1074.2" y="115.2" type="curve" smooth="yes"/>
      <point x="782.8" y="976.8" type="line" smooth="yes"/>
      <point x="780" y="985.4"/>
      <point x="775" y="991.4" name="n33"/>
      <point x="765.2" y="991.4" type="curve" smooth="yes"/>
      <point x="746" y="991.4" type="line" smooth="yes"/>
      <point x="736.6" y="991.4"/>
      <point x="731.6" y="985.4"/>
      <point x="728.8" y="976.8" type="curve" smooth="yes"/>
      <point x="435" y="115.2" type="line" smooth="yes"/>
      <point x="422.2" y="76.6"/>
      <point x="412.4" y="44"/>
      <point x="408.4" y="3.6" type="curve"/>
      <point x="423.6" y="3.6" type="line"/>
      <point x="420.4" y="44"/>
      <point x="413.2" y="76.6"/>
      <point x="401.6" y="115.2" type="curve"/>
      <point x="121.2" y="967.8" type="line" smooth="yes"/>
      <point x="118.4" y="976.4"/>
      <point x="109.8" y="986"/>
      <point x="96.4" y="986" type="curve" smooth="yes"/>
      <point x="59" y="986" type="line"/>
    </contour>
  </outline>
</glyph>
<glyph name="x" format="2">
  <advance width="908"/>
  <unicode hex="0078"/>
  <anchor x="454.1" y="-70" name="bottom"/>
  <anchor x="823.7" y="40.2" name="hook"/>
  <anchor x="452.9" y="1120" name="top"/>
  <outline>
    <contour>
      <point x="424.2" y="494.6" type="line"/>
      <point x="479.4" y="494.6" type="line"/>
      <point x="141.4" y="969.6" type="line"/>
      <point x="136.2" y="976"/>
      <point x="131" y="986" name="n04"/>
      <point x="117.6" y="986" type="curve" smooth="yes"/>
      <point x="68" y="986" type="line"/>
    </contour>
    <contour>
      <point x="840" y="986" type="line"/>
      <point x="791.8" y="986" type="line" smooth="yes"/>
      <point x="781.6" y="986"/>
      <point x="774.2" y="977.4"/>
      <point x="768.8" y="969" type="curve"/>
      <point x="467.6" y="551" type="line"/>
      <point x="455" y="531.4"/>
      <point x="451.2" y="516.2"/>
      <point x="451" y="494.6" type="curve"/>
      <point x="481" y="494.6" type="line"/>
    </contour>
    <contour>
      <point x="483.8" y="514.6" type="line"/>
      <point x="428.2" y="514.6" type="line"/>
      <point x="779.6" y="18.2" type="line"/>
      <point x="784.8" y="11.6"/>
      <point x="791" y="0" name="n21"/>
      <point x="804.4" y="0" type="curve" smooth="yes"/>
      <point x="854" y="0" type="line"/>
    </contour>
    <contour>
      <point x="54" y="0" type="line"/>
      <point x="101.4" y="0" type="line" smooth="yes"/>
      <point x="112.6" y="0"/>
      <point x="118.6" y="10"/>
      <point x="125.8" y="18.2" type="curve"/>
      <point x="441.6" y="457" type="line" smooth="yes"/>
      <point x="454.8" y="474.6"/>
      <point x="455.8" y="491.2"/>
      <point x="457.8" y="514.6" type="curve"/>
      <point x="427" y="514.6" type="line"/>
    </contour>
  </outline>
</glyph>
<glyph name="y" format="2">
  <advance width="988.7"/>
  <unicode hex="0079"/>
  <anchor x="523.3" y="1120.0" name="top"/>
  <anchor x="783.3" y="-70.0" name="bottom"/>
  <outline>
    <contour>
      <point x="479.3" y="7.2" type="line"/>
      <point x="508.7" y="7.2" type="line"/>
      <point x="505.7" y="47.8"/>
      <point x="498.7" y="86.6"/>
      <point x="483.1" y="124.2" type="curve" smooth="yes"/>
      <point x="115.1" y="967.8" type="line"/>
      <point x="112.1" y="976.2"/>
      <point x="102.5" y="986.0"/>
      <point x="88.7" y="986.0" type="curve" smooth="yes"/>
      <point x="48.7" y="986.0" type="line"/>
    </contour>
    <contour>
      <point x="943.3" y="986.0" type="line"/>
      <point x="905.7" y="986.0" type="line" smooth="yes"/>
      <point x="894.9" y="986.0"/>
      <point x="886.1" y="978.2"/>
      <point x="881.3" y="967.8" type="curve"/>
      <point x="514.9" y="124.4" type="line"/>
      <point x="503.9" y="96.4"/>
      <point x="493.5" y="66.0"/>
      <point x="490.3" y="37.6" type="curve"/>
      <point x="477.9" y="39.0" type="line"/>
      <point x="300.5" y="-356.8" type="line"/>
      <point x="336.3" y="-356.8" type="line" smooth="yes"/>
      <point x="352.9" y="-356.8"/>
      <point x="362.3" y="-344.0"/>
      <point x="367.7" y="-330.8" type="curve"/>
    </contour>
  </outline>
</glyph>
<glyph name="z" format="2">
  <advance width="878"/>
  <unicode hex="007A"/>
  <anchor x="443.1" y="-70" name="bottom"/>
  <anchor x="759.9" y="40.2" name="hook"/>
  <anchor x="459.4" y="1120" name="top"/>
  <outline>
    <contour>
      <point x="805.8" y="986" type="line"/>
      <point x="102.8" y="986" type="line" name="n01"/>
      <point x="102.8" y="944" type="line" name="n02"/>
      <point x="760.2" y="944" type="line"/>
      <point x="747.2" y="952" type="line"/>
      <point x="78.8" y="41.8" type="line" smooth="yes"/>
      <point x="72.6" y="33"/>
      <point x="69.4" y="26.6"/>
      <point x="69.4" y="18.6" type="curve" smooth="yes"/>
      <point x="69.4" y="0" type="line"/>
      <point x="777.8" y="0" type="line" name="n10"/>
      <point x="777.8" y="42" type="line" name="n11"/>
      <point x="116.6" y="42" type="line"/>
      <point x="128" y="31.6" type="line"/>
      <point x="796.4" y="941.6" type="line" smooth="yes"/>
      <point x="802.4" y="949.6"/>
      <point x="805.8" y="956"/>
      <point x="805.8" y="964" type="curve" smooth="yes"/>
    </contour>
  </outline>
</glyph>
<glyph name="braceleft" format="2">
  <advance width="584.1"/>
  <unicode hex="007B"/>
  <guideline y="630.0"/>
  <outline>
    <contour>
      <point x="254.6" y="802.0" type="curve" smooth="yes"/>
      <point x="254.6" y="711.4"/>
      <point x="185.4" y="646.6"/>
      <point x="89.2" y="646.6" type="curve"/>
      <point x="89.2" y="610.6" type="line"/>
      <point x="123.4" y="625.6" type="line"/>
      <point x="200.4" y="625.6"/>
      <point x="300.6" y="687.4"/>
      <point x="300.6" y="802.4" type="curve" smooth="yes"/>
      <point x="300.6" y="949.2"/>
      <point x="236.6" y="1089.8"/>
      <point x="236.6" y="1241.2" type="curve" smooth="yes"/>
      <point x="236.6" y="1381.4"/>
      <point x="325.0" y="1471.4"/>
      <point x="445.0" y="1471.4" type="curve" smooth="yes"/>
      <point x="484.6" y="1471.4" type="line" smooth="yes"/>
      <point x="494.0" y="1471.4"/>
      <point x="501.8" y="1476.8"/>
      <point x="501.8" y="1486.6" type="curve" smooth="yes"/>
      <point x="501.8" y="1507.8" type="line"/>
      <point x="446.2" y="1507.8" type="line" smooth="yes"/>
      <point x="290.2" y="1507.8"/>
      <point x="189.8" y="1390.8"/>
      <point x="189.8" y="1239.2" type="curve" smooth="yes"/>
      <point x="189.8" y="1084.8"/>
      <point x="254.6" y="954.0"/>
    </contour>
    <contour>
      <point x="254.6" y="455.2" type="curve" smooth="yes"/>
      <point x="254.6" y="303.2"/>
      <point x="189.8" y="172.4"/>
      <point x="189.8" y="18.0" type="curve" smooth="yes"/>
      <point x="189.8" y="-133.6"/>
      <point x="290.2" y="-250.6"/>
      <point x="446.2" y="-250.6" type="curve" smooth="yes"/>
      <point x="501.8" y="-250.6" type="line"/>
      <point x="501.8" y="-229.4" type="line" smooth="yes"/>
      <point x="501.8" y="-219.6"/>
      <point x="494.0" y="-214.2"/>
      <point x="484.6" y="-214.2" type="curve" smooth="yes"/>
      <point x="445.0" y="-214.2" type="line" smooth="yes"/>
      <point x="325.0" y="-214.2"/>
      <point x="236.6" y="-124.2"/>
      <point x="236.6" y="16.0" type="curve" smooth="yes"/>
      <point x="236.6" y="167.4"/>
      <point x="300.6" y="308.0"/>
      <point x="300.6" y="454.8" type="curve" smooth="yes"/>
      <point x="300.6" y="569.8"/>
      <point x="200.4" y="631.6"/>
      <point x="123.4" y="631.6" type="curve"/>
      <point x="89.2" y="646.6" type="line"/>
      <point x="89.2" y="610.6" type="line"/>
      <point x="185.4" y="610.6"/>
      <point x="254.6" y="545.8"/>
    </contour>
  </outline>
</glyph>
<glyph name="bar" format="2">
  <advance width="464"/>
  <unicode hex="007C"/>
  <outline>
    <contour>
      <point x="211.2" y="-358.8" type="line" name="n00"/>
      <point x="253.2" y="-358.8" type="line" name="n01"/>
      <point x="253.2" y="1507.8" type="line" name="n02"/>
      <point x="211.2" y="1507.8" type="line"/>
    </contour>
  </outline>
</glyph>
<glyph name="braceright" format="2">
  <advance width="584"/>
  <unicode hex="007D"/>
  <outline>
    <contour>
      <point x="329.5" y="802" type="curve" smooth="yes" name="n00"/>
      <point x="329.5" y="954"/>
      <point x="394.3" y="1084.8"/>
      <point x="394.3" y="1239.2" type="curve" smooth="yes" name="n03"/>
      <point x="394.3" y="1390.8"/>
      <point x="293.9" y="1507.8"/>
      <point x="137.9" y="1507.8" type="curve" smooth="yes" name="n06"/>
      <point x="82.3" y="1507.8" type="line"/>
      <point x="82.3" y="1486.6" type="line" smooth="yes"/>
      <point x="82.3" y="1476.8"/>
      <point x="90.1" y="1471.4"/>
      <point x="99.5" y="1471.4" type="curve" smooth="yes"/>
      <point x="139.1" y="1471.4" type="line" smooth="yes" name="n12"/>
      <point x="259.1" y="1471.4"/>
      <point x="347.5" y="1381.4"/>
      <point x="347.5" y="1241.2" type="curve" smooth="yes" name="n15"/>
      <point x="347.5" y="1089.8"/>
      <point x="283.5" y="949.2"/>
      <point x="283.5" y="802.4" type="curve" smooth="yes" name="n18"/>
      <point x="283.5" y="687.4"/>
      <point x="383.7" y="625.6"/>
      <point x="460.7" y="625.6" type="curve"/>
      <point x="494.9" y="610.6" type="line"/>
      <point x="494.9" y="646.6" type="line"/>
      <point x="398.7" y="646.6"/>
      <point x="329.5" y="711.4"/>
    </contour>
    <contour>
      <point x="329.5" y="455.2" type="curve" smooth="yes"/>
      <point x="329.5" y="545.8"/>
      <point x="398.7" y="610.6"/>
      <point x="494.9" y="610.6" type="curve"/>
      <point x="494.9" y="646.6" type="line"/>
      <point x="460.7" y="631.6" type="line"/>
      <point x="383.7" y="631.6"/>
      <point x="283.5" y="569.8"/>
      <point x="283.5" y="454.8" type="curve" smooth="yes"/>
      <point x="283.5" y="308"/>
      <point x="347.5" y="167.4"/>
      <point x="347.5" y="16" type="curve" smooth="yes"/>
      <point x="347.5" y="-124.2"/>
      <point x="259.1" y="-214.2"/>
      <point x="139.1" y="-214.2" type="curve" smooth="yes" name="n40"/>
      <point x="99.5" y="-214.2" type="line" smooth="yes"/>
      <point x="90.1" y="-214.2"/>
      <point x="82.3" y="-219.6"/>
      <point x="82.3" y="-229.4" type="curve" smooth="yes"/>
      <point x="82.3" y="-250.6" type="line"/>
      <point x="137.9" y="-250.6" type="line" smooth="yes" name="n46"/>
      <point x="293.9" y="-250.6"/>
      <point x="394.3" y="-133.6"/>
      <point x="394.3" y="18" type="curve" smooth="yes"/>
      <point x="394.3" y="172.4"/>
      <point x="329.5" y="303.2"/>
    </contour>
  </outline>
  <guideline angle="0" x="0" y="630"/>
</glyph>
<glyph name="asciitilde" format="2">
  <advance width="1160.0"/>
  <unicode hex="007E"/>
  <outline>
    <contour>
      <point x="792.4" y="543.6" type="curve"/>
      <point x="670.0" y="543.6"/>
      <point x="508.2" y="680.4"/>
      <point x="371.6" y="680.4" type="curve"/>
      <point x="233.8" y="680.4"/>
      <point x="155.0" y="572.6"/>
      <point x="155.0" y="445.0" type="curve"/>
      <point x="198.0" y="445.0" type="line"/>
      <point x="199.8" y="553.6"/>
      <point x="266.4" y="636.8"/>
      <point x="373.6" y="636.8" type="curve" smooth="yes"/>
      <point x="496.0" y="636.8"/>
      <point x="657.8" y="500.0"/>
      <point x="794.4" y="500.0" type="curve"/>
      <point x="932.2" y="500.0"/>
      <point x="1011.0" y="607.8"/>
      <point x="1011.0" y="735.4" type="curve"/>
      <point x="968.0" y="735.4" type="line"/>
      <point x="966.2" y="626.8"/>
      <point x="899.6" y="543.6"/>
    </contour>
  </outline>
</glyph>
<glyph name="exclamdown" format="2">
  <advance width="437.1"/>
  <unicode hex="00A1"/>
  <guideline x="346.4"/>
  <outline>
    <contour>
      <point x="246.7" y="-356.8" type="line"/>
      <point x="246.7" y="198.0" type="line" smooth="yes"/>
      <point x="246.7" y="316.4"/>
      <point x="243.3" y="397.2"/>
      <point x="237.3" y="551.6" type="curve"/>
      <point x="201.9" y="551.6" type="line"/>
      <point x="195.9" y="397.2"/>
      <point x="192.5" y="316.4"/>
      <point x="192.5" y="198.0" type="curve" smooth="yes"/>
      <point x="192.5" y="-356.8" type="line"/>
    </contour>
    <contour>
      <point x="140.5" y="926.8" type="curve" smooth="yes"/>
      <point x="140.5" y="884.6"/>
      <point x="173.3" y="849.8"/>
      <point x="215.7" y="849.8" type="curve" smooth="yes"/>
      <point x="257.9" y="849.8"/>
      <point x="292.7" y="884.6"/>
      <point x="292.7" y="926.8" type="curve" smooth="yes"/>
      <point x="292.7" y="969.2"/>
      <point x="257.9" y="1002.0"/>
      <point x="215.7" y="1002.0" type="curve" smooth="yes"/>
      <point x="173.3" y="1002.0"/>
      <point x="140.5" y="969.2"/>
    </contour>
  </outline>
</glyph>
<glyph name="cent" format="2">
  <advance width="1160.0"/>
  <unicode hex="00A2"/>
  <outline>
    <contour>
      <point x="970.8" y="894.6" type="line"/>
      <point x="895.6" y="958.6"/>
      <point x="791.0" y="1001.8"/>
      <point x="656.8" y="1001.8" type="curve" smooth="yes"/>
      <point x="354.4" y="1001.8"/>
      <point x="178.2" y="796.6"/>
      <point x="178.2" y="493.0" type="curve" smooth="yes"/>
      <point x="178.2" y="174.6"/>
      <point x="360.2" y="-12.4"/>
      <point x="636.4" y="-12.4" type="curve" smooth="yes"/>
      <point x="803.4" y="-12.4"/>
      <point x="937.4" y="53.8"/>
      <point x="988.0" y="120.6" type="curve"/>
      <point x="975.8" y="135.4" type="line" smooth="yes"/>
      <point x="972.8" y="138.8"/>
      <point x="969.0" y="141.6"/>
      <point x="963.0" y="141.6" type="curve" smooth="yes"/>
      <point x="941.4" y="141.6"/>
      <point x="864.8" y="29.0"/>
      <point x="641.0" y="29.0" type="curve" smooth="yes"/>
      <point x="392.6" y="29.0"/>
      <point x="230.4" y="196.2"/>
      <point x="230.4" y="493.0" type="curve" smooth="yes"/>
      <point x="230.4" y="780.2"/>
      <point x="387.6" y="960.4"/>
      <point x="657.8" y="960.4" type="curve" smooth="yes"/>
      <point x="850.4" y="960.4"/>
      <point x="923.8" y="871.0"/>
      <point x="944.0" y="871.0" type="curve" smooth="yes"/>
      <point x="950.8" y="871.0"/>
      <point x="954.0" y="874.0"/>
      <point x="957.4" y="878.2" type="curve" smooth="yes"/>
    </contour>
    <contour>
      <point x="602.4" y="-262.0" type="line"/>
      <point x="622.8" y="-262.0" type="line" smooth="yes"/>
      <point x="634.6" y="-262.0"/>
      <point x="641.4" y="-252.8"/>
      <point x="641.8" y="-240.0" type="curve"/>
      <point x="701.0" y="1244.2" type="line"/>
      <point x="680.6" y="1244.2" type="line" smooth="yes"/>
      <point x="668.8" y="1244.2"/>
      <point x="662.0" y="1235.0"/>
      <point x="661.6" y="1222.2" type="curve"/>
    </contour>
  </outline>
</glyph>
<glyph name="sterling" format="2">
  <advance width="1160.0"/>
  <unicode hex="00A3"/>
  <outline>
    <contour>
      <point x="1092.3" y="46.400000000000006" type="line"/>
      <point x="248.3" y="46.400000000000006" type="line" smooth="yes"/>
      <point x="205.1" y="46.400000000000006"/>
      <point x="167.9" y="41.8"/>
      <point x="122.1" y="30.8" type="curve"/>
      <point x="92.7" y="39.2" type="line"/>
      <point x="92.7" y="0.0" type="line"/>
      <point x="1066.5" y="0.0" type="line" smooth="yes"/>
      <point x="1081.7" y="0.0"/>
      <point x="1092.3" y="12.600000000000001"/>
      <point x="1092.3" y="24.200000000000003" type="curve" smooth="yes"/>
    </contour>
    <contour>
      <point x="134.1" y="21.6" type="line"/>
      <point x="249.1" y="75.6"/>
      <point x="324.9" y="160.0"/>
      <point x="324.9" y="305.0" type="curve" smooth="yes"/>
      <point x="324.9" y="991.2" type="line" smooth="yes"/>
      <point x="324.9" y="1217.2"/>
      <point x="443.5" y="1375.8"/>
      <point x="670.3" y="1375.8" type="curve" smooth="yes"/>
      <point x="850.7" y="1375.8"/>
      <point x="917.3" y="1285.4"/>
      <point x="969.1" y="1194.0" type="curve"/>
      <point x="978.9" y="1180.2"/>
      <point x="987.9" y="1178.4"/>
      <point x="1000.7" y="1183.2" type="curve"/>
      <point x="1022.1" y="1193.2" type="line"/>
      <point x="967.7" y="1316.6"/>
      <point x="870.1" y="1420.2"/>
      <point x="670.3" y="1420.2" type="curve" smooth="yes"/>
      <point x="407.5" y="1420.2"/>
      <point x="271.5" y="1237.8"/>
      <point x="271.5" y="991.0" type="curve" smooth="yes"/>
      <point x="271.5" y="296.4" type="line" smooth="yes"/>
      <point x="271.5" y="148.2"/>
      <point x="186.1" y="78.6"/>
      <point x="92.7" y="39.2" type="curve"/>
    </contour>
    <contour>
      <point x="67.5" y="641.8" type="line"/>
      <point x="804.3" y="641.8" type="line" smooth="yes"/>
      <point x="814.7" y="641.8"/>
      <point x="823.7" y="649.4"/>
      <point x="823.7" y="658.8" type="curve" smooth="yes"/>
      <point x="823.7" y="680.2" type="line"/>
      <point x="90.3" y="680.2" type="line" smooth="yes"/>
      <point x="78.1" y="680.2"/>
      <point x="67.5" y="671.8"/>
      <point x="67.5" y="659.0" type="curve" smooth="yes"/>
    </contour>
  </outline>
</glyph>
<glyph name="currency" format="2">
  <advance width="1160"/>
  <unicode hex="00A4"/>
  <outline>
    <contour>
      <point x="245" y="670.4" type="curve" smooth="yes" name="n00"/>
      <point x="245" y="485.4"/>
      <point x="395" y="335.4"/>
      <point x="580" y="335.4" type="curve" smooth="yes" name="n03"/>
      <point x="766.6" y="335.4"/>
      <point x="916.8" y="485.4"/>
      <point x="916.8" y="670.4" type="curve" smooth="yes" name="n06"/>
      <point x="916.8" y="857.2"/>
      <point x="766.6" y="1007.2"/>
      <point x="580" y="1007.2" type="curve" smooth="yes" name="n09"/>
      <point x="395" y="1007.2"/>
      <point x="245" y="857.2"/>
    </contour>
    <contour>
      <point x="285.8" y="670.4" type="curve" smooth="yes" name="n12"/>
      <point x="285.8" y="833.8"/>
      <point x="418.6" y="966.6"/>
      <point x="580" y="966.6" type="curve" smooth="yes" name="n15"/>
      <point x="743.4" y="966.6"/>
      <point x="876.2" y="833.8"/>
      <point x="876.2" y="670.4" type="curve" smooth="yes" name="n18"/>
      <point x="876.2" y="509.2"/>
      <point x="743.4" y="376.2"/>
      <point x="580" y="376.2" type="curve" smooth="yes" name="n21"/>
      <point x="418.6" y="376.2"/>
      <point x="285.8" y="509.2"/>
    </contour>
    <contour>
      <point x="343" y="878.8" type="line"/>
      <point x="371.2" y="906.8" type="line"/>
      <point x="201" y="1077" type="line" name="n26"/>
      <point x="172.8" y="1049" type="line"/>
    </contour>
    <contour>
      <point x="788.4" y="907.4" type="line"/>
      <point x="816.4" y="879.2" type="line"/>
      <point x="986.6" y="1049.4" type="line"/>
      <point x="958.6" y="1077.6" type="line"/>
    </contour>
    <contour>
      <point x="371.8" y="433.4" type="line"/>
      <point x="343.6" y="461.6" type="line"/>
      <point x="173.4" y="291.4" type="line"/>
      <point x="201.4" y="263.2" type="line" name="n35"/>
    </contour>
    <contour>
      <point x="817" y="462.2" type="line"/>
      <point x="788.8" y="434" type="line"/>
      <point x="959" y="263.8" type="line"/>
      <point x="987.2" y="292" type="line"/>
    </contour>
  </outline>
</glyph>
<glyph name="yen" format="2">
  <advance width="1160"/>
  <unicode hex="00A5"/>
  <outline>
    <contour>
      <point x="1048.3" y="1406" type="line" name="n00"/>
      <point x="1004.3" y="1406" type="line" smooth="yes"/>
      <point x="993.3" y="1406"/>
      <point x="985.9" y="1400.4"/>
      <point x="980.7" y="1391.2" type="curve" smooth="yes"/>
      <point x="598.9" y="675.2" type="line"/>
      <point x="585.1" y="644.2"/>
      <point x="576.5" y="624.2"/>
      <point x="570.5" y="585.2" type="curve"/>
      <point x="604.3" y="585.2" type="line"/>
    </contour>
    <contour>
      <point x="555.7" y="585.2" type="line"/>
      <point x="590.3" y="585.2" type="line"/>
      <point x="584.5" y="624.4"/>
      <point x="575.3" y="644"/>
      <point x="561.3" y="675.2" type="curve"/>
      <point x="179.3" y="1391.2" type="line" smooth="yes"/>
      <point x="173.9" y="1401.2"/>
      <point x="166.7" y="1406"/>
      <point x="155.5" y="1406" type="curve" smooth="yes"/>
      <point x="111.7" y="1406" type="line"/>
    </contour>
    <contour>
      <point x="606.3" y="608.2" type="line" name="n20"/>
      <point x="553.7" y="608.2" type="line" name="n21"/>
      <point x="553.7" y="0" type="line" name="n22"/>
      <point x="606.3" y="0" type="line"/>
    </contour>
    <contour>
      <point x="174.5" y="417" type="line" name="n24"/>
      <point x="985.5" y="417" type="line"/>
      <point x="985.5" y="452.2" type="line"/>
      <point x="174.5" y="452.2" type="line" name="n27"/>
    </contour>
    <contour>
      <point x="174.5" y="576" type="line" name="n28"/>
      <point x="985.5" y="576" type="line"/>
      <point x="985.5" y="611.2" type="line"/>
      <point x="174.5" y="611.2" type="line" name="n31"/>
    </contour>
  </outline>
</glyph>
<glyph name="brokenbar" format="2">
  <advance width="470.4"/>
  <unicode hex="00A6"/>
  <outline>
    <contour>
      <point x="214.2" y="739.8" type="line"/>
      <point x="256.2" y="739.8" type="line"/>
      <point x="256.2" y="1507.8" type="line"/>
      <point x="214.2" y="1507.8" type="line"/>
    </contour>
    <contour>
      <point x="214.2" y="-356.8" type="line"/>
      <point x="256.2" y="-356.8" type="line"/>
      <point x="256.2" y="411.2" type="line"/>
      <point x="214.2" y="411.2" type="line"/>
    </contour>
  </outline>
</glyph>
<glyph name="section" format="2">
  <advance width="959.1"/>
  <unicode hex="00A7"/>
  <outline>
    <contour>
      <point x="371.8" y="975.0" type="line"/>
      <point x="191.4" y="924.6"/>
      <point x="123.8" y="831.4"/>
      <point x="123.8" y="722.4" type="curve" smooth="yes"/>
      <point x="123.8" y="407.0"/>
      <point x="743.4" y="446.4"/>
      <point x="743.4" y="155.6" type="curve" smooth="yes"/>
      <point x="743.4" y="16.6"/>
      <point x="642.8" y="-94.2"/>
      <point x="461.4" y="-94.2" type="curve" smooth="yes"/>
      <point x="273.8" y="-94.2"/>
      <point x="211.4" y="12.2"/>
      <point x="184.4" y="12.2" type="curve" smooth="yes"/>
      <point x="175.2" y="12.2"/>
      <point x="171.0" y="8.8"/>
      <point x="165.8" y="2.4000000000000004" type="curve" smooth="yes"/>
      <point x="153.2" y="-15.0" type="line"/>
      <point x="233.2" y="-87.0"/>
      <point x="318.6" y="-134.0"/>
      <point x="458.6" y="-134.0" type="curve" smooth="yes"/>
      <point x="668.8" y="-134.0"/>
      <point x="790.2" y="-2.1999999999999997"/>
      <point x="790.2" y="162.6" type="curve" smooth="yes"/>
      <point x="790.2" y="482.4"/>
      <point x="171.0" y="456.0"/>
      <point x="171.0" y="727.6" type="curve" smooth="yes"/>
      <point x="171.0" y="821.2"/>
      <point x="226.8" y="893.0"/>
      <point x="379.8" y="950.0" type="curve"/>
    </contour>
    <contour>
      <point x="786.2" y="1321.8" type="line"/>
      <point x="708.4" y="1390.8"/>
      <point x="623.2" y="1421.8"/>
      <point x="509.2" y="1421.8" type="curve" smooth="yes"/>
      <point x="321.6" y="1421.8"/>
      <point x="196.4" y="1300.2"/>
      <point x="196.4" y="1165.4" type="curve" smooth="yes"/>
      <point x="196.4" y="850.0"/>
      <point x="785.4" y="905.4"/>
      <point x="785.4" y="597.2" type="curve" smooth="yes"/>
      <point x="785.4" y="501.6"/>
      <point x="736.4" y="426.8"/>
      <point x="618.0" y="378.6" type="curve"/>
      <point x="630.2" y="353.2" type="line"/>
      <point x="758.8" y="396.4"/>
      <point x="832.2" y="482.6"/>
      <point x="832.2" y="606.2" type="curve" smooth="yes"/>
      <point x="832.2" y="940.2"/>
      <point x="243.6" y="899.6"/>
      <point x="243.6" y="1166.8" type="curve" smooth="yes"/>
      <point x="243.6" y="1280.0"/>
      <point x="350.8" y="1381.0"/>
      <point x="509.8" y="1381.0" type="curve" smooth="yes"/>
      <point x="679.2" y="1381.0"/>
      <point x="736.8" y="1296.0"/>
      <point x="760.6" y="1296.0" type="curve" smooth="yes"/>
      <point x="767.0" y="1296.0"/>
      <point x="772.2" y="1298.8"/>
      <point x="775.6" y="1305.0" type="curve"/>
    </contour>
  </outline>
</glyph>
<glyph name="dieresis" format="2">
  <advance width="800.0"/>
  <unicode hex="00A8"/>
  <anchor x="400.0" y="1120.0" name="_top"/>
  <anchor x="400.0" y="1405.7" name="top"/>
  <outline>
    <contour>
      <point x="297.6" y="1281.6" type="curve"/>
      <point x="297.6" y="1317.6"/>
      <point x="265.0" y="1348.4"/>
      <point x="230.8" y="1348.4" type="curve" smooth="yes"/>
      <point x="195.4" y="1348.4"/>
      <point x="164.6" y="1317.6"/>
      <point x="164.6" y="1281.6" type="curve" smooth="yes"/>
      <point x="164.6" y="1247.6"/>
      <point x="195.4" y="1217.2"/>
      <point x="230.8" y="1217.2" type="curve" smooth="yes"/>
      <point x="265.0" y="1217.2"/>
      <point x="297.6" y="1247.6"/>
    </contour>
    <contour>
      <point x="635.4" y="1281.6" type="curve" smooth="yes"/>
      <point x="635.4" y="1317.6"/>
      <point x="603.0" y="1348.4"/>
      <point x="568.8" y="1348.4" type="curve" smooth="yes"/>
      <point x="533.0" y="1348.4"/>
      <point x="502.4" y="1317.6"/>
      <point x="502.4" y="1281.6" type="curve" smooth="yes"/>
      <point x="502.4" y="1247.6"/>
      <point x="533.0" y="1217.2"/>
      <point x="568.8" y="1217.2" type="curve" smooth="yes"/>
      <point x="603.0" y="1217.2"/>
      <point x="635.4" y="1247.6"/>
    </contour>
  </outline>
</glyph>
<glyph name="copyright" format="2">
  <advance width="1692"/>
  <unicode hex="00A9"/>
  <outline>
    <contour>
      <point x="1155.5" y="400.6" type="curve"/>
      <point x="1076.5" y="337.6"/>
      <point x="1005.7" y="298"/>
      <point x="856.3" y="298" type="curve" smooth="yes" name="n03"/>
      <point x="633.3" y="298"/>
      <point x="469.1" y="448.4"/>
      <point x="469.1" y="703.4" type="curve" smooth="yes" name="n06"/>
      <point x="469.1" y="953.8"/>
      <point x="632.7" y="1110.6"/>
      <point x="871.1" y="1110.6" type="curve" smooth="yes" name="n09"/>
      <point x="1064.7" y="1110.6"/>
      <point x="1126.9" y="1022.2"/>
      <point x="1146.7" y="1022.2" type="curve" smooth="yes"/>
      <point x="1152.9" y="1022.2"/>
      <point x="1158.1" y="1024"/>
      <point x="1160.9" y="1028.8" type="curve"/>
      <point x="1172.7" y="1045.6" type="line"/>
      <point x="1088.5" y="1114.8"/>
      <point x="1007.1" y="1151.6"/>
      <point x="869.5" y="1151.6" type="curve" smooth="yes" name="n19"/>
      <point x="604.3" y="1151.6"/>
      <point x="420.1" y="970"/>
      <point x="420.1" y="703.4" type="curve" smooth="yes" name="n22"/>
      <point x="420.1" y="430.8"/>
      <point x="600.9" y="256.8"/>
      <point x="854.7" y="256.8" type="curve" smooth="yes" name="n25"/>
      <point x="1010.3" y="256.8"/>
      <point x="1108.7" y="307"/>
      <point x="1187.9" y="380.2" type="curve"/>
      <point x="1166.9" y="400.2" type="line"/>
      <point x="1164.1" y="401.4"/>
      <point x="1160.7" y="402.4"/>
    </contour>
    <contour>
      <point x="128.7" y="703" type="curve" smooth="yes" name="n32"/>
      <point x="128.7" y="307.4"/>
      <point x="450.1" y="-14"/>
      <point x="845.7" y="-14" type="curve" smooth="yes" name="n35"/>
      <point x="1241.5" y="-14"/>
      <point x="1562.9" y="307.4"/>
      <point x="1562.9" y="703" type="curve" smooth="yes" name="n38"/>
      <point x="1562.9" y="1098.8"/>
      <point x="1241.5" y="1420.2"/>
      <point x="845.7" y="1420.2" type="curve" smooth="yes" name="n41"/>
      <point x="450.1" y="1420.2"/>
      <point x="128.7" y="1098.8"/>
    </contour>
    <contour>
      <point x="166.9" y="703" type="curve" smooth="yes" name="n44"/>
      <point x="166.9" y="1080.6"/>
      <point x="469.3" y="1386.2"/>
      <point x="845.7" y="1386.2" type="curve" smooth="yes" name="n47"/>
      <point x="1222.3" y="1386.2"/>
      <point x="1526.9" y="1080.6"/>
      <point x="1526.9" y="703" type="curve" smooth="yes" name="n50"/>
      <point x="1526.9" y="325.6"/>
      <point x="1222.3" y="22.2"/>
      <point x="845.7" y="22.2" type="curve" smooth="yes" name="n53"/>
      <point x="469.3" y="22.2"/>
      <point x="166.9" y="325.6"/>
    </contour>
  </outline>
</glyph>
<glyph name="ordfeminine" format="2">
  <advance width="735.8"/>
  <unicode hex="00AA"/>
  <anchor x="367.9" y="-70.0" name="bottom"/>
  <outline>
    <contour>
      <point x="570.6" y="1212.0" type="line"/>
      <point x="570.6" y="1339.6"/>
      <point x="506.4" y="1419.0"/>
      <point x="377.2" y="1419.0" type="curve" smooth="yes"/>
      <point x="292.4" y="1419.0"/>
      <point x="228.6" y="1389.0"/>
      <point x="168.6" y="1328.0" type="curve"/>
      <point x="176.0" y="1315.4" type="line"/>
      <point x="179.2" y="1311.6"/>
      <point x="183.0" y="1307.6"/>
      <point x="189.6" y="1307.6" type="curve" smooth="yes"/>
      <point x="210.6" y="1307.6"/>
      <point x="253.0" y="1383.2"/>
      <point x="374.4" y="1383.2" type="curve" smooth="yes"/>
      <point x="481.4" y="1383.2"/>
      <point x="529.2" y="1322.2"/>
      <point x="529.2" y="1212.0" type="curve"/>
    </contour>
    <contour>
      <point x="570.6" y="838.4" type="line"/>
      <point x="570.6" y="1212.0" type="line"/>
      <point x="529.2" y="1212.0" type="line"/>
      <point x="529.2" y="945.2" type="line"/>
      <point x="536.6" y="851.8" type="line"/>
      <point x="540.2" y="841.0"/>
      <point x="543.6" y="838.4"/>
      <point x="553.0" y="838.4" type="curve" smooth="yes"/>
    </contour>
    <contour>
      <point x="541.6" y="942.8" type="curve"/>
      <point x="533.8" y="971.2" type="line"/>
      <point x="473.4" y="912.0"/>
      <point x="409.2" y="861.8"/>
      <point x="305.6" y="861.8" type="curve" smooth="yes"/>
      <point x="240.4" y="861.8"/>
      <point x="176.0" y="895.0"/>
      <point x="176.0" y="977.0" type="curve" smooth="yes"/>
      <point x="176.0" y="1062.8"/>
      <point x="288.4" y="1114.4"/>
      <point x="534.2" y="1121.6" type="curve"/>
      <point x="531.2" y="1153.0" type="line"/>
      <point x="251.8" y="1148.8"/>
      <point x="135.0" y="1074.4"/>
      <point x="135.0" y="974.2" type="curve" smooth="yes"/>
      <point x="135.0" y="871.2"/>
      <point x="216.2" y="828.6"/>
      <point x="296.6" y="828.6" type="curve" smooth="yes"/>
      <point x="403.4" y="828.6"/>
      <point x="469.2" y="871.4"/>
    </contour>
  </outline>
</glyph>
<glyph name="logicalnot" format="2">
  <advance width="1160"/>
  <unicode hex="00AC"/>
  <outline>
    <contour>
      <point x="176.5" y="649.6" type="line" name="n00"/>
      <point x="989.3" y="649.6" type="line"/>
      <point x="989.3" y="690.8" type="line"/>
      <point x="176.5" y="690.8" type="line" name="n03"/>
    </contour>
    <contour>
      <point x="943.3" y="351.8" type="line" name="n04"/>
      <point x="989.3" y="351.8" type="line" name="n05"/>
      <point x="989.3" y="690.8" type="line"/>
      <point x="943.3" y="690.8" type="line"/>
    </contour>
  </outline>
</glyph>
<glyph name="registered" format="2">
  <advance width="1691.6"/>
  <unicode hex="00AE"/>
  <outline>
    <contour>
      <point x="768.7" y="673.4" type="line" smooth="yes"/>
      <point x="806.1" y="673.4"/>
      <point x="818.3" y="663.4"/>
      <point x="828.7" y="650.4" type="curve" smooth="yes"/>
      <point x="1134.9" y="273.4" type="line"/>
      <point x="1141.7" y="263.6"/>
      <point x="1147.9" y="262.2"/>
      <point x="1156.9" y="262.2" type="curve" smooth="yes"/>
      <point x="1200.7" y="262.2" type="line"/>
      <point x="886.3" y="648.4" type="line" smooth="yes"/>
      <point x="862.7" y="679.6"/>
      <point x="841.9" y="691.2"/>
      <point x="792.1" y="691.2" type="curve"/>
      <point x="793.3" y="678.4" type="line"/>
      <point x="811.9" y="678.4" type="line" smooth="yes"/>
      <point x="996.1" y="678.4"/>
      <point x="1116.3" y="771.8"/>
      <point x="1116.3" y="919.4" type="curve" smooth="yes"/>
      <point x="1116.3" y="1071.6"/>
      <point x="1011.3" y="1144.4"/>
      <point x="820.7" y="1144.4" type="curve" smooth="yes"/>
      <point x="594.7" y="1144.4" type="line"/>
      <point x="594.7" y="262.2" type="line"/>
      <point x="643.1" y="262.2" type="line"/>
      <point x="643.1" y="1106.0" type="line"/>
      <point x="820.7" y="1106.0" type="line" smooth="yes"/>
      <point x="988.1" y="1106.0"/>
      <point x="1068.3" y="1048.4"/>
      <point x="1068.3" y="915.8" type="curve" smooth="yes"/>
      <point x="1068.3" y="784.6"/>
      <point x="975.5" y="710.6"/>
      <point x="807.9" y="710.6" type="curve" smooth="yes"/>
      <point x="621.7" y="710.6" type="line"/>
      <point x="620.9" y="673.4" type="line"/>
    </contour>
    <contour>
      <point x="128.7" y="703.0" type="curve" smooth="yes"/>
      <point x="128.7" y="307.4"/>
      <point x="450.1" y="-14.0"/>
      <point x="845.7" y="-14.0" type="curve" smooth="yes"/>
      <point x="1241.5" y="-14.0"/>
      <point x="1562.9" y="307.4"/>
      <point x="1562.9" y="703.0" type="curve" smooth="yes"/>
      <point x="1562.9" y="1098.8"/>
      <point x="1241.5" y="1420.2"/>
      <point x="845.7" y="1420.2" type="curve" smooth="yes"/>
      <point x="450.1" y="1420.2"/>
      <point x="128.7" y="1098.8"/>
    </contour>
    <contour>
      <point x="166.9" y="703.0" type="curve" smooth="yes"/>
      <point x="166.9" y="1080.6"/>
      <point x="469.3" y="1386.2"/>
      <point x="845.7" y="1386.2" type="curve" smooth="yes"/>
      <point x="1222.3" y="1386.2"/>
      <point x="1526.9" y="1080.6"/>
      <point x="1526.9" y="703.0" type="curve" smooth="yes"/>
      <point x="1526.9" y="325.6"/>
      <point x="1222.3" y="22.200000000000003"/>
      <point x="845.7" y="22.200000000000003" type="curve" smooth="yes"/>
      <point x="469.3" y="22.200000000000003"/>
      <point x="166.9" y="325.6"/>
    </contour>
  </outline>
</glyph>
<glyph name="macron" format="2">
  <advance width="800.0"/>
  <unicode hex="00AF"/>
  <unicode hex="02C9"/>
  <anchor x="400.0" y="1120.0" name="_top"/>
  <outline>
    <contour>
      <point x="135.0" y="1262.8" type="line"/>
      <point x="665.0" y="1262.8" type="line"/>
      <point x="665.0" y="1300.6" type="line"/>
      <point x="135.0" y="1300.6" type="line"/>
    </contour>
  </outline>
</glyph>
<glyph name="degree" format="2">
  <advance width="826.6"/>
  <unicode hex="00B0"/>
  <outline>
    <contour>
      <point x="124.8" y="1137.8" type="curve" smooth="yes"/>
      <point x="124.8" y="979.8"/>
      <point x="252.2" y="851.8"/>
      <point x="413.2" y="851.8" type="curve" smooth="yes"/>
      <point x="574.2" y="851.8"/>
      <point x="701.8" y="979.8"/>
      <point x="701.8" y="1137.8" type="curve" smooth="yes"/>
      <point x="701.8" y="1296.4"/>
      <point x="574.2" y="1422.2"/>
      <point x="413.2" y="1422.2" type="curve" smooth="yes"/>
      <point x="252.2" y="1422.2"/>
      <point x="124.8" y="1296.4"/>
    </contour>
    <contour>
      <point x="167.8" y="1137.6" type="curve" smooth="yes"/>
      <point x="167.8" y="1274.2"/>
      <point x="276.6" y="1383.6"/>
      <point x="413.2" y="1383.6" type="curve" smooth="yes"/>
      <point x="549.8" y="1383.6"/>
      <point x="658.6" y="1274.2"/>
      <point x="658.6" y="1137.6" type="curve" smooth="yes"/>
      <point x="658.6" y="1001.2"/>
      <point x="549.8" y="892.0"/>
      <point x="413.2" y="892.0" type="curve" smooth="yes"/>
      <point x="276.6" y="892.0"/>
      <point x="167.8" y="1001.2"/>
    </contour>
  </outline>
</glyph>
<glyph name="plusminus" format="2">
  <advance width="1160"/>
  <unicode hex="00B1"/>
  <outline>
    <contour>
      <point x="115.6" y="665.6" type="line" name="n00"/>
      <point x="1044.4" y="665.6" type="line"/>
      <point x="1044.4" y="706.8" type="line"/>
      <point x="115.6" y="706.8" type="line" name="n03"/>
    </contour>
    <contour>
      <point x="557.4" y="1127" type="line" name="n04"/>
      <point x="557.4" y="245.4" type="line"/>
      <point x="600.6" y="245.4" type="line"/>
      <point x="600.6" y="1127" type="line" name="n07"/>
    </contour>
    <contour>
      <point x="115.6" y="80" type="line" name="n08"/>
      <point x="1044.4" y="80" type="line"/>
      <point x="1044.4" y="121.2" type="line"/>
      <point x="115.6" y="121.2" type="line" name="n11"/>
    </contour>
  </outline>
</glyph>
<glyph name="acute" format="2">
  <advance width="800"/>
  <unicode hex="00B4"/>
  <anchor x="400" y="1120" name="_top"/>
  <outline>
    <contour>
      <point x="537.4" y="1422" type="line" smooth="yes" name="n00"/>
      <point x="511.4" y="1422"/>
      <point x="501.6" y="1416.2"/>
      <point x="488.6" y="1396" type="curve" smooth="yes"/>
      <point x="327.4" y="1159" type="line" name="n04"/>
      <point x="358.6" y="1159" type="line" smooth="yes"/>
      <point x="368.6" y="1159"/>
      <point x="376.4" y="1162"/>
      <point x="383" y="1170.6" type="curve"/>
      <point x="590.8" y="1422" type="line"/>
    </contour>
  </outline>
</glyph>
<glyph name="micro" format="2">
  <advance width="1259.0"/>
  <unicode hex="00B5"/>
  <anchor x="585.0" y="1120.0" name="top"/>
  <anchor x="675.4" y="-421.0" name="bottom"/>
  <outline>
    <contour>
      <point x="209.4" y="986.0" type="line"/>
      <point x="209.4" y="-333.0" type="line" smooth="yes"/>
      <point x="209.4" y="-346.8"/>
      <point x="218.0" y="-356.8"/>
      <point x="233.8" y="-356.8" type="curve" smooth="yes"/>
      <point x="260.0" y="-356.8" type="line"/>
      <point x="260.0" y="-3.6000000000000014" type="line" smooth="yes"/>
      <point x="260.0" y="67.8"/>
      <point x="257.0" y="171.0"/>
      <point x="250.6" y="240.4" type="curve"/>
      <point x="262.0" y="264.8" type="line"/>
      <point x="262.0" y="986.0" type="line"/>
    </contour>
    <contour>
      <point x="229.6" y="360.8" type="line"/>
      <point x="229.6" y="126.0"/>
      <point x="326.9" y="-12.0"/>
      <point x="543.8" y="-12.0" type="curve" smooth="yes"/>
      <point x="702.2" y="-12.0"/>
      <point x="839.6" y="80.5"/>
      <point x="929.9" y="227.8" type="curve"/>
      <point x="916.9" y="266.2" type="line"/>
      <point x="825.9" y="119.0"/>
      <point x="697.1" y="31.400000000000002"/>
      <point x="545.8" y="31.400000000000002" type="curve" smooth="yes"/>
      <point x="353.2" y="31.400000000000002"/>
      <point x="262.0" y="155.0"/>
      <point x="262.0" y="360.8" type="curve"/>
    </contour>
    <contour>
      <point x="907.9" y="231.4" type="line"/>
      <point x="912.7" y="219.5" type="line"/>
      <point x="912.9" y="58.4"/>
      <point x="1013.7" y="-8.3"/>
      <point x="1128.4" y="-8.3" type="curve" smooth="yes"/>
      <point x="1167.8" y="-8.3"/>
      <point x="1186.6" y="1.4000000000000004"/>
      <point x="1186.6" y="11.200000000000001" type="curve" smooth="yes"/>
      <point x="1186.6" y="32.6" type="line"/>
      <point x="1152.9" y="32.6" type="line" smooth="yes"/>
      <point x="1039.7" y="32.6"/>
      <point x="960.5" y="89.4"/>
      <point x="960.5" y="219.4" type="curve" smooth="yes"/>
      <point x="960.5" y="986.0" type="line"/>
      <point x="907.9" y="986.0" type="line"/>
    </contour>
  </outline>
</glyph>
<glyph name="paragraph" format="2">
  <advance width="1268.2"/>
  <unicode hex="00B6"/>
  <outline>
    <contour>
      <point x="567.0" y="1406.0" type="line"/>
      <point x="518.4" y="1406.0" type="line"/>
      <point x="518.4" y="-183.8" type="line"/>
      <point x="567.0" y="-183.8" type="line"/>
    </contour>
    <contour>
      <point x="518.4" y="1406.0" type="line"/>
      <point x="244.0" y="1406.0"/>
      <point x="79.8" y="1276.4"/>
      <point x="79.8" y="1071.0" type="curve" smooth="yes"/>
      <point x="79.8" y="869.8"/>
      <point x="244.0" y="718.8"/>
      <point x="518.4" y="718.8" type="curve"/>
      <point x="538.6" y="1360.0" type="line"/>
      <point x="1198.0" y="1360.0" type="line"/>
      <point x="1198.0" y="1406.0" type="line"/>
    </contour>
    <contour>
      <point x="970.0" y="1406.0" type="line"/>
      <point x="921.4" y="1406.0" type="line"/>
      <point x="921.4" y="-183.8" type="line"/>
      <point x="970.0" y="-183.8" type="line"/>
    </contour>
  </outline>
</glyph>
<glyph name="periodcentered" format="2">
  <advance width="466.2"/>
  <unicode hex="00B7"/>
  <unicode hex="2219"/>
  <outline>
    <contour>
      <point x="156.6" y="590.6" type="curve" smooth="yes"/>
      <point x="156.6" y="551.2"/>
      <point x="191.8" y="516.0"/>
      <point x="231.2" y="516.0" type="curve" smooth="yes"/>
      <point x="274.4" y="516.0"/>
      <point x="309.6" y="551.2"/>
      <point x="309.6" y="590.6" type="curve" smooth="yes"/>
      <point x="309.6" y="633.8"/>
      <point x="274.4" y="669.0"/>
      <point x="231.2" y="669.0" type="curve" smooth="yes"/>
      <point x="191.8" y="669.0"/>
      <point x="156.6" y="633.8"/>
    </contour>
  </outline>
</glyph>
<glyph name="cedilla" format="2">
  <advance width="800"/>
  <unicode hex="00B8"/>
  <anchor x="400" y="-70" name="_bottom"/>
  <outline>
    <contour>
      <point x="285.3" y="-288" type="curve" smooth="yes"/>
      <point x="279.7" y="-288"/>
      <point x="276.9" y="-290.8"/>
      <point x="272.9" y="-296.2" type="curve"/>
      <point x="266.5" y="-309.6" type="line"/>
      <point x="298.5" y="-337.6"/>
      <point x="356.9" y="-357.8"/>
      <point x="410.9" y="-357.8" type="curve" smooth="yes" name="n07"/>
      <point x="507.9" y="-357.8"/>
      <point x="578.1" y="-312.2"/>
      <point x="578.1" y="-234.4" type="curve" smooth="yes" name="n10"/>
      <point x="578.1" y="-149.2"/>
      <point x="499.1" y="-119.2"/>
      <point x="371.9" y="-100.4" type="curve"/>
      <point x="387.7" y="-111.8" type="line"/>
      <point x="423.8" y="4.6" type="line" name="n15"/>
      <point x="390.4" y="4.6" type="line"/>
      <point x="347.9" y="-128" type="line"/>
      <point x="453.1" y="-140.2"/>
      <point x="534.1" y="-159.2"/>
      <point x="534.1" y="-235.6" type="curve" smooth="yes" name="n20"/>
      <point x="534.1" y="-292.6"/>
      <point x="489.5" y="-328.2"/>
      <point x="414.1" y="-328.2" type="curve" smooth="yes" name="n23"/>
      <point x="328.5" y="-328.2"/>
      <point x="298.1" y="-288"/>
    </contour>
  </outline>
</glyph>
<glyph name="ordmasculine" format="2">
  <advance width="810.6"/>
  <unicode hex="00BA"/>
  <anchor x="405.3" y="-70.0" name="bottom"/>
  <outline>
    <contour>
      <point x="406.4" y="1418.8" type="curve" smooth="yes"/>
      <point x="231.4" y="1418.8"/>
      <point x="130.6" y="1302.2"/>
      <point x="130.6" y="1122.0" type="curve" smooth="yes"/>
      <point x="130.6" y="941.4"/>
      <point x="231.4" y="826.4"/>
      <point x="406.4" y="826.4" type="curve" smooth="yes"/>
      <point x="579.4" y="826.4"/>
      <point x="680.0" y="941.4"/>
      <point x="680.0" y="1122.0" type="curve" smooth="yes"/>
      <point x="680.0" y="1302.2"/>
      <point x="579.4" y="1418.8"/>
    </contour>
    <contour>
      <point x="406.4" y="859.0" type="curve" smooth="yes"/>
      <point x="251.4" y="859.0"/>
      <point x="172.8" y="962.0"/>
      <point x="172.8" y="1121.8" type="curve" smooth="yes"/>
      <point x="172.8" y="1281.6"/>
      <point x="251.4" y="1386.2"/>
      <point x="406.4" y="1386.2" type="curve" smooth="yes"/>
      <point x="559.0" y="1386.2"/>
      <point x="637.8" y="1281.6"/>
      <point x="637.8" y="1121.8" type="curve" smooth="yes"/>
      <point x="637.8" y="962.0"/>
      <point x="559.0" y="859.0"/>
    </contour>
  </outline>
</glyph>
<glyph name="questiondown" format="2">
  <advance width="825.5"/>
  <unicode hex="00BF"/>
  <outline>
    <contour>
      <point x="723.6" y="-209.6" type="line"/>
      <point x="720.4" y="-205.2"/>
      <point x="716.4" y="-202.2"/>
      <point x="710.0" y="-202.2" type="curve"/>
      <point x="696.0" y="-202.2"/>
      <point x="610.8" y="-324.2"/>
      <point x="427.6" y="-324.2" type="curve" smooth="yes"/>
      <point x="281.6" y="-324.2"/>
      <point x="146.4" y="-231.0"/>
      <point x="146.4" y="-74.2" type="curve"/>
      <point x="146.4" y="209.8"/>
      <point x="478.4" y="216.8"/>
      <point x="475.4" y="379.0" type="curve" smooth="yes"/>
      <point x="473.2" y="551.6" type="line"/>
      <point x="437.6" y="551.6" type="line"/>
      <point x="429.4" y="383.0" type="line"/>
      <point x="423.0" y="241.0"/>
      <point x="96.0" y="225.4"/>
      <point x="96.0" y="-77.0" type="curve" smooth="yes"/>
      <point x="96.0" y="-258.8"/>
      <point x="252.2" y="-367.4"/>
      <point x="424.8" y="-367.4" type="curve" smooth="yes"/>
      <point x="568.6" y="-367.4"/>
      <point x="669.6" y="-299.6"/>
      <point x="737.2" y="-230.0" type="curve"/>
    </contour>
    <component base="period" xOffset="224.2" yOffset="865.6"/>
  </outline>
</glyph>
<glyph name="AE" format="2">
  <advance width="1852"/>
  <unicode hex="00C6"/>
  <anchor x="1269.7" y="1498.9" name="Top"/>
  <anchor x="833.4" y="-70" name="bottom"/>
  <anchor x="1269.7" y="1498.9" name="top"/>
  <outline>
    <contour>
      <point x="19.2" y="0" type="line"/>
      <point x="62.8" y="0" type="line" smooth="yes"/>
      <point x="74.2" y="0"/>
      <point x="82.3" y="4.9"/>
      <point x="87.1" y="14.8" type="curve"/>
      <point x="809.2" y="1292.4" type="line"/>
      <point x="828.8" y="1329.2"/>
      <point x="841.6" y="1359.6"/>
      <point x="850.4" y="1406" type="curve"/>
      <point x="814.4" y="1406" type="line"/>
    </contour>
    <contour>
      <point x="317.6" y="462.2" type="line" name="n10"/>
      <point x="986.6" y="462.2" type="line"/>
      <point x="986.6" y="504.2" type="line"/>
      <point x="317.6" y="504.2" type="line" name="n13"/>
    </contour>
    <contour>
      <point x="885.8" y="1406" type="line"/>
      <point x="834" y="1406" type="line"/>
      <point x="1015.4" y="0" type="line"/>
      <point x="1067.2" y="0" type="line"/>
    </contour>
    <contour>
      <point x="957" y="736.2" type="line" name="n18"/>
      <point x="957" y="690.2" type="line" name="n19"/>
      <point x="1619.8" y="690.2" type="line"/>
      <point x="1619.8" y="736.2" type="line"/>
    </contour>
    <contour>
      <point x="872" y="1406" type="line" name="n22"/>
      <point x="872" y="1359" type="line" name="n23"/>
      <point x="1741.8" y="1359" type="line"/>
      <point x="1741.8" y="1406" type="line"/>
    </contour>
    <contour>
      <point x="1047" y="47" type="line" name="n26"/>
      <point x="1047" y="0" type="line" name="n27"/>
      <point x="1741.8" y="0" type="line"/>
      <point x="1743.6" y="47" type="line"/>
    </contour>
  </outline>
</glyph>
<glyph name="Eth" format="2">
  <advance width="1531.3"/>
  <unicode hex="00D0"/>
  <anchor x="639.3" y="1498.9" name="Top"/>
  <anchor x="639.3" y="1498.9" name="top"/>
  <anchor x="602.6" y="-70.0" name="bottom"/>
  <outline>
    <contour>
      <point x="1400.3" y="703.0" type="curve" smooth="yes"/>
      <point x="1400.3" y="1142.6"/>
      <point x="1132.5" y="1406.0"/>
      <point x="741.5" y="1406.0" type="curve"/>
      <point x="234.9" y="1406.0" type="line"/>
      <point x="234.9" y="0.0" type="line"/>
      <point x="741.5" y="0.0" type="line"/>
      <point x="1132.5" y="0.0"/>
      <point x="1400.3" y="263.2"/>
    </contour>
    <contour>
      <point x="1342.3" y="703.0" type="curve" smooth="yes"/>
      <point x="1342.3" y="284.0"/>
      <point x="1098.5" y="45.2"/>
      <point x="741.5" y="45.2" type="curve"/>
      <point x="290.5" y="45.2" type="line"/>
      <point x="290.5" y="1360.8" type="line"/>
      <point x="741.5" y="1360.8" type="line"/>
      <point x="1098.5" y="1360.8"/>
      <point x="1342.3" y="1121.8"/>
    </contour>
    <contour>
      <point x="9.5" y="695.4" type="line"/>
      <point x="624.5" y="695.4" type="line"/>
      <point x="624.5" y="732.6" type="line"/>
      <point x="9.5" y="732.6" type="line"/>
    </contour>
  </outline>
</glyph>
<glyph name="multiply" format="2">
  <advance width="1160"/>
  <unicode hex="00D7"/>
  <outline>
    <contour>
      <point x="170.3" y="1050.2" type="line"/>
      <point x="962.9" y="259.4" type="line"/>
      <point x="991.9" y="288.4" type="line"/>
      <point x="200.9" y="1081" type="line" name="n03"/>
    </contour>
    <contour>
      <point x="959.1" y="1079" type="line"/>
      <point x="168.3" y="286.4" type="line"/>
      <point x="197.3" y="257.4" type="line" name="n06"/>
      <point x="989.9" y="1048.2" type="line"/>
    </contour>
  </outline>
</glyph>
<glyph name="Oslash" format="2">
  <advance width="1574"/>
  <unicode hex="00D8"/>
  <anchor x="795.1" y="1498.9" name="Top"/>
  <anchor x="661.2" y="-70" name="bottom"/>
  <anchor x="795.1" y="1498.9" name="top"/>
  <outline>
    <contour>
      <point x="1394.8" y="1470.2" type="line" name="n00"/>
      <point x="1363.2" y="1470.2" type="line" smooth="yes"/>
      <point x="1347" y="1470.2"/>
      <point x="1341.2" y="1464.4"/>
      <point x="1331.4" y="1451.2" type="curve" smooth="yes"/>
      <point x="169.8" y="-103.2" type="line" name="n05"/>
      <point x="195.6" y="-103.2" type="line" smooth="yes"/>
      <point x="209.2" y="-103.2"/>
      <point x="223.6" y="-97.2"/>
      <point x="233.8" y="-83.4" type="curve" smooth="yes"/>
    </contour>
    <contour>
      <point x="1445" y="703" type="curve" smooth="yes" name="n10"/>
      <point x="1445" y="1142.6"/>
      <point x="1177.2" y="1422"/>
      <point x="786.2" y="1422" type="curve" smooth="yes" name="n13"/>
      <point x="398.8" y="1422"/>
      <point x="129" y="1141"/>
      <point x="129" y="703" type="curve" smooth="yes" name="n16"/>
      <point x="129" y="263.2"/>
      <point x="398.8" y="-14.2"/>
      <point x="786.2" y="-14.2" type="curve" smooth="yes" name="n19"/>
      <point x="1177.2" y="-14.2"/>
      <point x="1445" y="263.2"/>
    </contour>
    <contour>
      <point x="1387" y="703" type="curve" smooth="yes" name="n22"/>
      <point x="1387" y="284"/>
      <point x="1143.2" y="33"/>
      <point x="786.2" y="33" type="curve" smooth="yes" name="n25"/>
      <point x="434.4" y="33"/>
      <point x="185.2" y="284"/>
      <point x="185.2" y="703" type="curve" smooth="yes" name="n28"/>
      <point x="185.2" y="1121.8"/>
      <point x="434.4" y="1374.8"/>
      <point x="786.2" y="1374.8" type="curve" smooth="yes" name="n31"/>
      <point x="1143.2" y="1374.8"/>
      <point x="1387" y="1121.8"/>
    </contour>
  </outline>
</glyph>
<glyph name="Thorn" format="2">
  <advance width="1133.4"/>
  <unicode hex="00DE"/>
  <anchor x="348.5" y="1498.9" name="Top"/>
  <anchor x="348.5" y="1498.9" name="top"/>
  <anchor x="250.6" y="-70.0" name="bottom"/>
  <outline>
    <contour>
      <point x="255.1" y="293.2" type="line"/>
      <point x="558.7" y="293.2" type="line" smooth="yes"/>
      <point x="850.9" y="293.2"/>
      <point x="1043.9" y="464.8"/>
      <point x="1043.9" y="703.0" type="curve" smooth="yes"/>
      <point x="1043.9" y="973.0"/>
      <point x="875.1" y="1111.0"/>
      <point x="558.7" y="1111.0" type="curve" smooth="yes"/>
      <point x="278.3" y="1111.0" type="line"/>
      <point x="278.3" y="1406.0" type="line"/>
      <point x="222.9" y="1406.0" type="line"/>
      <point x="222.9" y="0.0" type="line"/>
      <point x="278.3" y="0.0" type="line"/>
      <point x="278.3" y="1066.6" type="line"/>
      <point x="558.7" y="1066.6" type="line" smooth="yes"/>
      <point x="843.9" y="1066.6"/>
      <point x="988.5" y="939.0"/>
      <point x="988.5" y="703.0" type="curve" smooth="yes"/>
      <point x="988.5" y="497.4"/>
      <point x="822.9" y="337.8"/>
      <point x="558.7" y="337.8" type="curve" smooth="yes"/>
      <point x="259.7" y="337.8" type="line"/>
    </contour>
  </outline>
</glyph>
<glyph name="germandbls" format="2">
  <advance width="1079"/>
  <unicode hex="00DF"/>
  <anchor x="570" y="1498.9" name="Top"/>
  <anchor x="517.2" y="-70" name="bottom"/>
  <anchor x="570" y="1498.9" name="top"/>
  <outline>
    <contour>
      <point x="595.4" y="1421.4" type="curve" smooth="yes" name="n00"/>
      <point x="356.8" y="1421.4"/>
      <point x="176" y="1273"/>
      <point x="176" y="1006.6" type="curve" smooth="yes" name="n03"/>
      <point x="176" y="0" type="line" name="n04"/>
      <point x="228.6" y="0" type="line"/>
      <point x="228.6" y="1005.6" type="line" smooth="yes" name="n06"/>
      <point x="228.6" y="1270.6"/>
      <point x="400.8" y="1380.8"/>
      <point x="594" y="1380.8" type="curve" smooth="yes" name="n09"/>
      <point x="804.6" y="1380.8"/>
      <point x="876.8" y="1239"/>
      <point x="876.8" y="1158" type="curve" smooth="yes" name="n12"/>
      <point x="876.8" y="916.8"/>
      <point x="538.8" y="883.6"/>
      <point x="538.8" y="699" type="curve" smooth="yes" name="n15"/>
      <point x="538.8" y="454.6"/>
      <point x="944.6" y="567.2"/>
      <point x="944.6" y="274.6" type="curve" smooth="yes" name="n18"/>
      <point x="944.6" y="135.6"/>
      <point x="844.8" y="23.8"/>
      <point x="666.8" y="23.8" type="curve" smooth="yes" name="n21"/>
      <point x="484" y="23.8"/>
      <point x="421" y="130.2"/>
      <point x="394" y="130.2" type="curve" smooth="yes"/>
      <point x="384.8" y="130.2"/>
      <point x="380.6" y="126.8"/>
      <point x="375.4" y="120.4" type="curve"/>
      <point x="362.8" y="103" type="line"/>
      <point x="442.8" y="31"/>
      <point x="526.2" y="-16"/>
      <point x="664" y="-16" type="curve" smooth="yes" name="n31"/>
      <point x="867.4" y="-16"/>
      <point x="993.4" y="112.8"/>
      <point x="993.4" y="281.4" type="curve" smooth="yes" name="n34"/>
      <point x="993.4" y="598"/>
      <point x="591.2" y="498.4"/>
      <point x="591.2" y="705.4" type="curve" smooth="yes" name="n37"/>
      <point x="591.2" y="864.8"/>
      <point x="925" y="902"/>
      <point x="925" y="1156.4" type="curve" smooth="yes" name="n40"/>
      <point x="925" y="1288.8"/>
      <point x="799.4" y="1421.4"/>
    </contour>
  </outline>
</glyph>
<glyph name="ae" format="2">
  <advance width="1592.9"/>
  <unicode hex="00E6"/>
  <anchor x="776.2" y="1120.0" name="top"/>
  <anchor x="710.6" y="-70.0" name="bottom"/>
  <outline>
    <contour>
      <point x="1138.8" y="1002.0" type="curve" smooth="yes"/>
      <point x="889.0" y="1002.0"/>
      <point x="747.0" y="800.2"/>
      <point x="747.0" y="513.2" type="curve" smooth="yes"/>
      <point x="747.0" y="178.2"/>
      <point x="898.8" y="-12.4"/>
      <point x="1141.6" y="-12.4" type="curve" smooth="yes"/>
      <point x="1279.6" y="-12.4"/>
      <point x="1413.6" y="55.4"/>
      <point x="1462.4" y="120.8" type="curve"/>
      <point x="1450.4" y="135.2" type="line" smooth="yes"/>
      <point x="1447.4" y="138.8"/>
      <point x="1443.6" y="141.6"/>
      <point x="1437.0" y="141.6" type="curve" smooth="yes"/>
      <point x="1419.4" y="141.6"/>
      <point x="1337.0" y="29.8"/>
      <point x="1144.6" y="29.8" type="curve" smooth="yes"/>
      <point x="930.2" y="29.8"/>
      <point x="788.0" y="199.2"/>
      <point x="788.0" y="513.2" type="curve" smooth="yes"/>
      <point x="788.0" y="780.2"/>
      <point x="914.8" y="961.6"/>
      <point x="1139.2" y="961.6" type="curve" smooth="yes"/>
      <point x="1308.4" y="961.6"/>
      <point x="1440.4" y="824.0"/>
      <point x="1440.4" y="568.4" type="curve"/>
      <point x="778.2" y="568.4" type="line"/>
      <point x="777.0" y="533.4" type="line"/>
      <point x="1470.2" y="533.4" type="line" smooth="yes"/>
      <point x="1481.2" y="533.4"/>
      <point x="1486.0" y="539.4"/>
      <point x="1486.0" y="554.4" type="curve" smooth="yes"/>
      <point x="1486.0" y="847.4"/>
      <point x="1330.8" y="1002.0"/>
    </contour>
    <contour>
      <point x="776.4" y="376.0" type="line"/>
      <point x="778.4" y="648.0" type="line" smooth="yes"/>
      <point x="778.4" y="866.2"/>
      <point x="685.4" y="1002.4"/>
      <point x="486.0" y="1002.4" type="curve" smooth="yes"/>
      <point x="347.4" y="1002.4"/>
      <point x="247.6" y="948.4"/>
      <point x="148.8" y="845.6" type="curve"/>
      <point x="158.0" y="831.8" type="line" smooth="yes"/>
      <point x="163.4" y="825.2"/>
      <point x="168.2" y="820.8"/>
      <point x="176.0" y="820.8" type="curve" smooth="yes"/>
      <point x="205.4" y="820.8"/>
      <point x="283.6" y="960.6"/>
      <point x="485.4" y="960.6" type="curve" smooth="yes"/>
      <point x="653.0" y="960.6"/>
      <point x="739.2" y="845.0"/>
      <point x="739.2" y="648.0" type="curve" smooth="yes"/>
      <point x="739.2" y="376.0" type="line"/>
    </contour>
    <contour>
      <point x="739.2" y="376.0" type="line"/>
      <point x="739.2" y="157.0"/>
      <point x="585.0" y="23.400000000000002"/>
      <point x="395.6" y="23.400000000000002" type="curve" smooth="yes"/>
      <point x="255.0" y="23.400000000000002"/>
      <point x="150.2" y="89.8"/>
      <point x="150.2" y="254.8" type="curve" smooth="yes"/>
      <point x="150.2" y="413.0"/>
      <point x="339.0" y="520.4"/>
      <point x="749.0" y="531.8" type="curve"/>
      <point x="745.0" y="568.6" type="line"/>
      <point x="295.8" y="558.6"/>
      <point x="99.0" y="428.2"/>
      <point x="99.0" y="253.2" type="curve" smooth="yes"/>
      <point x="99.0" y="56.4"/>
      <point x="230.0" y="-16.0"/>
      <point x="388.0" y="-16.0" type="curve" smooth="yes"/>
      <point x="547.0" y="-16.0"/>
      <point x="776.4" y="79.8"/>
      <point x="776.4" y="376.0" type="curve"/>
    </contour>
  </outline>
</glyph>
<glyph name="ccedilla" format="2">
  <advance width="937"/>
  <unicode hex="00E7"/>
  <anchor x="472.3" y="-421" name="bottom"/>
  <anchor x="551.1" y="1120" name="top"/>
  <outline>
    <contour>
      <point x="840.1" y="894.6" type="line"/>
      <point x="770.9" y="958.8"/>
      <point x="674.3" y="1002"/>
      <point x="551.9" y="1002" type="curve" smooth="yes" name="n03"/>
      <point x="275.1" y="1002"/>
      <point x="114.9" y="796.8"/>
      <point x="114.9" y="493.2" type="curve" smooth="yes" name="n06"/>
      <point x="114.9" y="174.6"/>
      <point x="281.1" y="-12.4"/>
      <point x="533.3" y="-12.4" type="curve" smooth="yes" name="n09"/>
      <point x="684.3" y="-12.4"/>
      <point x="806.5" y="53.6"/>
      <point x="855.3" y="120.8" type="curve"/>
      <point x="842.7" y="136" type="line" smooth="yes"/>
      <point x="839.7" y="139.6"/>
      <point x="835.9" y="142.4"/>
      <point x="829.9" y="142.4" type="curve" smooth="yes"/>
      <point x="808.1" y="142.4"/>
      <point x="740.7" y="29.4"/>
      <point x="539.1" y="29.4" type="curve" smooth="yes"/>
      <point x="315.1" y="29.4"/>
      <point x="168.3" y="196.8"/>
      <point x="168.3" y="493.2" type="curve" smooth="yes" name="n22"/>
      <point x="168.3" y="779.8"/>
      <point x="310.1" y="960.2"/>
      <point x="553.9" y="960.2" type="curve" smooth="yes" name="n25"/>
      <point x="728.3" y="960.2"/>
      <point x="792.5" y="870.4"/>
      <point x="812.9" y="870.4" type="curve" smooth="yes"/>
      <point x="819.7" y="870.4"/>
      <point x="822.9" y="873.6"/>
      <point x="826.5" y="877.8" type="curve"/>
    </contour>
    <contour>
      <point x="428.6" y="-288" type="curve" smooth="yes"/>
      <point x="423" y="-288"/>
      <point x="420.2" y="-290.8"/>
      <point x="416.2" y="-296.2" type="curve"/>
      <point x="409.8" y="-309.6" type="line"/>
      <point x="441.8" y="-337.6"/>
      <point x="500.2" y="-357.8"/>
      <point x="554.2" y="-357.8" type="curve" smooth="yes" name="n39"/>
      <point x="651.2" y="-357.8"/>
      <point x="721.4" y="-312.2"/>
      <point x="721.4" y="-234.4" type="curve" smooth="yes" name="n42"/>
      <point x="721.4" y="-149.2"/>
      <point x="642.4" y="-119.2"/>
      <point x="515.2" y="-100.4" type="curve"/>
      <point x="531" y="-111.8" type="line"/>
      <point x="567.1" y="4.6" type="line"/>
      <point x="533.7" y="4.6" type="line" name="n48"/>
      <point x="491.2" y="-128" type="line"/>
      <point x="596.4" y="-140.2"/>
      <point x="677.4" y="-159.2"/>
      <point x="677.4" y="-235.6" type="curve" smooth="yes" name="n52"/>
      <point x="677.4" y="-292.6"/>
      <point x="632.8" y="-328.2"/>
      <point x="557.4" y="-328.2" type="curve" smooth="yes" name="n55"/>
      <point x="471.8" y="-328.2"/>
      <point x="441.4" y="-288"/>
    </contour>
  </outline>
</glyph>
<glyph name="eth" format="2">
  <advance width="1115.7"/>
  <unicode hex="00F0"/>
  <guideline y="1406.0"/>
  <anchor x="794.4" y="1498.9" name="Top"/>
  <anchor x="794.4" y="1498.9" name="top"/>
  <anchor x="542.5" y="-70.0" name="bottom"/>
  <outline>
    <contour>
      <point x="321.5" y="1379.8" type="curve"/>
      <point x="316.1" y="1361.8" type="line" smooth="yes"/>
      <point x="311.3" y="1346.4"/>
      <point x="323.9" y="1338.0"/>
      <point x="332.9" y="1336.4" type="curve"/>
      <point x="656.9" y="1278.2"/>
      <point x="937.3" y="1080.6"/>
      <point x="939.1" y="600.2" type="curve"/>
      <point x="934.9" y="594.4" type="line"/>
      <point x="934.9" y="260.2"/>
      <point x="805.1" y="31.200000000000003"/>
      <point x="540.5" y="31.200000000000003" type="curve" smooth="yes"/>
      <point x="341.5" y="31.200000000000003"/>
      <point x="168.7" y="185.8"/>
      <point x="168.7" y="449.4" type="curve" smooth="yes"/>
      <point x="168.7" y="690.0"/>
      <point x="298.9" y="876.2"/>
      <point x="550.9" y="876.2" type="curve" smooth="yes"/>
      <point x="776.5" y="876.2"/>
      <point x="898.7" y="702.8"/>
      <point x="936.5" y="554.0" type="curve"/>
      <point x="962.7" y="565.0" type="line"/>
      <point x="904.3" y="818.4"/>
      <point x="706.9" y="918.0"/>
      <point x="544.5" y="918.0" type="curve" smooth="yes"/>
      <point x="270.1" y="918.0"/>
      <point x="116.3" y="709.4"/>
      <point x="116.3" y="449.6" type="curve" smooth="yes"/>
      <point x="116.3" y="166.2"/>
      <point x="307.3" y="-10.6"/>
      <point x="539.7" y="-10.6" type="curve" smooth="yes"/>
      <point x="840.3" y="-10.6"/>
      <point x="982.1" y="235.2"/>
      <point x="982.1" y="595.8" type="curve" smooth="yes"/>
      <point x="982.1" y="1129.2"/>
      <point x="643.5" y="1329.6"/>
    </contour>
    <contour>
      <point x="503.3" y="1058.8" type="line"/>
      <point x="665.7" y="1218.8" type="line"/>
      <point x="671.9" y="1222.8" type="line"/>
      <point x="807.8" y="1358.5" type="line" smooth="yes"/>
      <point x="818.4" y="1368.6"/>
      <point x="818.7" y="1377.8"/>
      <point x="812.9" y="1386.8" type="curve"/>
      <point x="803.1" y="1400.6" type="line"/>
      <point x="649.3" y="1247.6" type="line"/>
      <point x="643.3" y="1243.6" type="line"/>
      <point x="494.9" y="1098.6" type="line"/>
      <point x="485.5" y="1091.0"/>
      <point x="486.1" y="1080.0"/>
      <point x="493.9" y="1072.4" type="curve"/>
    </contour>
  </outline>
</glyph>
<glyph name="divide" format="2">
  <advance width="1160.0"/>
  <unicode hex="00F7"/>
  <outline>
    <contour>
      <point x="114.7" y="649.6" type="line"/>
      <point x="1043.5" y="649.6" type="line"/>
      <point x="1043.5" y="690.8" type="line"/>
      <point x="114.7" y="690.8" type="line"/>
    </contour>
    <contour>
      <point x="502.9" y="1024.4" type="curve" smooth="yes"/>
      <point x="502.9" y="982.0"/>
      <point x="535.7" y="949.2"/>
      <point x="578.1" y="949.2" type="curve" smooth="yes"/>
      <point x="620.3" y="949.2"/>
      <point x="655.1" y="982.0"/>
      <point x="655.1" y="1024.4" type="curve" smooth="yes"/>
      <point x="655.1" y="1066.6"/>
      <point x="620.3" y="1101.4"/>
      <point x="578.1" y="1101.4" type="curve" smooth="yes"/>
      <point x="535.7" y="1101.4"/>
      <point x="502.9" y="1066.6"/>
    </contour>
    <contour>
      <point x="502.9" y="312.4" type="curve" smooth="yes"/>
      <point x="502.9" y="270.0"/>
      <point x="535.7" y="237.2"/>
      <point x="578.1" y="237.2" type="curve" smooth="yes"/>
      <point x="620.3" y="237.2"/>
      <point x="655.1" y="270.0"/>
      <point x="655.1" y="312.4" type="curve" smooth="yes"/>
      <point x="655.1" y="354.6"/>
      <point x="620.3" y="389.4"/>
      <point x="578.1" y="389.4" type="curve" smooth="yes"/>
      <point x="535.7" y="389.4"/>
      <point x="502.9" y="354.6"/>
    </contour>
  </outline>
</glyph>
<glyph name="oslash" format="2">
  <advance width="1104"/>
  <unicode hex="00F8"/>
  <anchor x="476.2" y="-70" name="bottom"/>
  <anchor x="553.2" y="1120" name="top"/>
  <outline>
    <contour>
      <point x="553.3" y="1002" type="curve" smooth="yes" name="n00"/>
      <point x="273.3" y="1002"/>
      <point x="114.9" y="799.8"/>
      <point x="114.9" y="493.2" type="curve" smooth="yes" name="n03"/>
      <point x="114.9" y="186.4"/>
      <point x="273.3" y="-12.4"/>
      <point x="553.3" y="-12.4" type="curve" smooth="yes" name="n06"/>
      <point x="833.1" y="-12.4"/>
      <point x="991.3" y="186.4"/>
      <point x="991.3" y="493.2" type="curve" smooth="yes" name="n09"/>
      <point x="991.3" y="799.8"/>
      <point x="833.1" y="1002"/>
    </contour>
    <contour>
      <point x="553.3" y="28.6" type="curve" smooth="yes" name="n12"/>
      <point x="297.5" y="28.6"/>
      <point x="166.5" y="211.8"/>
      <point x="166.5" y="493" type="curve" smooth="yes" name="n15"/>
      <point x="166.5" y="772.2"/>
      <point x="297.5" y="961"/>
      <point x="553.3" y="961" type="curve" smooth="yes" name="n18"/>
      <point x="808.7" y="961"/>
      <point x="939.7" y="774.2"/>
      <point x="939.7" y="493" type="curve" smooth="yes" name="n21"/>
      <point x="939.7" y="213.8"/>
      <point x="808.7" y="28.6"/>
    </contour>
    <contour>
      <point x="1004.9" y="1044" type="line" name="n24"/>
      <point x="975.3" y="1044" type="line" smooth="yes"/>
      <point x="959.1" y="1044"/>
      <point x="952.9" y="1038.4"/>
      <point x="943.5" y="1025" type="curve"/>
      <point x="123.1" y="-74.4" type="line" name="n29"/>
      <point x="146.9" y="-74.4" type="line" smooth="yes"/>
      <point x="160.5" y="-74.4"/>
      <point x="175.3" y="-68.6"/>
      <point x="185.1" y="-54.6" type="curve"/>
    </contour>
  </outline>
</glyph>
<glyph name="thorn" format="2">
  <advance width="1093"/>
  <unicode hex="00FE"/>
  <anchor x="210.2" y="1498.9" name="Top"/>
  <anchor x="462.9" y="-421" name="bottom"/>
  <anchor x="210.2" y="1498.9" name="top"/>
  <outline>
    <contour>
      <point x="228.7" y="-356.8" type="line" name="n00"/>
      <point x="228.7" y="1446" type="line" name="n01"/>
      <point x="176.1" y="1446" type="line"/>
      <point x="176.1" y="-356.8" type="line"/>
    </contour>
    <contour>
      <point x="215.9" y="174.8" type="line" name="n04"/>
      <point x="289.5" y="49.6"/>
      <point x="397.3" y="-12.4"/>
      <point x="545.7" y="-12.4" type="curve" smooth="yes" name="n07"/>
      <point x="827.7" y="-12.4"/>
      <point x="977.1" y="212.4"/>
      <point x="977.1" y="499.2" type="curve" smooth="yes" name="n10"/>
      <point x="977.1" y="838.6"/>
      <point x="836.9" y="1002"/>
      <point x="586.7" y="1002" type="curve" smooth="yes" name="n13"/>
      <point x="430.7" y="1002"/>
      <point x="299.3" y="910.6"/>
      <point x="210.9" y="769.2" type="curve"/>
      <point x="218.1" y="728.2" type="line"/>
      <point x="305.9" y="872"/>
      <point x="431.7" y="959.6"/>
      <point x="575.9" y="959.6" type="curve" smooth="yes" name="n20"/>
      <point x="801.7" y="959.6"/>
      <point x="923.5" y="812.2"/>
      <point x="923.5" y="499.2" type="curve" smooth="yes" name="n23"/>
      <point x="923.5" y="230"/>
      <point x="796.3" y="29.4"/>
      <point x="538.3" y="29.4" type="curve" smooth="yes" name="n26"/>
      <point x="402.3" y="29.4"/>
      <point x="302.7" y="80"/>
      <point x="218.5" y="220.8" type="curve"/>
    </contour>
  </outline>
</glyph>
<glyph name="Dcroat" format="2">
  <advance width="1531"/>
  <unicode hex="0110"/>
  <anchor x="639.3" y="1498.9" name="Top"/>
  <anchor x="602.6" y="-70" name="bottom"/>
  <anchor x="639.3" y="1498.9" name="top"/>
  <outline>
    <contour>
      <point x="1400.3" y="703" type="curve" smooth="yes" name="n00"/>
      <point x="1400.3" y="1142.6"/>
      <point x="1132.5" y="1406"/>
      <point x="741.5" y="1406" type="curve" smooth="yes" name="n03"/>
      <point x="234.9" y="1406" type="line" name="n04"/>
      <point x="234.9" y="0" type="line"/>
      <point x="741.5" y="0" type="line" smooth="yes" name="n06"/>
      <point x="1132.5" y="0"/>
      <point x="1400.3" y="263.2"/>
    </contour>
    <contour>
      <point x="1342.3" y="703" type="curve" smooth="yes" name="n09"/>
      <point x="1342.3" y="284"/>
      <point x="1098.5" y="45.2"/>
      <point x="741.5" y="45.2" type="curve" smooth="yes" name="n12"/>
      <point x="290.5" y="45.2" type="line"/>
      <point x="290.5" y="1360.8" type="line" name="n14"/>
      <point x="741.5" y="1360.8" type="line" smooth="yes" name="n15"/>
      <point x="1098.5" y="1360.8"/>
      <point x="1342.3" y="1121.8"/>
    </contour>
    <contour>
      <point x="9.5" y="695.4" type="line" name="n18"/>
      <point x="624.5" y="695.4" type="line"/>
      <point x="624.5" y="732.6" type="line"/>
      <point x="9.5" y="732.6" type="line" name="n21"/>
    </contour>
  </outline>
</glyph>
<glyph name="dcroat" format="2">
  <advance width="1093.3"/>
  <unicode hex="0111"/>
  <anchor x="885.4" y="1498.9" name="Top"/>
  <anchor x="885.4" y="1498.9" name="top"/>
  <anchor x="612.5" y="-70.0" name="bottom"/>
  <outline>
    <contour>
      <point x="610.7" y="1165.0" type="line"/>
      <point x="1073.5" y="1165.0" type="line"/>
      <point x="1073.5" y="1202.2" type="line"/>
      <point x="610.7" y="1202.2" type="line"/>
    </contour>
    <contour>
      <point x="917.3" y="0.0" type="line"/>
      <point x="917.3" y="1446.0" type="line"/>
      <point x="864.7" y="1446.0" type="line"/>
      <point x="864.7" y="222.2" type="line"/>
      <point x="865.7" y="217.0" type="line"/>
      <point x="872.5" y="19.8" type="line"/>
      <point x="873.7" y="5.4"/>
      <point x="879.9" y="0.0"/>
      <point x="892.7" y="0.0" type="curve"/>
    </contour>
    <contour>
      <point x="879.9" y="811.0" type="line"/>
      <point x="805.7" y="936.4"/>
      <point x="697.3" y="998.4"/>
      <point x="547.7" y="998.4" type="curve" smooth="yes"/>
      <point x="265.7" y="998.4"/>
      <point x="116.3" y="775.6"/>
      <point x="116.3" y="488.8" type="curve" smooth="yes"/>
      <point x="116.3" y="149.4"/>
      <point x="256.5" y="-12.4"/>
      <point x="506.7" y="-12.4" type="curve" smooth="yes"/>
      <point x="662.7" y="-12.4"/>
      <point x="794.1" y="79.4"/>
      <point x="882.5" y="220.8" type="curve"/>
      <point x="875.3" y="261.8" type="line"/>
      <point x="787.5" y="118.0"/>
      <point x="661.7" y="30.400000000000002"/>
      <point x="517.5" y="30.400000000000002" type="curve" smooth="yes"/>
      <point x="291.7" y="30.400000000000002"/>
      <point x="169.9" y="175.8"/>
      <point x="169.9" y="488.8" type="curve" smooth="yes"/>
      <point x="169.9" y="758.0"/>
      <point x="297.1" y="956.6"/>
      <point x="555.1" y="956.6" type="curve" smooth="yes"/>
      <point x="691.1" y="956.6"/>
      <point x="790.7" y="906.0"/>
      <point x="874.9" y="765.2" type="curve"/>
    </contour>
  </outline>
</glyph>
<glyph name="Hbar" format="2">
  <advance width="1507.8"/>
  <unicode hex="0126"/>
  <anchor x="762.9" y="1498.9" name="Top"/>
  <anchor x="762.9" y="1498.9" name="top"/>
  <anchor x="764.0" y="-70.0" name="bottom"/>
  <anchor x="-61.1" y="1120.0" name="onRight"/>
  <outline>
    <contour>
      <point x="40.9" y="1041.2" type="line"/>
      <point x="1466.9" y="1041.2" type="line"/>
      <point x="1466.9" y="1077.2" type="line"/>
      <point x="40.9" y="1077.2" type="line"/>
    </contour>
    <component base="H" xOffset="3.0"/>
  </outline>
</glyph>
<glyph name="idotless" format="2">
  <advance width="428"/>
  <unicode hex="0131"/>
  <anchor x="214" y="-70" name="bottom"/>
  <anchor x="214.9" y="1120" name="top"/>
  <outline>
    <contour>
      <point x="187.7" y="986" type="line" name="n00"/>
      <point x="187.7" y="0" type="line" name="n01"/>
      <point x="240.3" y="0" type="line"/>
      <point x="240.3" y="986" type="line" name="n03"/>
    </contour>
  </outline>
</glyph>
<glyph name="Lslash" format="2">
  <advance width="1027.4"/>
  <unicode hex="0141"/>
  <anchor x="275.4" y="1498.9" name="Top"/>
  <anchor x="275.4" y="1498.9" name="top"/>
  <anchor x="599.9" y="-70.0" name="bottom"/>
  <anchor x="275.1" y="702.8" name="Bar"/>
  <outline>
    <contour>
      <point x="46.1" y="498.8" type="line"/>
      <point x="277.3" y="620.6" type="line"/>
      <point x="281.7" y="618.8" type="line"/>
      <point x="718.9" y="849.7" type="line" smooth="yes"/>
      <point x="732.3" y="856.1"/>
      <point x="733.7" y="863.7"/>
      <point x="733.7" y="874.1" type="curve" smooth="yes"/>
      <point x="733.7" y="907.2" type="line"/>
      <point x="281.7" y="669.0" type="line"/>
      <point x="277.5" y="670.8" type="line"/>
      <point x="60.5" y="555.2" type="line"/>
      <point x="49.1" y="548.8"/>
      <point x="46.1" y="543.2"/>
      <point x="46.1" y="531.6" type="curve" smooth="yes"/>
    </contour>
    <component base="L" xOffset="22.4"/>
  </outline>
</glyph>
<glyph name="lslash" format="2">
  <advance width="538.7"/>
  <unicode hex="0142"/>
  <anchor x="280.7" y="1498.9" name="Top"/>
  <anchor x="280.7" y="1498.9" name="top"/>
  <anchor x="282.4" y="-70.0" name="bottom"/>
  <anchor x="307.5" y="40.2" name="hook"/>
  <anchor x="283.1" y="705.6" name="bar"/>
  <outline>
    <contour>
      <point x="50.3" y="701.9" type="line"/>
      <point x="279.8" y="811.6" type="line"/>
      <point x="284.2" y="809.8" type="line"/>
      <point x="498.6" y="912.7" type="line" smooth="yes"/>
      <point x="512.0" y="919.1"/>
      <point x="513.4" y="926.7"/>
      <point x="513.4" y="937.1" type="curve" smooth="yes"/>
      <point x="513.4" y="960.7" type="line"/>
      <point x="284.2" y="853.2" type="line"/>
      <point x="280.0" y="855.0" type="line"/>
      <point x="64.7" y="749.7" type="line"/>
      <point x="53.3" y="743.3"/>
      <point x="50.3" y="737.7"/>
      <point x="50.3" y="726.1" type="curve" smooth="yes"/>
    </contour>
    <component base="l" xOffset="68.0"/>
  </outline>
</glyph>
<glyph name="Eng" format="2">
  <advance width="1502"/>
  <unicode hex="014A"/>
  <anchor x="793.1" y="1497.1" name="Top"/>
  <anchor x="750.9" y="-421" name="bottom"/>
  <anchor x="793.1" y="1497.1" name="top"/>
  <outline>
    <contour>
      <point x="1252.3" y="68" type="line"/>
      <point x="271.7" y="1393.4" type="line" smooth="yes"/>
      <point x="264.5" y="1403.4"/>
      <point x="259.1" y="1406" name="n03"/>
      <point x="247.9" y="1406" type="curve" smooth="yes"/>
      <point x="222.9" y="1406" type="line"/>
      <point x="222.9" y="0" type="line" name="n06"/>
      <point x="270.7" y="0" type="line" name="n07"/>
      <point x="270.7" y="1279.6" type="line" smooth="yes"/>
      <point x="270.7" y="1303.2"/>
      <point x="267.9" y="1332.6"/>
      <point x="263.9" y="1356.2" type="curve"/>
      <point x="253.1" y="1338" type="line"/>
      <point x="1234.2" y="12.1" type="line"/>
      <point x="1240.3" y="4.3"/>
      <point x="1246.2" y="0"/>
      <point x="1255.9" y="0" type="curve"/>
      <point x="1278.9" y="8.7" type="line"/>
      <point x="1278.9" y="1406" type="line" name="n18"/>
      <point x="1231.1" y="1406" type="line" name="n19"/>
      <point x="1231.1" y="129.2" type="line" smooth="yes"/>
      <point x="1231.1" y="106.4"/>
      <point x="1234.3" y="77.8"/>
      <point x="1238.3" y="55" type="curve"/>
    </contour>
    <contour>
      <point x="1278.9" y="69.9" type="line"/>
      <point x="1231" y="69.9" type="line"/>
      <point x="1231" y="-59.5" type="line" smooth="yes"/>
      <point x="1231" y="-231.6"/>
      <point x="1153.9" y="-318.5"/>
      <point x="1020" y="-318.5" type="curve" smooth="yes"/>
      <point x="956" y="-318.5"/>
      <point x="917.8" y="-298.7"/>
      <point x="907.4" y="-298.7" type="curve" smooth="yes" name="n32"/>
      <point x="901.8" y="-298.7"/>
      <point x="894.8" y="-299.8"/>
      <point x="891.7" y="-311.8" type="curve" smooth="yes"/>
      <point x="886.5" y="-331.8" type="line"/>
      <point x="932.3" y="-350.2"/>
      <point x="974.6" y="-359.6"/>
      <point x="1023.8" y="-359.6" type="curve" smooth="yes" name="n39"/>
      <point x="1193.4" y="-359.6"/>
      <point x="1278.9" y="-247.7"/>
      <point x="1278.9" y="-55.8" type="curve" smooth="yes"/>
    </contour>
  </outline>
</glyph>
<glyph name="eng" format="2">
  <advance width="1092"/>
  <unicode hex="014B"/>
  <anchor x="551.6" y="-421" name="bottom"/>
  <anchor x="547.1" y="1120" name="top"/>
  <outline>
    <contour>
      <point x="228.7" y="0" type="line" name="n00"/>
      <point x="228.7" y="763.8" type="line"/>
      <point x="227.7" y="769" type="line"/>
      <point x="220.9" y="966.2" type="line" name="n03"/>
      <point x="219.7" y="980.6"/>
      <point x="213.5" y="986" name="n05"/>
      <point x="200.7" y="986" type="curve" smooth="yes"/>
      <point x="176.1" y="986" type="line" name="n07"/>
      <point x="176.1" y="0" type="line"/>
    </contour>
    <contour>
      <point x="927.1" y="631.2" type="line" smooth="yes" name="n09"/>
      <point x="927.1" y="862.8"/>
      <point x="819.1" y="1002"/>
      <point x="600.3" y="1002" type="curve" smooth="yes" name="n12"/>
      <point x="438.9" y="1002"/>
      <point x="301.5" y="908.6"/>
      <point x="208.5" y="767.8" type="curve"/>
      <point x="215.7" y="728.2" type="line"/>
      <point x="310.9" y="871.2"/>
      <point x="441.1" y="959.6"/>
      <point x="590.7" y="959.6" type="curve" smooth="yes" name="n19"/>
      <point x="783.3" y="959.6"/>
      <point x="874.5" y="837"/>
      <point x="874.5" y="631.2" type="curve" name="n22"/>
      <point x="874.5" y="631.2" type="line"/>
      <point x="874.5" y="-73.9" type="line" smooth="yes"/>
      <point x="874.5" y="-246"/>
      <point x="797.4" y="-332.9"/>
      <point x="663.5" y="-332.9" type="curve" smooth="yes"/>
      <point x="599.5" y="-332.9"/>
      <point x="561.3" y="-313.1"/>
      <point x="550.9" y="-313.1" type="curve" smooth="yes" name="n30"/>
      <point x="545.3" y="-313.1"/>
      <point x="538.3" y="-314.2"/>
      <point x="535.2" y="-326.2" type="curve" smooth="yes"/>
      <point x="530" y="-346.2" type="line"/>
      <point x="575.8" y="-364.6"/>
      <point x="618.1" y="-374"/>
      <point x="667.3" y="-374" type="curve" smooth="yes" name="n37"/>
      <point x="836.9" y="-374"/>
      <point x="927.1" y="-262.1"/>
      <point x="927.1" y="-70.2" type="curve" smooth="yes"/>
    </contour>
  </outline>
</glyph>
<glyph name="OE" format="2">
  <advance width="2212.7"/>
  <unicode hex="0152"/>
  <anchor x="1129.5" y="1498.9" name="Top"/>
  <anchor x="1129.5" y="1498.9" name="top"/>
  <anchor x="1220.6" y="-70.0" name="bottom"/>
  <outline>
    <contour>
      <point x="1318.1" y="703.0" type="curve" smooth="yes"/>
      <point x="1318.1" y="1142.6"/>
      <point x="1082.3" y="1422.0"/>
      <point x="723.1" y="1422.0" type="curve" smooth="yes"/>
      <point x="374.3" y="1422.0"/>
      <point x="131.1" y="1141.0"/>
      <point x="131.1" y="703.0" type="curve" smooth="yes"/>
      <point x="131.1" y="263.2"/>
      <point x="374.3" y="-12.4"/>
      <point x="723.1" y="-12.4" type="curve" smooth="yes"/>
      <point x="1082.3" y="-12.4"/>
      <point x="1318.1" y="263.2"/>
    </contour>
    <contour>
      <point x="1328.1" y="1406.0" type="line"/>
      <point x="1278.3" y="1406.0" type="line"/>
      <point x="1278.3" y="0.0" type="line"/>
      <point x="1328.1" y="0.0" type="line"/>
    </contour>
    <contour>
      <point x="1317.7" y="736.2" type="line"/>
      <point x="1317.7" y="690.2" type="line"/>
      <point x="1980.5" y="690.2" type="line"/>
      <point x="1980.5" y="736.2" type="line"/>
    </contour>
    <contour>
      <point x="1317.7" y="1406.0" type="line"/>
      <point x="1317.7" y="1359.0" type="line"/>
      <point x="2102.5" y="1359.0" type="line"/>
      <point x="2102.5" y="1406.0" type="line"/>
    </contour>
    <contour>
      <point x="1317.7" y="47.0" type="line"/>
      <point x="1317.7" y="0.0" type="line"/>
      <point x="2102.5" y="0.0" type="line"/>
      <point x="2104.3" y="47.0" type="line"/>
    </contour>
    <contour>
      <point x="1272.5" y="703.0" type="curve" smooth="yes"/>
      <point x="1272.5" y="284.0"/>
      <point x="1052.1" y="33.8"/>
      <point x="730.1" y="33.8" type="curve" smooth="yes"/>
      <point x="411.3" y="33.8"/>
      <point x="187.3" y="284.0"/>
      <point x="187.3" y="703.0" type="curve" smooth="yes"/>
      <point x="187.3" y="1121.8"/>
      <point x="411.3" y="1375.8"/>
      <point x="730.1" y="1375.8" type="curve" smooth="yes"/>
      <point x="1052.1" y="1375.8"/>
      <point x="1272.5" y="1121.8"/>
    </contour>
  </outline>
</glyph>
<glyph name="oe" format="2">
  <advance width="1736"/>
  <unicode hex="0153"/>
  <anchor x="845.2" y="-70" name="bottom"/>
  <anchor x="890.9" y="1120" name="top"/>
  <outline>
    <contour>
      <point x="525.4" y="1002" type="curve" smooth="yes" name="n00"/>
      <point x="264.6" y="1002"/>
      <point x="115.8" y="799.8"/>
      <point x="115.8" y="493.2" type="curve" smooth="yes" name="n03"/>
      <point x="115.8" y="186.4"/>
      <point x="264.6" y="-12.4"/>
      <point x="524.2" y="-12.4" type="curve" smooth="yes" name="n06"/>
      <point x="784" y="-12.4"/>
      <point x="925.2" y="186.4"/>
      <point x="925.2" y="493.2" type="curve" smooth="yes"/>
      <point x="925.2" y="799.8"/>
      <point x="784" y="1002"/>
    </contour>
    <contour>
      <point x="527.2" y="29.6" type="curve" smooth="yes" name="n12"/>
      <point x="288.8" y="29.6"/>
      <point x="169.4" y="213.8"/>
      <point x="169.4" y="493" type="curve" smooth="yes" name="n15"/>
      <point x="169.4" y="772.2"/>
      <point x="288.8" y="960"/>
      <point x="527.2" y="960" type="curve" smooth="yes" name="n18"/>
      <point x="763.6" y="960"/>
      <point x="883" y="772.2"/>
      <point x="883" y="493" type="curve" smooth="yes"/>
      <point x="883" y="213.8"/>
      <point x="763.6" y="29.6"/>
    </contour>
    <contour>
      <point x="1285.8" y="1002" type="curve" smooth="yes"/>
      <point x="1036" y="1002"/>
      <point x="894" y="800.2"/>
      <point x="894" y="513.2" type="curve" smooth="yes" name="n27"/>
      <point x="894" y="178.2"/>
      <point x="1045.8" y="-12.4"/>
      <point x="1288.6" y="-12.4" type="curve" smooth="yes"/>
      <point x="1426.6" y="-12.4"/>
      <point x="1560.6" y="55.4"/>
      <point x="1609.4" y="120.8" type="curve"/>
      <point x="1596.6" y="136" type="line" smooth="yes"/>
      <point x="1593.6" y="139.6"/>
      <point x="1589.8" y="142.4"/>
      <point x="1584" y="142.4" type="curve" smooth="yes"/>
      <point x="1565.6" y="142.4"/>
      <point x="1479.8" y="29.8"/>
      <point x="1291.6" y="29.8" type="curve" smooth="yes"/>
      <point x="1077.2" y="29.8"/>
      <point x="935" y="199.2"/>
      <point x="935" y="513.2" type="curve" smooth="yes" name="n43"/>
      <point x="935" y="780.2"/>
      <point x="1061.8" y="961.6"/>
      <point x="1286.2" y="961.6" type="curve" smooth="yes"/>
      <point x="1455.4" y="961.6"/>
      <point x="1582" y="824"/>
      <point x="1582" y="568.4" type="curve" name="n49"/>
      <point x="925.2" y="568.4" type="line" name="n50"/>
      <point x="924" y="533.4" type="line" name="n51"/>
      <point x="1611.8" y="533.4" type="line" smooth="yes"/>
      <point x="1622.8" y="533.4"/>
      <point x="1627.6" y="539.4"/>
      <point x="1627.6" y="554.4" type="curve" smooth="yes" name="n55"/>
      <point x="1627.6" y="847.4"/>
      <point x="1477.8" y="1002"/>
    </contour>
  </outline>
</glyph>
<glyph name="Tbar" format="2">
  <advance width="1184"/>
  <unicode hex="0166"/>
  <anchor x="596.3" y="702.8" name="Slash"/>
  <anchor x="594.2" y="1498.9" name="Top"/>
  <anchor x="594.2" y="-70" name="bottom"/>
  <anchor x="594.2" y="1498.9" name="top"/>
  <outline>
    <component base="T" xOffset="19"/>
    <contour>
      <point x="212.1" y="811.4" type="line" name="n00"/>
      <point x="971.9" y="811.4" type="line"/>
      <point x="971.9" y="848.6" type="line"/>
      <point x="212.1" y="848.6" type="line" name="n03"/>
    </contour>
  </outline>
</glyph>
<glyph name="tbar" format="2">
  <advance width="674"/>
  <unicode hex="0167"/>
  <anchor x="365.3" y="702.8" name="Slash"/>
  <anchor x="263.6" y="526.1" name="bar"/>
  <anchor x="432.1" y="-70" name="bottom"/>
  <anchor x="266.8" y="1405.7" name="top"/>
  <outline>
    <component base="t" xOffset="3.8"/>
    <contour>
      <point x="73.8" y="651.6" type="line" name="n00"/>
      <point x="609.8" y="651.6" type="line"/>
      <point x="609.8" y="688.8" type="line"/>
      <point x="73.8" y="688.8" type="line" name="n03"/>
    </contour>
  </outline>
</glyph>
<glyph name="longs" format="2">
  <advance width="502.8"/>
  <unicode hex="017F"/>
  <anchor x="477.4" y="1482.0" name="top"/>
  <anchor x="419.8" y="1498.9" name="Top"/>
  <anchor x="260.5" y="-70.0" name="bottom"/>
  <outline>
    <contour>
      <point x="286.8" y="0.0" type="line"/>
      <point x="286.8" y="1087.6" type="line" smooth="yes"/>
      <point x="286.8" y="1300.6"/>
      <point x="387.2" y="1380.8"/>
      <point x="522.4" y="1380.8" type="curve" smooth="yes"/>
      <point x="588.8" y="1380.8"/>
      <point x="625.0" y="1356.6"/>
      <point x="628.8" y="1376.2" type="curve"/>
      <point x="631.6" y="1399.8" type="line"/>
      <point x="601.8" y="1413.6"/>
      <point x="556.2" y="1421.4"/>
      <point x="517.0" y="1421.4" type="curve" smooth="yes"/>
      <point x="350.6" y="1421.4"/>
      <point x="234.2" y="1314.0"/>
      <point x="234.2" y="1088.6" type="curve" smooth="yes"/>
      <point x="234.2" y="0.0" type="line"/>
    </contour>
    <contour>
      <point x="275.4" y="908.0" type="line"/>
      <point x="275.4" y="948.2" type="line"/>
      <point x="61.2" y="948.2" type="line"/>
      <point x="61.2" y="928.2" type="line"/>
      <point x="61.2" y="920.0"/>
      <point x="68.0" y="914.2"/>
      <point x="79.8" y="913.2" type="curve"/>
      <point x="245.2" y="907.0" type="line"/>
      <point x="261.8" y="908.0" type="line"/>
    </contour>
  </outline>
</glyph>
